<svg xmlns="http://www.w3.org/2000/svg" width="1602.014" height="1296.766" viewBox="0 0 1602.014 1296.766"><path d="M524 1423.11c-14.293-1.42-32.82-5.075-43.591-8.6-25.25-8.266-51.415-30.902-61.2-52.945-3.956-8.912-8.542-32.313-8.542-43.585 0-11.046 4.183-32.536 8.309-42.688 4.83-11.886 9.615-18.78 21.56-31.066 11.82-12.16 25.302-21.357 37.56-25.625 23.095-8.04 66.49-12.368 92.412-9.216 15.507 1.886 39.554 8.548 52.159 14.451 4.594 2.152 4.665 2.309 4.551 10.175-.101 7.075-4.251 29.55-6.565 35.553-1.492 3.871-4.518 3.828-11.016-.159-9.208-5.649-17.897-8.74-33.49-11.917-17.14-3.491-44.754-3.88-56.867-.801-13.107 3.332-27.139 10.972-35.512 19.338-6.405 6.4-8.01 9.025-10.47 17.122-2.472 8.138-2.83 11.993-2.408 25.875.429 14.11.96 17.309 3.938 23.705 7.108 15.271 17.252 22.283 40.505 28 19.201 4.721 40.147 5.003 60.667.817 18.536-3.78 25.173-5.861 32.025-10.038 5.377-3.278 12.268-3.7 14.597-.893 2.187 2.635 8.785 35.535 7.696 38.373-1.432 3.731-23.245 13.622-38.318 17.376-22.101 5.504-51.322 8.404-68 6.748m707.333-1.803c-15.96-3.119-29.645-7.979-37.618-13.36-3.217-2.17-6.255-3.947-6.753-3.947-.497 0-3.098 2.4-5.779 5.333l-4.875 5.334h-21.409c-14.05 0-21.718-.501-22.31-1.458-.495-.802-.798-62.452-.674-137 .195-116.747.498-135.958 2.186-138.542 1.908-2.92 2.576-3 25.008-3 17.802 0 23.637.43 25.636 1.892 2.465 1.803 2.566 3.484 2.13 35.216-.252 18.327-.03 37.876.49 43.44 1.109 11.833 2.321 12.488 11.568 6.251 14.116-9.522 36.36-16.133 54.28-16.133 16.296 0 36.298 4.231 50.008 10.578 29.076 13.46 43.336 29.569 53.196 60.089 12.371 38.296 2.937 90.833-20.337 113.257-16.722 16.11-35.822 26.421-57.148 30.851-19.028 3.953-31.855 4.276-47.599 1.2m33.114-44.79c17.231-5.738 32.713-19.8 37.003-33.608.839-2.7 1.8-10.909 2.137-18.242 1.103-24.03-4.686-47.01-14.881-59.066-6.146-7.268-19.875-12.89-37.846-15.5-14.354-2.085-43.309 6.322-54.575 15.846-8.252 6.977-8.388 7.746-8.728 49.376-.17 20.825.015 38.789.41 39.918 1.712 4.88 21.322 17.182 35.366 22.188 10.613 3.783 28.19 3.393 41.115-.911m-352.15 40.074c-2.82-1.975-2.964-2.97-2.964-20.571 0-15.037.392-18.888 2.096-20.591 1.679-1.68 5.848-2.15 21-2.365 10.397-.148 22.544-.103 26.992.1 5.486.25 8.546-.2 9.512-1.398 1.671-2.073 2.287-25.91 1.964-76.004-.186-28.711-.595-35.936-2.123-37.464-1.424-1.425-8.093-2.127-27-2.842-13.809-.523-25.662-1.498-26.339-2.168s-1.317-8.844-1.422-18.164c-.167-14.869.112-17.25 2.277-19.414 2.33-2.33 5.325-2.447 53.198-2.09 48.443.363 50.814.497 52.62 2.968 1.58 2.162 1.892 14.93 1.892 77.524 0 67.102.22 75.02 2.109 75.745 1.16.445 12.875.81 26.033.81h23.924l1.39 3.657c1.608 4.23.252 38.304-1.672 42.01-1.133 2.182-6.355 2.333-80.868 2.333-69.937 0-80.018-.254-82.62-2.076m-220.718-1.997c-2.66-2.153-2.731-3.689-3.224-68.582-.277-36.508-.996-68.846-1.597-71.862-1.655-8.31-6.213-24.308-10.11-35.483-4.551-13.057-5.25-16.805-3.349-17.98 2.41-1.489 17.366-4.385 32.218-6.239 13.423-1.675 13.475-1.67 15.975 1.417 1.38 1.703 2.508 4.275 2.508 5.714s1.445 6.923 3.211 12.186c1.766 5.262 3.629 11.797 4.14 14.52 1.837 9.802 3.462 9.313 18.253-5.499 14.778-14.798 26.302-23.162 39.73-28.833 15.468-6.533 53.056-7.002 66.74-.832 3.26 1.47 7.922 3.41 10.363 4.313 8.623 3.19 8.92 5.28 3.663 25.788-2.566 10.012-5.439 19.778-6.383 21.702-2.26 4.603-5.823 6.806-8.197 5.07-.997-.73-3.311-2.39-5.142-3.69-1.832-1.298-9.266-3.896-16.52-5.772-10.278-2.657-15.253-3.265-22.525-2.75-12.386.875-25.993 6.111-36.666 14.109-10.057 7.535-14.857 13.185-24.028 28.286l-6.639 10.93-.049 14.78c-.091 27.654-1.346 78.764-2.04 83.097-.381 2.374-1.717 4.855-2.968 5.513-1.252.657-11.81 1.444-23.46 1.747-18.253.476-21.56.247-23.904-1.65m272.519-234.411c-.732-1.367-1.428-11.37-1.548-22.23-.196-17.691.033-19.928 2.204-21.515 1.797-1.314 8.478-1.771 25.87-1.771 31.303 0 29.376-1.542 29.376 23.496 0 10.786-.61 20.487-1.38 21.925-1.292 2.414-3.039 2.579-27.287 2.579-23.907 0-26.008-.192-27.235-2.484M824 1017.84c-4.767-.226-23.667-1.056-42-1.843s-39.633-2.013-47.333-2.724c-66.952-6.185-101.877-10.688-139.334-17.967-5.133-.998-12.033-2.212-15.333-2.698s-11.7-2.318-18.667-4.071c-18.025-4.536-27.157-6.67-39.333-9.196-10.954-2.271-24.762-5.415-44.667-10.17-18.956-4.528-38.422-11.592-57.229-20.767-28.178-13.747-37.668-20.915-42.27-31.93-2.224-5.322-2.615-54.247-.48-59.864 1.635-4.297 3.196-4.177 23.98 1.839 7.7 2.229 20 5.34 27.333 6.913s17.533 3.994 22.666 5.379c37.397 10.087 79.773 18.775 130 26.652 9.9 1.553 21.621 3.65 26.047 4.658 15.312 3.491 92.022 13.675 109.287 14.509 9.533.46 24.833 1.407 34 2.105 64.529 4.91 167.083 6.397 222 3.219 17.6-1.02 34.1-2.154 36.666-2.522 2.567-.369 17.844-1.619 33.95-2.779 16.105-1.16 29.662-2.343 30.126-2.63s10.987-1.744 23.384-3.237c30.123-3.629 50.976-6.466 53.668-7.302 1.213-.377 8.533-1.568 16.266-2.646s15.721-2.591 17.753-3.364 5.642-1.404 8.022-1.404 8.792-1.153 14.247-2.563c5.455-1.409 13.518-2.96 17.918-3.445 4.4-.486 11.3-1.707 15.333-2.713 7.459-1.861 21.175-4.693 38-7.847 5.133-.962 12.333-2.667 16-3.79 7.793-2.383 16.65-4.716 38.693-10.19 8.814-2.19 20.514-5.81 26-8.045 11.608-4.73 15.355-5.055 17.26-1.495 1.7 3.177 1.796 45.356.12 52.58-1.514 6.524-6.547 12.791-18.098 22.537-26.326 22.213-59.752 36.632-111.975 48.302-8.8 1.967-19.6 4.398-24 5.403s-12.927 2.43-18.949 3.17c-6.022.738-13.822 2.194-17.333 3.236-3.512 1.043-15.385 3.191-26.385 4.775-11 1.583-23.3 3.482-27.333 4.22-11.805 2.157-22.121 3.594-42 5.853-10.267 1.166-22.567 2.686-27.333 3.376-4.767.691-23.067 2.16-40.667 3.267s-42.2 2.711-54.667 3.568c-20.831 1.431-123.118 2.603-143.333 1.641m638.555-18.395c-.305-.306-14.263-.769-31.017-1.029-28.193-.438-30.6-.664-32.333-3.033-1.49-2.037-1.872-9.432-1.872-36.242 0-34.488.516-38.49 5.354-41.511 1.374-.858 10.18-2.849 19.572-4.425 29.714-4.986 40.523-12.22 50.682-33.914l3.726-7.958.282-106c.31-116.157.452-118.553 8.467-142.99 4.336-13.221 9.73-22.312 19.7-33.198 7.523-8.217 27.19-22.355 35.998-25.88 6.67-2.668 7.077-5.252 1.22-7.726-5.607-2.368-25.03-16.823-33.99-25.296-8.056-7.618-18.647-23.604-22.688-34.243-1.531-4.033-4.036-12.783-5.565-19.443-2.709-11.8-2.771-14.79-2.435-117.333L1478 254l-4.278-9.032c-5.456-11.519-15.505-21.527-27.627-27.514-8.613-4.255-10.261-4.588-25.64-5.18-10.343-.399-17.305-1.268-18.78-2.346-2.139-1.565-2.342-5.008-2.342-39.773 0-34.49.22-38.279 2.337-40.396 2.136-2.136 5.68-2.308 41.333-1.998 41.184.357 45.832.874 70.832 7.884 13.237 3.711 30.957 13.19 43.238 23.126 22.15 17.921 38.127 49.43 42.205 83.229 1.352 11.21 1.686 37.296 1.415 110.667-.339 91.625-.235 96.516 2.282 107.333 1.45 6.233 4.768 15.42 7.372 20.415 8.503 16.307 28.56 31.628 50.124 38.288 14.104 4.357 13.368 1.884 12.246 41.123-.534 18.672-1.252 34.683-1.597 35.58-.344.899-5.237 3.282-10.873 5.298-31.915 11.414-46.08 24.878-55.728 52.97l-3.318 9.66.242 106c.133 58.3-.21 109.9-.764 114.666-1.165 10.027-5.848 28.337-9.734 38.057-12.85 32.14-44.027 58.874-83.612 71.698-11.137 3.608-42.832 7.635-44.778 5.69M265.044 997.18c-12.667-1.784-34.544-7.616-41.696-11.115-10.588-5.18-27.799-18.438-40.43-31.146-12.64-12.714-19.797-24.527-26.005-42.919-8.306-24.607-8.023-20.165-8.835-138.667-.409-59.766-1.225-109.41-1.812-110.317-.588-.908-1.968-5.108-3.066-9.333-1.099-4.226-4.119-11.583-6.711-16.35-9.51-17.484-21.62-26.152-48.38-34.632-7.855-2.489-13.948-5.193-14.612-6.485-.626-1.219-1.477-16.752-1.89-34.518-.674-28.966-.52-32.586 1.488-35.057 1.232-1.516 7.246-4.803 13.365-7.306 13.75-5.623 29.727-15.457 37.126-22.852 6.432-6.43 11.398-15.59 16.163-29.816l3.35-10 .402-105.334c.267-69.903.905-108.248 1.896-114 3.589-20.825 15.37-48.38 27.927-65.319 11.9-16.052 30.714-27.888 60.01-37.75 20.94-7.049 31.386-8.09 72.025-7.174 27.238.614 35.506 1.202 36.934 2.63 1.45 1.45 1.962 9.908 2.416 39.876.528 34.84.382 38.204-1.733 40.043-1.623 1.411-6.878 2.255-17.7 2.84-25.09 1.36-36.853 6.583-46.06 20.453-10.067 15.168-9.677 10.291-10.293 128.63l-.551 105.771-3.509 15.156c-6.03 26.051-19.25 46.54-38.705 59.985-5.874 4.059-14.17 8.374-19.227 10-11.232 3.61-12.075 6.125-3.324 9.913 12.971 5.616 34.638 23.593 47.894 39.74 4.818 5.869 12.557 21.595 16.996 34.54 2.66 7.759 2.765 11.412 3.457 121.333l.714 113.333 3.931 9.334c7.005 16.631 21.937 28.423 39.597 31.27 4.66.75 10.568 1.972 13.13 2.714 2.561.742 9.245 1.349 14.852 1.349 8.047 0 10.857.536 13.342 2.547l3.148 2.547.392 36.574c.355 33.078.176 36.753-1.872 38.453-1.835 1.523-10.251 1.903-44.393 2.006-23.17.07-45.558-.356-49.75-.947m594.29-127.927c-28.6-.486-55.9-1.555-60.666-2.375-4.767-.82-16.767-1.523-26.667-1.563s-24.3-.653-32-1.364c-7.7-.71-24.8-2.207-38-3.326-13.2-1.118-24.9-2.302-26-2.63-1.1-.33-14.6-1.838-30-3.353s-37.6-4.186-49.333-5.937c-11.734-1.75-26.434-3.871-32.667-4.713s-17.033-2.633-24-3.98c-6.967-1.348-19.867-3.753-28.667-5.345s-20.8-3.993-26.666-5.335c-23.61-5.402-35.164-7.917-45.334-9.87-41.367-7.946-55.174-11.603-58.758-15.563-2.09-2.31-2.252-20.72-2.314-264.72l-.067-262.238 3.105-2.514c3.03-2.454 14.531-2.511 475.126-2.378 259.612.074 480.39.663 490.617 1.308 14.091.888 19.178 1.699 20.997 3.345 2.296 2.078 2.408 13.6 2.55 263.163.142 248.486.035 261.092-2.22 263.123-4.49 4.04-36.168 14.637-59.036 19.746a23438 23438 0 0 0-19.455 4.357c-4.467 1.003-8.768 2.223-9.558 2.711-.79.489-8.836 2.065-17.879 3.502-21.72 3.454-38.635 6.53-41.108 7.479-3.96 1.518-31.699 5.975-49.333 7.927-9.9 1.095-18.9 2.264-20 2.596s-10.1 1.25-20 2.041-28.2 2.867-40.667 4.614c-12.466 1.746-31.366 3.81-42 4.586-63.352 4.622-77.528 5.76-85.333 6.853-9.172 1.285-21.51 1.267-104.667-.147M695.768 467c2.339-1.999 2.79-4.188 3.148-15.266.258-8.004-.13-13.48-1.016-14.367-2.154-2.155-90.581-4.085-93.875-2.05-2.048 1.267-1.77 29.35.308 31.068 2.727 2.256 7.807 2.54 49.186 2.749 35.884.181 39.77-.015 42.249-2.134m-173.4-33.54c31.09-15.635 51.226-24.806 60.299-27.465 7.183-2.106 8.001-4.006 7.98-18.535-.012-7.403-.462-14.15-1-14.994-.54-.844-7.58-4.366-15.647-7.827a2330 2330 0 0 1-28-12.268c-24.874-11.145-33.955-14.787-45.656-18.31a2792 2792 0 0 1-15.772-4.788c-6.1-1.896-9.675-1.55-10.962 1.06-.632 1.284-1.08 8.22-.995 15.414.164 13.87.523 14.675 7.349 16.484 1.813.48 7.213 2.802 12 5.158 4.786 2.356 12.003 5.611 16.036 7.234a978 978 0 0 1 13.333 5.493c3.3 1.397 8.4 3.293 11.334 4.213 6.46 2.027 8.159 6.882 3.09 8.838-40.225 15.53-61.244 24.629-62.557 27.082-.806 1.506-.773 5.406.09 10.725.746 4.598 1.361 10.81 1.367 13.804s.46 5.902 1.01 6.46c2.815 2.861 14.522-1.596 46.701-17.778" style="fill:#44a096" transform="translate(-71.246 -126.808)"/><path d="M1236 1419.162c-18.158-2.634-35.214-8.604-43.846-15.345-4.753-3.712-7.57-3.054-12.34 2.882l-4.313 5.366-20.569-.366-20.569-.366.413-62.666c.227-34.467.306-94.978.177-134.469-.154-47.098.237-72.684 1.136-74.365 1.284-2.398 2.843-2.539 24.308-2.198l22.936.365.729 45.333c.4 24.934.85 45.484 1 45.667 1.294 1.59 7.496-.652 15.423-5.574 12.837-7.97 20.456-10.758 37.075-13.57 13.398-2.267 14.876-2.27 31.638-.075 9.67 1.267 20.708 3.508 24.526 4.98 29.051 11.2 46.885 27.301 56.014 50.572 7.009 17.868 7.911 22.573 8.57 44.667.766 25.662-1.532 37.73-10.901 57.25-5.064 10.552-7.468 13.785-16.726 22.494-18.455 17.361-35.96 25.493-63.672 29.577-15.508 2.285-14.115 2.292-31.01-.159m33.333-41.046c17.383-7.444 30.104-20.458 34.826-35.63 3.354-10.777 3.345-32.26-.02-48.567-5.98-28.97-19.621-41.875-48.616-45.987-24.513-3.476-57.036 7.655-67.188 22.997l-3.472 5.246-.334 38.726c-.184 21.299.072 39.787.568 41.084 1.64 4.287 20.339 17.334 30.055 20.972 13.06 4.89 17.69 5.665 31.515 5.27 11.795-.337 15.365-.984 22.666-4.11m-759.595 40.57c-10.461-1.488-31.24-7.013-39.071-10.388-8.376-3.608-26.58-17.614-34.69-26.69-13.048-14.597-18.63-27.94-21.418-51.198-1.496-12.476-1.428-16.113.545-29.123 3.762-24.81 11.298-39.716 28.959-57.28 12.359-12.29 23.398-18.908 39.937-23.94 19.945-6.07 31.14-7.92 53.333-8.819 27.973-1.133 47.039 1.835 74.806 11.642 10.327 3.647 13.19 5.73 13.206 9.607.018 4.199-6.822 33.251-8.253 35.057-.902 1.138-4.017.16-11.61-3.64-17.686-8.852-29.998-11.173-59.482-11.213-29.693-.04-35.904 1.445-53.011 12.676-11.007 7.225-16.752 13.554-21.35 23.517-2.67 5.783-2.972 8.547-2.972 27.106 0 19.903.137 20.946 3.708 28.218 7.079 14.415 18.79 22.929 40.292 29.292 9.408 2.784 13.262 3.146 32.666 3.069 18.867-.075 24.218-.595 37.568-3.65 16.607-3.8 21.231-5.42 26.279-9.21 3.793-2.846 8.575-3.091 10.686-.547 2.063 2.486 8.193 32.455 7.18 35.098-1.765 4.598-29.662 15.355-49.713 19.169-8.915 1.696-58.073 2.603-67.595 1.248m403.71-4.438c-1.539-1.539-2.084-32.373-.639-36.139.702-1.828 4.478-2.112 28.334-2.13 15.138-.01 28.184-.46 28.99-1 4.483-2.993 4.704-6.508 3.857-61.376-.973-62.998-.397-60.18-12.354-60.427-4.2-.087-15.736-.537-25.636-1l-18-.843-.374-16.264c-.333-14.508-.117-16.386 2-17.38 3.179-1.492 96.588-2.148 98.692-.693 1.262.873 1.848 19.002 2.491 77.073.74 66.794 1.093 76.132 2.937 77.598 1.5 1.192 8.844 1.666 25.795 1.666 22.804 0 23.756.107 25.216 2.836 1.748 3.265.427 33.607-1.634 37.519-1.165 2.212-5.965 2.344-79.733 2.181-54.48-.12-78.937-.616-79.942-1.62m-219.514-1.836c-1.831-1.833-4.186-104.884-2.652-116.042 1.176-8.547-1.542-23.115-9.463-50.724-3.422-11.928-5.963-21.947-5.646-22.263 1.143-1.143 39.757-7.695 41.438-7.031 1.396.55 6.826 16.575 12.984 38.315 1.594 5.627 7.277 5.21 12.399-.909 7.947-9.493 25.282-25.362 32.456-29.71 3.927-2.38 10.907-5.914 15.512-7.854 8.006-3.374 9.418-3.527 32.371-3.527h24l11.334 4.666c8.83 3.637 11.424 5.308 11.747 7.572.447 3.146-6.687 32.642-9.264 38.298-1.953 4.287-3.297 4.312-10.67.191-7.435-4.156-26.885-8.727-37.13-8.727-11.57 0-27.043 5.34-38.223 13.191-11.046 7.758-17.714 15.419-26.815 30.809L741.61 1310l-.877 48.667c-.483 26.766-1.185 49.715-1.561 50.997-.917 3.128-3.418 3.523-25.078 3.96-13.039.264-19.045-.097-20.16-1.212m272.584-234.594c-.702-.844-1.096-9.998-.889-20.666L966 1138l23.825-.365c16.443-.251 24.397.109 25.667 1.164 2.702 2.242 2.652 37.535-.056 39.783-2.555 2.12-47.099 1.425-48.918-.764zm-141.185-162.732c-40.612-1.329-80.225-3.26-90.884-4.43-6.847-.75-27.149-2.909-45.116-4.796-51.685-5.427-104.44-13.918-134.778-21.693-8.372-2.146-20.322-4.9-26.555-6.118-10.835-2.12-16.803-3.452-45.333-10.122-27.002-6.312-39.627-10.86-63.334-22.815-21.38-10.781-24.355-12.597-31.107-18.984-9.46-8.949-9.562-9.373-9.539-39.728.011-14.887.555-27.91 1.208-28.943.994-1.57 3.545-1.21 15.646 2.21 7.953 2.247 20.459 5.398 27.792 7.002s15.734 3.502 18.667 4.216c30.543 7.435 39.89 9.799 47.225 11.945 4.706 1.377 9.843 2.503 11.415 2.503s7.32 1.135 12.776 2.523c5.454 1.387 13.217 2.895 17.25 3.351 4.034.456 10.934 1.696 15.334 2.756 8.073 1.944 26.814 5.15 44 7.524 5.133.71 13.233 2.13 18 3.158 9.876 2.128 40.731 6.848 52.667 8.057 4.4.445 10.318 1.411 13.15 2.146 4.832 1.253 27.736 3.108 79.516 6.44 12.1.778 30.7 2.073 41.334 2.877 10.633.804 47.833 1.746 82.666 2.095 69.652.696 76.387.383 177.334-8.236 11.366-.97 27.866-2.724 36.666-3.897l32-4.263c18.81-2.504 53.166-7.805 62.667-9.67 3.667-.719 14.467-2.82 24-4.669 44.004-8.532 54.342-10.6 68.632-13.724 8.414-1.84 15.748-3.624 16.297-3.963.55-.34 8.366-2.4 17.369-4.577 23.342-5.646 34.822-8.946 47.314-13.6 15.453-5.757 15.058-6.357 15.042 22.836-.012 21.994-.219 23.944-3.212 30.374-7.648 16.426-43.275 38.903-82.775 52.225-20.034 6.756-72.75 19.234-88.667 20.988-4.033.444-10.333 1.619-14 2.61s-11.75 2.487-17.962 3.325c-6.213.837-11.676 1.757-12.14 2.044s-8.17 1.428-17.123 2.537-16.75 2.306-17.325 2.66c-.574.356-9.686 1.578-20.247 2.717s-25.503 2.953-33.203 4.03c-19.657 2.75-56.912 5.435-120 8.65-24.166 1.231-91.015 1.465-122.667.43m607.616-19.037c-25.01-.589-30.607-1.07-31.646-2.716-.706-1.118-1.271-16.77-1.283-35.519-.025-40.42-.685-38.669 15.332-40.635 15.144-1.858 25.882-4.535 34.432-8.583 14.153-6.702 26.09-23.781 28.896-41.347.94-5.886 1.423-43.494 1.391-108.463-.032-65.365.453-102.88 1.413-109.453 1.724-11.801 7.002-30.08 11.273-39.036 8.157-17.106 32.018-38.176 51.459-45.439 9.177-3.428 9.86-8.712 1.403-10.834-4.71-1.182-27.622-17.574-35.893-25.68-10.35-10.141-19.153-24.554-23.42-38.344-6.728-21.746-6.628-19.449-5.385-124.667 1.258-106.418 1.115-109.438-5.832-123.149-7.023-13.858-22.222-26.114-38.31-30.892-3.65-1.084-11.998-1.968-18.688-1.98-6.65-.01-12.991-.588-14.091-1.282-2.887-1.823-3.751-71.375-.935-75.224 1.748-2.388 3.928-2.513 39.725-2.279 20.832.137 41.477.867 45.877 1.624 24.809 4.265 43.213 11.638 61.333 24.571 25.803 18.416 41.167 46.527 46.67 85.39 1.719 12.14 2.04 30.814 1.933 112.555-.13 99.987.038 103.872 5.076 117.333 8.192 21.893 28.832 40.364 53.748 48.101 5.448 1.692 10.74 3.816 11.757 4.72 1.548 1.373 1.657 7.277.667 36.002l-1.184 34.359-10 3.525c-30.889 10.888-46.995 26.087-56.278 53.107l-3.957 11.52.81 96.666c.506 60.146.31 102.756-.518 112.785-3.35 40.603-14.88 67.24-38.226 88.31-13.219 11.93-34.367 23.78-53.165 29.79-6.53 2.087-34.29 6.42-39.333 6.14-2.567-.143-18.34-.582-35.05-.976M256 992.74c-26.467-5.656-34.56-9.092-51.521-21.873-17.162-12.932-31.376-28.713-37.582-41.725-9.347-19.598-12.509-31.017-16.376-59.141-.748-5.442-1.165-49.915-1-106.667l.283-97.333-3.033-10c-7.053-23.252-19.136-38.894-36.493-47.243-5.392-2.593-15.051-6.446-21.466-8.561s-12.149-4.376-12.742-5.022-1.396-15.725-1.783-33.51l-.703-32.334 3.388-2.665c1.863-1.466 3.982-2.665 4.708-2.665 2.836 0 18.154-7.495 27.83-13.617 13.13-8.307 21.521-17.383 27.193-29.41 8.873-18.815 8.609-15.177 9.326-128.306.401-63.17 1.214-106.77 2.112-113.334 4.14-30.254 22.173-65.201 41.767-80.94 13.88-11.148 42.255-23.238 62.759-26.739 12.634-2.157 85.702-2.286 87.471-.154 1.88 2.265 2.811 73.886.99 76.081-.911 1.098-4.508 1.754-9.625 1.757-11.828.006-30.935 3.662-38.093 7.29-8.273 4.192-16.096 12.953-21.573 24.157L267.333 250l-.666 110c-.367 60.5-1.143 110.735-1.725 111.633s-1.933 6.21-3.004 11.805c-5.75 30.054-32.256 61.06-57.478 67.24-3.048.746-6.948 2.511-8.667 3.923-4.224 3.466-2.257 6.534 6.445 10.052 10.87 4.393 21.635 12.377 35.855 26.592 11.657 11.652 14.24 15.092 19.595 26.088 12.091 24.832 11.586 18.923 11.62 135.793.019 63.374.561 106.704 1.417 113.128 2.654 19.928 12.829 34.778 29.375 42.874 10.375 5.076 18.482 6.794 38.478 8.15 13.16.894 15.555 1.419 17.514 3.838 1.997 2.466 2.283 6.852 2.375 36.458.091 29.244-.178 33.967-2.054 36.04-1.993 2.202-5.405 2.376-44.286 2.251-38.296-.123-43.4-.407-56.127-3.127m602-126.08c-27.133-.523-52.033-1.361-55.333-1.863-3.3-.5-19.5-1.467-36-2.147s-35.7-1.836-42.667-2.569a2445 2445 0 0 0-27.333-2.675c-38.254-3.499-95.089-10.096-104-12.071-2.934-.65-11.034-1.807-18-2.57-18.494-2.027-67.492-11.027-104.667-19.227-11.733-2.588-32.133-6.871-45.333-9.518-28.479-5.71-37.75-8.314-41.305-11.6-2.609-2.409-2.644-5.365-3.08-262.348-.438-257.091-.414-259.94 2.184-262.537 2.6-2.601 6.64-2.626 431.746-2.654 452.122-.029 547.923.575 551.416 3.476 1.809 1.503 2.054 30.419 2.217 261.492.166 235.477-.014 259.966-1.927 261.554-5.427 4.503-37.784 14.657-67.918 21.312-7.333 1.62-17.533 4.037-22.667 5.373-5.133 1.335-12.933 2.793-17.333 3.24-4.4.446-11.9 1.64-16.667 2.652-4.766 1.012-14.366 3.049-21.333 4.525-21.484 4.553-72.884 11.39-106.667 14.188-5.5.456-15.269 1.708-21.709 2.783-10.772 1.799-25.698 3.166-78.29 7.174-10.634.81-26.534 2.13-35.334 2.933-20.906 1.908-59.097 2.251-120 1.077m-369.42-112.55 5.247-2.18-2.977-2.084c-2.315-1.621-2.64-2.491-1.463-3.91 1.199-1.444.825-1.998-1.791-2.655-3.995-1.003-4.947-4.725-4.887-19.113.028-6.819.687-11.02 2-12.755 2.853-3.772 2.7-21.527-.21-24.437-1.742-1.742-2.012-3.851-1.37-10.725.44-4.707 1.45-9.341 2.245-10.3 1.048-1.262.983-2.481-.233-4.43-1.354-2.167-1.347-3.31.036-5.894 1.105-2.065 1.556-6.838 1.269-13.419-.245-5.617-.012-10.212.518-10.21s1.13 8.853 1.334 19.67c.36 19.252.432 19.675 3.369 20.092 1.928.274 3 1.346 3 3 0 1.857.929 2.574 3.333 2.574 2.96 0 3.336-.56 3.354-5 .01-2.75.46-4.34 1-3.532.538.808 2.63 1.774 4.646 2.149 2.93.544 3.667.182 3.667-1.802 0-1.868-.989-2.481-4-2.481-3.405 0-4-.51-4-3.418 0-3.053.462-3.373 4.333-3l4.333.418v11.001c0 6.05.45 11 1 11s2.2-1.201 3.667-2.668c2.144-2.144 2.667-4.444 2.667-11.733 0-9.516 1.261-12.157 5.933-12.422 2.249-.127 2.32-.262.4-.764-3.515-.919-3.146-7.89.468-8.836 2.704-.707 2.768-1.23 1.849-15.155-.588-8.907-1.636-15.202-2.74-16.46-1.087-1.239-1.942-6.205-2.182-12.667-.284-7.63-.865-10.536-2.062-10.296-1.222.244-1.666-2.511-1.666-10.334s.444-10.577 1.666-10.333c1.161.232 1.788-2.228 2.067-8.107.358-7.564.115-8.516-2.334-9.156-1.503-.393-2.733-1.647-2.733-2.788 0-2.94 3.965-6.949 6.874-6.949 1.735 0 2.46-.982 2.46-3.333 0-2.815-.623-3.334-4-3.334-3.778 0-4-.296-4-5.333 0-4.8-.334-5.333-3.334-5.333-2.698 0-3.333.658-3.333 3.458 0 2.337-.865 3.684-2.667 4.155-3.09.809-3.634 4.387-.666 4.387 1.244 0 2 1.259 2 3.333 0 1.833-.6 3.333-1.334 3.333-.74 0-1.333 3.545-1.333 7.967v7.967l-3.42-1.3c-2.245-.853-4.279-.842-5.913.033-3.588 1.92-4 1.714-4-2 0-2.055-.758-3.333-1.975-3.333-1.562 0-1.809-1.209-1.18-5.792l.793-5.791-4.02.59c-4.693.689-4.97.097-6.3-13.486-.678-6.932-1.269-8.77-2.44-7.6-1.143 1.144-1.617 31.623-1.822 117.146-.152 63.58-.011 116.375.314 117.323.412 1.205 1.299 1.35 2.943.479 1.294-.686 4.714-2.227 7.6-3.426m2.926-123.58c-1.083-5.414-.405-6.26 4.81-6.007 3.737.182 4.413.751 4.79 4.034.476 4.13-1.404 6.058-5.94 6.09-2.108.015-3.044-1.037-3.66-4.116m19.47-75.862c0-2.567.274-3.617.61-2.334.335 1.284.335 3.384 0 4.667-.336 1.283-.61.233-.61-2.333M687.279 753c-1.753-13.209-2.015-14.04-4.65-14.73-2.025-.529-2.835.136-3.476 2.853-.46 1.95-1.875 4.744-3.144 6.21s-2.623 3.973-3.008 5.57c-.587 2.434.083 3.112 4.15 4.196 2.667.71 6.206 1.354 7.865 1.43 2.79.127 2.96-.284 2.263-5.529m147.104-194.13L834 359.074l-12 .585c-10.484.51-47.098-1.249-52.667-2.532-1.582-.364-2.082 1.273-2.396 7.843-.23 4.83.293 9.571 1.252 11.334l1.648 3.03.948-3.334c.806-2.83.993-2.93 1.24-.667.211 1.94.568 1.577 1.308-1.333l1.018-4 .178 4c.307 6.88 2.226 8.32 4.704 3.528 2.45-4.737 4.767-5.5 4.767-1.57 0 1.563.68 2.364 1.68 1.98.923-.354 4.523-.113 8 .537l6.32 1.18v-5.157c0-4.56.502-5.366 4.333-6.96 3.637-1.512 4.756-1.513 6.964-.003 1.446.989 3.996 1.798 5.666 1.798s4.133 1.096 5.472 2.435c1.34 1.34 3.483 2.837 4.763 3.329 2.132.818 2.274 2.98 1.688 25.708-.364 14.083-1.225 25.4-1.992 26.168-.744.743-1.034 2.18-.646 3.192 1.08 2.816-.745 8.501-2.73 8.501-.969 0-2.482 2.4-3.36 5.334-1.537 5.13-4.717 6.996-7.38 4.333-.55-.55-3.5-1-6.556-1-4.94 0-5.595-.369-5.915-3.333-.976-9.05-1.886-12-3.7-12-1.461 0-1.94 1.8-1.94 7.286 0 5.84-.513 7.56-2.58 8.667-5.924 3.17-6.754 2.054-6.754-9.08 0-8.777-.43-10.85-2.675-12.88-1.47-1.332-3.065-2.03-3.544-1.552-.478.478-1.674.2-2.658-.616-1.25-1.037-1.79-5.033-1.79-13.243 0-11.753 1.29-15.39 3.878-10.944 1.077 1.85 1.38.917 1.395-4.305.025-8.27-1.39-11.072-4-7.925-1.27 1.53-1.971 7.34-2.3 19.063-.36 12.823-1.092 18.359-3.056 23.11-2.295 5.55-2.583 9.611-2.583 36.411 0 19.77.46 29.881 1.333 29.341.734-.453 1.403.562 1.488 2.255.138 2.75.229 2.794.847.412.674-2.598.715-2.6 1.612-.098.764 2.134 1.443 1.49 3.999-3.79 1.996-4.124 3.433-5.785 4.087-4.726 1.296 2.098 3.016-2.978 3.18-9.386l.12-4.667 8 .36 8 .359v-5.693c0-5.69.004-5.692 5.002-5.692 4.612 0 5-.297 5-3.81-.001-2.838.508-3.614 1.999-3.042 1.256.482 2-.013 2-1.333q0-2.1-2.189-1.26c-1.83.701-1.912.506-.503-1.192 3.612-4.352 9.382-.592 9.161 5.97q-.113 3.33-.722 1c-.835-3.194-3.08-2.951-3.08.333 0 1.467.852 2.667 1.893 2.667 1.042 0 2.306 1.873 2.809 4.162.523 2.384 1.949 4.432 3.337 4.795 1.984.52 2.564 2.485 3.197 10.838.426 5.613 1.376 14.705 2.11 20.205 1.643 12.282 1.64 44.076-.004 51.333-3.734 16.485-4.394 18.1-7.242 17.71-2.201-.3-3.015.64-4 4.624-.68 2.75-1.771 5-2.423 5-2.783 0-6.344-2.95-6.344-5.256 0-3.397-4.838-2.116-5.793 1.535-.578 2.21-1.554 2.6-5.393 2.151-4.624-.54-4.693-.474-5.084 4.82-.334 4.52-.988 5.573-4.142 6.676-4.742 1.659-6.188-.32-6.282-8.593-.066-5.878-.106-5.932-1.973-2.667-1.863 3.259-1.907 3.198-1.953-2.745-.026-3.343-.836-7.157-1.8-8.476-1.644-2.248-1.903-2.169-4.158 1.273-1.66 2.532-2.732 7.825-3.458 17.069-1.14 14.499-.007 46.974 1.403 40.213 1.539-7.385 3.028 18.859 2.303 40.606-.514 15.416-1.29 22.203-3.03 26.488-1.942 4.783-2.081 6.621-.823 10.822 1.837 6.13 1.972 15.407.27 18.587-.685 1.28-1.67 9.04-2.19 17.245l-.943 14.918 15.856-.005c13.525-.004 16.502-.398 20.248-2.682 3.323-2.026 5.006-2.349 6.919-1.325 1.728.925 2.8.91 3.391-.044.475-.769 3.811-1.22 7.414-1.004 5.067.304 6.55.897 6.55 2.616.001 2.203 1.743 3.47 5.05 3.672 1.395.086 1.645-37.416 1.334-199.691zm-9.494 190.908c-.489-.49-.889-2.663-.889-4.83 0-3.352.299-3.693 2-2.281 1.1.913 2 3.086 2 4.83 0 3.094-1.326 4.066-3.111 2.28m-23.556-4.445c0-4.608 3.323-5.567 4.663-1.345 1.008 3.175-.105 5.345-2.741 5.345-1.246 0-1.922-1.406-1.922-4m9.667 3.022c-3.368-1.166-1.717-4.355 2.255-4.355 5.115 0 6.549-2.36 1.768-2.91l-3.69-.423 3-2.63c1.65-1.446 3-3.696 3-5 0-1.763 1.062-2.37 4.143-2.37 3.433 0 3.973.4 3.154 2.333-.543 1.283-1.413 4.89-1.933 8.013s-1.327 6.061-1.794 6.528c-1.052 1.052-7.65 1.594-9.903.814m-9.667-25.688v-8h4c3.378 0 4 .518 4 3.333s.623 3.333 4 3.333c3.922 0 4-.133 4-6.797v-6.798l-8 .929c-7.963.924-8 .912-8-2.536 0-2.806-.633-3.464-3.333-3.464-2.2 0-3.333.743-3.333 2.186 0 2.569-3.734 5.71-6.858 5.771-2.992.058-4.06-3.368-3.083-9.886.672-4.486.322-5.916-1.953-7.975-2.658-2.405-2.773-3.805-2.773-33.703 0-26.42.338-31.845 2.207-35.46 1.214-2.346 2.43-6.932 2.7-10.19.605-7.247.892-7.562 5.452-5.965 2.237.784 3.805 2.422 4.067 4.249.385 2.689 1.174 2.973 8.249 2.973h7.823l.417-4.334c.352-3.644 1.018-4.402 4.193-4.765l3.775-.433-.93 7.45c-.795 6.36-.634 7.337 1.098 6.672 1.455-.558 2.283.379 2.928 3.314.494 2.25 2.2 5.004 3.792 6.119 2.688 1.882 2.887 3.093 2.802 17.002-.05 8.236-.812 17.975-1.692 21.641-.88 3.667-2.12 10.867-2.758 16-.637 5.134-1.788 10.834-2.556 12.667-1.286 3.066-1.405 2.879-1.483-2.333-.104-7.004-2.24-7.467-3.069-.667-.405 3.321-.006 5.358 1.188 6.066.988.587 1.797 2.747 1.797 4.801 0 4.735 2.456 12.12 5.017 15.083 3.768 4.362 1.114 6.577-7.338 6.126-7.094-.378-7.712-.18-8.105 2.59-.331 2.332-1.297 3-4.333 3-3.887 0-3.908-.042-3.908-8m8.81-26.11c-.446-1.16-.81-7.16-.81-13.333 0-9.088-.38-11.224-2-11.224-1.1 0-2-.834-2-1.854 0-1.126-1.831-2.068-4.666-2.4-3.806-.443-4.667-.101-4.667 1.855 0 1.32.9 2.399 2 2.399 1.397 0 2 1.407 2 4.667 0 2.904-.645 4.666-1.708 4.666-2.079 0-5.084 7.456-4.07 10.098.401 1.046 2.117 1.902 3.812 1.902 4.467 0 7.3 1.349 7.3 3.476 0 1.022 1.263 1.858 2.809 1.858 2.014 0 2.58-.597 2-2.11m-8.81-70.713c0-1.014-1.2-1.844-2.666-1.844-1.734 0-2.667.889-2.667 2.542 0 1.885.689 2.362 2.667 1.844 1.466-.383 2.666-1.527 2.666-2.542m-19.786 98.76c-2.171-4.766-1.938-10.836.453-11.753 1.64-.63 2 .665 2 7.19 0 4.378-.204 7.959-.453 7.959s-1.149-1.528-2-3.396m41.12-277.937c0-5.037.489-6.667 2-6.667 2.155 0 2.483 2.582 1.166 9.167-1.284 6.421-3.166 4.935-3.166-2.5m-32.46-75.39c.872-2.276 3.331-1.996 4.154.473.293.88-.689 1.583-2.208 1.583-1.918 0-2.5-.615-1.947-2.056M1075 755.742c4.149-1.583 4.462-3.257 1.801-9.626-1.513-3.62-2.458-4.352-5-3.872-5.206.984-7.669-7.03-8.584-27.931-.72-16.452-1.132-19.61-2.374-18.202-.27.306-.909 14.548-1.42 31.65l-.931 31.095 6.42-.858c3.532-.472 8.071-1.487 10.088-2.256m188.691.872c1.588-.516 1.274-7.306-.467-10.125-.364-.588-.236-4.238.282-8.112l.943-7.044 1.715 4c2.186 5.098 2.299 11.67.236 13.734-1.14 1.14-1.166 1.6-.088 1.6.885 0 1.261 1.382.907 3.333-.385 2.123.01 3.333 1.089 3.333 2.332 0 2.41-5.905 2.862-216.846l.388-181.514-30.112-.796c-16.562-.438-31.912-.957-34.112-1.153l-4-.357.173 196.27c.095 107.95.55 198.28 1.01 200.733l.837 4.462 28.323-.485c15.578-.266 29.084-.731 30.015-1.033zm-626.787-.449c.864-.09 2.31-3.465 3.213-7.498 1.63-7.285 4.305-9.595 5.791-5 .867 2.68 6.596 5.666 10.869 5.666 3.178 0 4.507-3.026 4.538-10.333.016-3.738-.44-4.333-3.315-4.333-1.96 0-3.333-.765-3.333-1.858 0-1.021-.9-2.202-2-2.625-1.176-.45-2-2.45-2-4.85s.824-4.4 2-4.852c1.35-.518 2-2.636 2-6.516 0-7.02 1.027-9.966 3.476-9.966 1.399 0 1.857-2.16 1.857-8.754 0-4.815.649-9.967 1.441-11.448.793-1.481 1.01-3.092.484-3.579s-1.225-.136-1.552.781-1.445 1.667-2.484 1.667c-1.32 0-1.889 1.634-1.889 5.43 0 4.453-.42 5.352-2.333 4.99-3.148-.596-4.044-8.77-1.086-9.905 1.53-.588 2.086-2.691 2.086-7.905 0-8.445 1.827-13.944 4.633-13.944 3.015 0 2.471-4.907-.633-5.72-1.467-.383-2.667-1.718-2.667-2.966 0-1.755.756-2.08 3.333-1.433 3.178.798 3.334.563 3.334-5.044 0-5.29.364-5.972 3.633-6.793 2.194-.55 3.822-.344 4.11.522.604 1.81 5.59 1.9 5.59.101 0-.733-.9-1.333-2-1.333-3.22 0-2.622-7.527.667-8.387 1.99-.52 2.671-1.828 2.687-5.155.015-3.37.336-3.97 1.313-2.458.71 1.1 1.397 8 1.525 15.333l.234 13.333.983-14c.54-7.7 1.968-18.8 3.173-24.666 1.685-8.206 2.48-24.047 3.445-68.655.701-32.425.75-59.812.112-62.126-1.461-5.29.108-8.063 5.943-10.501 5.78-2.415 6.693-4.938 7.622-21.063.57-9.875.321-13.44-1.029-14.79-2.042-2.041-21.974-3.062-67.754-3.47-20.938-.186-29.616.188-31 1.336-1.462 1.215-1.921 5.144-1.921 16.469 0 17.08 1.456 20.8 8.142 20.8 2.195 0 5.694.88 7.775 1.957l3.785 1.957.795 28.376c.774 27.625 2.22 179.293 2.187 229.312l-.017 24.936 6.333-.437c3.483-.241 7.04-.512 7.904-.603m8.69-24.832c.026-2.2.325-2.938.663-1.641s.316 3.097-.05 4c-.364.903-.64-.159-.614-2.359m480.96 13.3c-.139-6.252-.862-11.745-1.609-12.206-.776-.48-.95-.18-.406.7.524.847.395 1.54-.286 1.54-1.42 0-1.986 12.193-.821 17.666 1.632 7.674 3.366 3.398 3.121-7.7M492 693.375c0-5.34-.388-6.476-2-5.857-1.1.422-2 1.875-2 3.229 0 2.386 2.633 9.253 3.547 9.253.25 0 .453-2.981.453-6.625m188-.708c0-4.223.79-6.79 2.667-8.667 3.429-3.429 3.943-19.225.666-20.482-1.1-.422-2.042-.636-2.095-.476-.168.518-2.664 21.41-3.419 28.625-.483 4.62-.237 7 .724 7 .838 0 1.457-2.55 1.457-6m239.875-48.225c.069-5.99.53-11.946 1.025-13.235.835-2.176.972-2.16 1.906.224.662 1.688 1.039.153 1.1-4.478.057-4.262-.722-8.292-1.972-10.2-1.684-2.57-2.164-9.264-2.6-36.286-.636-39.377-2.015-62.635-3.428-57.8-1.278 4.376-1.524 141.093-.273 152.137l.966 8.53 1.575-14c.866-7.7 1.632-18.902 1.7-24.892M676 663.922c0-10.48-.429-14.481-1.482-13.83-.816.504-2.007.09-2.647-.921-.703-1.111-1.172 4.054-1.184 13.065-.018 13.081.265 14.976 2.313 15.512 1.283.335 2.483.679 2.667.764s.333-6.48.333-14.59M662.582 669c-.079-4.053-.165-4.131-1.336-1.21-.688 1.718-.915 3.668-.503 4.333 1.365 2.209 1.925 1.259 1.84-3.123m-122.996-10c-.336-1.283-.61-.233-.61 2.333s.274 3.617.61 2.334c.335-1.284.335-3.384 0-4.667m.216-30.667L539.605 606l-1.12 14c-1.013 12.67-.453 30.667.954 30.667.309 0 .472-10.05.363-22.334m398.865 18.858c0-1.022 1.2-1.858 2.666-1.858 2.35 0 2.667-.889 2.667-7.458 0-6.207.425-7.57 2.534-8.12 4.733-1.238 4.773-15.594.048-16.83-1.95-.51-2.521-2.205-2.845-8.448-.304-5.874-.9-7.81-2.404-7.81-1.348 0-2.134 1.627-2.413 4.994-.422 5.094-.86 5.42-8.91 6.637-3.185.481-4.297 4.74-4.519 17.306-.199 11.25 1.543 15.544 5.962 14.7 2.972-.569 3.214-.205 3.214 4.832 0 4.294.423 5.285 2 4.68 1.1-.423 2-1.604 2-2.625m11.867-10.858c.073-1.65-.467-3-1.2-3-.734 0-1.274 2.85-1.201 6.334.108 5.162.33 5.717 1.2 3 .587-1.834 1.128-4.684 1.2-6.334m-412.282-54.666c-.335-1.284-.61-.234-.61 2.333s.275 3.617.61 2.333c.336-1.283.336-3.383 0-4.666m522.691-9.985c-.319-1.658-.592-.615-.607 2.318s.246 4.29.58 3.016.346-3.675.027-5.334m-.019-15.323c-.338-1.298-.637-.559-.664 1.641s.25 3.261.615 2.359.387-2.703.049-4zm-558.257-9.692c0-2.2-.6-4-1.334-4-1.483 0-1.84 5.715-.444 7.11 1.506 1.507 1.778 1.032 1.778-3.11m558.306-10.304c-.288-2.766-.53-.83-.535 4.304-.01 5.133.23 7.396.524 5.03.295-2.368.3-6.568.011-9.334zM918.687 432c.18-24.567.936-47.367 1.68-50.667 1.439-6.39 3.308-9.691 4.922-8.693.543.335 1.668-.884 2.5-2.709 1.669-3.663 6.34-5.931 12.22-5.931 2.108 0 4.175-.552 4.591-1.226.805-1.302-12.395-3.074-24.6-3.303-6.614-.124-7.294.124-6.937 2.529.218 1.467.929 29.367 1.58 62 .65 32.633 1.314 63.833 1.475 69.333l.292 10 .974-13.333c.536-7.333 1.122-33.433 1.303-58m144.366-2.888c.154-33.489.65-61.258 1.1-61.709.45-.45 2.104-1.067 3.673-1.37 2.432-.468 2.656-.18 1.514 1.955-1.804 3.37-1.7 4.391.754 7.424 1.974 2.44 2.055 2.303 1.417-2.41-.935-6.909 1.097-7.657 19.305-7.11 16.295.49 26.321 2.68 27.573 6.027.429 1.145 1.495 2.681 2.37 3.414.876.735 1.974 6.687 2.443 13.25.799 11.174 1.388 13.975 2.66 12.64.291-.306.741-10.156 1-21.89l.471-21.333-8 .667c-11.442.953-42.585.77-52-.306l-8-.915.08 63.61c.043 34.986.262 67.21.486 71.61l.407 8 1.233-5.333c.678-2.933 1.36-32.733 1.514-66.221zM522 485.496c4.842-.148 6.12-.557 4.667-1.496-3.16-2.042-48-1.725-48 .34 0 1.569 15.869 1.992 43.333 1.156m18-2.43c0-2.476-.43-3.17-1.377-2.222-.757.757-.993 2.377-.524 3.6 1.235 3.218 1.901 2.736 1.901-1.377m-17.333-47.13c18.7-9.363 40.3-19.49 48-22.507 22.646-8.872 20.493-6.51 21.776-23.889.891-12.085.742-15.587-.762-17.851-3.016-4.542-77.13-36.468-99.407-42.821-14.155-4.037-16.164-4.218-19.532-1.755-2.075 1.518-2.46 3.908-2.613 16.232-.14 11.223.273 14.967 1.846 16.753 1.114 1.264 11.325 6.297 22.692 11.184 11.366 4.887 23.066 9.977 26 11.311 2.933 1.335 7.023 2.819 9.088 3.298 6.647 1.542 3.755 4.87-8.422 9.696-6.233 2.47-17.633 7.213-25.333 10.54a4409 4409 0 0 1-19.133 8.223c-2.823 1.196-5.623 3.465-6.222 5.041s-.435 9.617.365 17.867c1.286 13.251 1.779 15.12 4.223 16.029 6.062 2.253 14.28-.754 47.434-17.352m276-38.603c0-1.466-.6-2.666-1.334-2.666-.733 0-1.333 1.2-1.333 2.666 0 1.467.6 2.667 1.333 2.667.734 0 1.334-1.2 1.334-2.667" style="fill:#3d9d92" transform="translate(-71.246 -126.808)"/><path d="M509.963 1417.378c-29.68-4.252-50.778-14.033-68.08-31.562-16.626-16.843-23.204-30.653-25.876-54.323-2.55-22.594.989-44.06 10.358-62.826 4.134-8.281 6.339-11.16 16.711-21.819 16.71-17.171 31.083-24.233 64.166-31.525 7.813-1.722 17.217-2.374 36-2.494 30.677-.196 37.657 1.08 70.091 12.807 8.395 3.035 8.68 3.29 9.083 8.122.23 2.744-.477 8.121-1.57 11.949s-2.399 9.817-2.903 13.31c-.505 3.492-1.411 6.654-2.015 7.027s-4.513-1.169-8.687-3.427c-22.495-12.17-70.885-16.466-95.032-8.436-17.976 5.977-34.867 19.475-41 32.764-3.747 8.116-3.873 9.06-3.874 29.055-.002 19.612.18 21.054 3.559 28.262 7.961 16.985 25.214 27.804 52.876 33.16 11.901 2.303 41.524.912 57.563-2.704 19.819-4.468 21.959-5.157 27.3-8.781 9.082-6.163 11.318-3.475 14.862 17.868 1.953 11.755 2.007 13.906.388 15.37-3.965 3.583-23.822 11.36-37.662 14.75-12.594 3.085-17.895 3.607-41.334 4.071-14.788.293-30.504.015-34.924-.618m722.027.079c-12.04-1.7-29.14-8.032-38.086-14.103-7.005-4.754-10.237-4.334-15.237 1.98l-4.224 5.332h-37.776l.09-134.333c.049-73.883.199-135.098.333-136.032.189-1.316 5.28-1.617 22.577-1.333l22.333.365.667 44.667c.367 24.567 1.152 45.417 1.746 46.333 1.816 2.807 5.253 1.888 13.245-3.542 20.807-14.133 44.79-18.752 76.638-14.759 27.091 3.397 54.546 19.796 67.503 40.322 17.117 27.112 20.558 73.762 7.842 106.313-10.339 26.466-35.383 48.055-64.974 56.008-11.764 3.161-39.583 4.63-52.677 2.782zm39.343-38.779c13.277-5.586 26.68-18.108 32.356-30.23 3.516-7.507 3.643-8.557 3.601-29.782-.037-19.051-.448-23.3-3.068-31.706-7.809-25.052-22.068-37.062-47.891-40.336-26.19-3.32-53.441 5.443-67.858 21.822l-5.446 6.186-.09 40.945-.092 40.944 4.433 4.181c10.208 9.627 28.26 19.243 41.304 22 2.98.63 11.417.993 18.75.805 11.699-.299 14.641-.89 24-4.829zm-356.713 34.626c-.856-.528-1.23-7.315-.995-18.075l.375-17.23 28.257-.359 28.257-.36 2.92-3.64 2.92-3.64-.824-56.61c-.76-52.235-1.01-56.796-3.24-59.026-2.084-2.084-5.883-2.55-27.686-3.39l-25.27-.974v-30.667l4.666-.287c17.878-1.1 91.646-1.685 92.988-.737 1.272.897 1.792 18.434 2.246 75.763.325 41.027.63 75.002.678 75.5.048.497 1.03 1.847 2.183 3 1.749 1.748 6.04 2.095 25.921 2.095 15.523 0 24.135.498 24.71 1.43 1.353 2.19.672 33.29-.789 36.02-1.218 2.277-5.357 2.394-78.617 2.219-42.532-.102-77.947-.566-78.7-1.031zm-220.013-2.041c-.64-.772-1.227-28.972-1.304-62.667-.156-68.132-.467-71.35-10.006-103.565-2.547-8.6-4.63-16.782-4.63-18.183 0-2.1 1.575-2.82 9-4.109 4.95-.859 13.46-2.492 18.911-3.63 9.36-1.952 10.01-1.933 11.667.334.965 1.32 1.755 3.26 1.755 4.313s1.737 7.387 3.86 14.078c2.124 6.691 4.393 14.266 5.043 16.832 1.036 4.091 1.752 4.714 5.806 5.05 4.281.354 5.426-.488 15.419-11.346 25.392-27.59 43.52-35.75 77.205-34.753 14.748.436 18.925 1.071 28 4.257 5.867 2.06 11.464 4.499 12.439 5.42 1.467 1.39 1.039 4.625-2.5 18.859-5.98 24.049-6.215 24.347-15.102 19.104-6.768-3.993-25.396-8.16-36.184-8.092-17.73.11-36.555 8.36-50.193 21.999-7.197 7.197-9.755 10.628-18.512 24.836l-4.52 7.333-1.38 50.936c-.822 30.305-1.921 51.457-2.714 52.223-1.901 1.835-40.59 2.544-42.06.77M986 1177.39l-18.667-.725v-37.333l22.49-.366c15.456-.252 23.068.112 24.334 1.163 1.399 1.161 1.843 5.792 1.843 19.224 0 19.223-.165 19.627-7.776 19.037-1.957-.152-11.957-.602-22.224-1zm-192.667-164.098c-17.966-.6-38.366-1.706-45.333-2.46-6.967-.752-17.167-1.73-22.667-2.172-24.432-1.965-104.629-11.74-108.906-13.274-.865-.31-7.465-1.524-14.666-2.697-17.854-2.908-37.997-7.09-48.428-10.055-4.766-1.355-16.289-3.988-25.606-5.852s-21.016-4.321-26-5.46c-4.983-1.14-14.46-3.313-21.06-4.829-20.311-4.666-43.087-13.064-64-23.6-16.342-8.232-21.486-11.553-28.124-18.151-7.839-7.793-8.157-8.38-9.1-16.717-1.14-10.063.412-49.113 1.99-50.087.59-.365 7.558 1.07 15.486 3.186 7.928 2.117 20.414 5.168 27.748 6.78s17.533 4.057 22.666 5.432c5.134 1.375 14.734 3.745 21.334 5.266 6.6 1.522 15 3.622 18.666 4.667 3.667 1.046 9.067 2.289 12 2.763 2.934.475 10.434 1.957 16.667 3.295s18.233 3.669 26.667 5.18c8.433 1.513 20.133 3.631 26 4.708 5.866 1.077 13.666 2.34 17.333 2.805s12.667 1.957 20 3.313c17.664 3.266 37.538 6.371 50.678 7.92 5.873.691 13.383 1.863 16.689 2.604s16.5 1.992 29.322 2.78c12.82.787 28.111 1.988 33.978 2.669 5.866.68 20.566 1.594 32.666 2.031s27.1 1.386 33.334 2.108c14.68 1.702 136.899 2.567 154.873 1.097 7.587-.621 23.693-1.724 35.793-2.452 27.788-1.672 63.968-4.917 84.667-7.596 8.8-1.138 23.2-2.869 32-3.845 17.002-1.887 65.291-9.087 75.333-11.233 3.3-.705 15.9-3.135 28-5.4s27.4-5.27 34-6.678 15.3-3.197 19.334-3.975c20.171-3.888 73.978-17.924 90.227-23.535 7.516-2.596 14.29-4.334 15.052-3.862.878.542 1.387 9.727 1.387 25.024 0 21.787-.274 24.734-2.786 29.923-6.986 14.432-45.52 39.342-75.88 49.055-6.234 1.994-13.434 4.442-16 5.44-9.116 3.547-50.446 12.97-73.334 16.72-4.766.781-13.766 2.522-20 3.868-6.233 1.347-20.333 3.742-31.333 5.323s-24.8 3.717-30.667 4.747c-5.866 1.03-19.666 2.796-30.666 3.923s-23.3 2.625-27.334 3.326c-4.033.7-16.633 1.905-28 2.676-11.366.772-22.166 1.747-24 2.169-12.982 2.983-161.256 5.094-220 3.133m638.102-18.292c-16.802-.248-27.215-.932-28.333-1.86-1.384-1.148-1.769-8.823-1.769-35.304 0-40.076-.682-38.245 14.81-39.738 30.401-2.928 47.95-13.142 58.494-34.046 6.359-12.606 6.696-18.99 6.696-126.617 0-104.949.248-110.215 6.093-129.436 5.735-18.861 9.704-25.884 21.638-38.282 7.84-8.147 26.963-20.98 35.694-23.955 7.51-2.559 10.66-7.608 6.601-10.576-1.394-1.02-3.4-1.854-4.456-1.854-4.686 0-28.03-17.259-38.995-28.83-8.33-8.79-17.136-23.144-20.35-33.17-6.377-19.886-6.426-21.01-5.524-127.82.767-90.914.639-101.108-1.37-108.908-4.634-17.992-16.828-32.348-34.672-40.823-9.19-4.364-11.33-4.83-25.02-5.448-8.235-.371-15.722-1.272-16.639-2.001-2.32-1.847-2.416-72.379-.1-73.81.862-.533 18.712-.833 39.667-.668 47.968.38 61.065 2.355 83.35 12.571 33.594 15.402 53.545 39.253 63.774 76.24 5.952 21.524 6.31 29.09 6.31 133.523 0 93.308.14 99.272 2.584 108.823 4.534 17.728 12.386 30.09 25.987 40.912 9.592 7.633 27.038 16.982 34.043 18.244 9.863 1.776 9.401.266 9.24 30.212-.08 14.824-.529 30.424-1 34.665l-.855 7.712-10.666 3.69c-28.2 9.757-44.138 24.45-54.132 49.902l-4.312 10.984-.139 112c-.136 110.536-.177 112.157-3.064 124-6.556 26.886-10.948 36.731-23.39 52.43-13.129 16.568-33.077 30.289-57.258 39.384-11.604 4.365-37.26 8.937-47.976 8.55-4.618-.167-20.35-.48-34.961-.696m-1174.102-2.992c-18.105-3.838-30.497-7.657-36.768-11.331-20.604-12.075-44.966-35.607-52.345-50.56-6.198-12.561-11.99-29.841-13.567-40.47-.732-4.94-1.914-11.381-2.627-14.315-.78-3.209-1.308-46.06-1.328-107.597l-.031-102.265-3.468-11.069c-9.329-29.782-23.98-44.04-55.866-54.364-15.609-5.054-14.852-4.506-15.802-11.439-.475-3.467-.864-18.147-.864-32.622 0-20.072.414-26.661 1.747-27.767.96-.797 6.076-3.212 11.367-5.365 24.738-10.067 41.351-23.737 49.611-40.821 9.14-18.905 8.97-16.63 9.88-132.024.466-59.038 1.405-107.747 2.172-112.667 3.132-20.102 15.754-50.006 27.15-64.322 7.336-9.216 18.336-18.078 30.073-24.229 11.024-5.778 34.285-13.972 44.666-15.736 4.4-.747 25.75-1.62 47.444-1.94 33.036-.488 39.7-.274 41.022 1.318 1.15 1.386 1.482 11.799 1.223 38.405l-.355 36.504-12 .879c-16.361 1.198-30.488 4.372-37.347 8.392-11.551 6.77-21.907 22.248-24.685 36.895-.776 4.095-1.302 48.457-1.302 109.93 0 64.425-.492 104.359-1.313 106.518-.722 1.9-1.937 7.36-2.7 12.134-1.657 10.374-9.613 28.185-17.016 38.093-10.742 14.377-24.873 24.926-39.091 29.182-9.22 2.76-14.062 6.508-12.768 9.881.423 1.102 5.146 4.107 10.495 6.677 12.624 6.064 24.717 15.306 37.398 28.58 8.211 8.594 11.498 13.362 16.838 24.425 11.468 23.761 10.952 17.443 10.879 133.081-.072 113.724.262 119.448 7.844 134.468 10.714 21.222 33.502 32.199 66.847 32.199 7.674 0 10.946.548 12.492 2.095 1.796 1.796 2.095 6.992 2.095 36.4 0 24.904-.438 34.743-1.6 35.905-1.183 1.183-12.727 1.566-44.333 1.472-35.732-.108-44.59-.522-54.067-2.53m590-126.682c-47.053-1.125-100.265-3.633-112-5.28-5.133-.72-15.033-1.635-22-2.031-6.966-.397-20.166-1.616-29.333-2.709s-25.067-2.874-35.333-3.96c-30.22-3.194-52.86-5.976-53.908-6.624-.538-.332-8.428-1.533-17.535-2.67-28.425-3.55-50.77-7.742-132.557-24.873-13.934-2.918-29.834-6.188-35.334-7.266-14.166-2.777-22.984-5.776-25.522-8.68-2.011-2.303-2.205-23.523-2.394-262.457l-.205-259.951 2.811-1.505c2.071-1.109 113.159-1.5 421.728-1.486 424.004.02 554.147.753 558.768 3.15 2.418 1.255 2.5 3.442 2.04 54.828-.264 29.436-.33 146.18-.145 259.431.27 165.98 0 206.234-1.373 207.577-3.757 3.664-40.644 15.112-68.374 21.22-5.867 1.292-14.867 3.424-20 4.738-5.134 1.313-14.134 3.012-20 3.775-5.867.763-17.867 2.944-26.667 4.848s-21.107 4.264-27.348 5.246-14.941 2.412-19.333 3.177-22.686 2.922-40.652 4.79c-17.967 1.87-39.267 4.325-47.334 5.457s-20.666 2.597-28 3.256c-22.126 1.99-62.844 5.388-82.666 6.9-22.752 1.736-88.608 2.263-137.334 1.099M690.754 762.62c2.526-1.352 2.58-4.371 2.58-144.903V474.194l4.137-3.454c4.012-3.35 4.17-3.9 5.2-18.097 1.095-15.115.445-18.623-3.67-19.793-1.284-.365-23.392-.856-49.128-1.09-38.174-.348-47.2-.09-49 1.403-1.817 1.508-2.206 4.516-2.206 17.06 0 14.394.18 15.412 3.272 18.504 1.8 1.8 4.727 3.273 6.504 3.273 7.157 0 6.8-6.46 8.062 145.871.731 88.368 1.66 142.078 2.475 143.104.945 1.189 9.441 1.748 30.829 2.027 16.238.212 31.514.523 33.945.692s5.582-.315 7-1.074m146.283-.696L840 759.85V558.088c0-159.798-.347-202.043-1.667-203.115-2.025-1.645-71.572-2.799-74-1.228-2.542 1.646-2.435 405.29.108 407.401 1.162.964 13.255 1.605 35 1.855 18.274.21 33.542.52 33.929.69s2.037-.625 3.667-1.767m147.696.81c1.037-1.037 1.361-183.234.679-380.812-.056-16.138-.57-23.416-1.767-25.054-1.5-2.05-5.598-2.398-36.645-3.103-27.964-.636-35.382-.441-37.084.971-1.938 1.609-2.053 19.74-1.288 203.126.575 137.813 1.283 201.894 2.244 203.052 1.008 1.215 7.837 1.803 24.266 2.089 12.574.219 28.592.532 35.595.697s13.304-.27 14-.967m145.542-1.629c1.397-1.16 1.725-39.872 1.725-203.856 0-133.254-.455-202.706-1.33-203.247-.733-.453-17.65-.845-37.593-.872-32.825-.045-36.42.168-37.942 2.25-1.34 1.832-1.586 43.163-1.21 203.711.406 173.94.734 201.606 2.402 202.828 2.634 1.93 71.556 1.171 73.948-.814m144.704-.285c.54-.818.99-92.163 1-202.99.016-159.6-.326-201.79-1.646-202.879-1.023-.844-15.238-1.53-36.813-1.777-33.609-.384-35.23-.287-37.084 2.212-1.679 2.266-1.874 29.272-1.466 202.614.26 110 .957 201.04 1.551 202.31.976 2.088 4.316 2.346 34.613 2.669 35.357.377 38.28.218 39.845-2.159m-729.506-.322c1.486-1.79 1.805-26.576 1.83-141.794.026-121.716-.224-139.933-1.955-142.019-1.854-2.234-4.272-2.33-36.666-1.449-19.533.532-35.264 1.516-36.015 2.254-1.714 1.683-2.14 279.512-.435 282.843 1.093 2.133 4.212 2.334 36.318 2.334 30.809 0 35.345-.267 36.923-2.17m-25.897-321.922c31.974-16.2 49.845-24.321 62.757-28.516 10.135-3.293 11-5.14 11-23.483 0-17.842.115-17.637-12.666-22.651-4.4-1.726-8.6-3.56-9.334-4.075-.733-.515-6.729-3.166-13.323-5.892s-16.422-7.03-21.838-9.566c-24.673-11.552-56.214-21.325-61.876-19.172-1.796.683-3.647 2.236-4.114 3.453-1.176 3.065-1.03 30.318.172 32.16.538.826 5.758 3.41 11.599 5.741 5.84 2.332 11.25 4.764 12.021 5.404 1.381 1.146 19.811 8.936 31.182 13.18 9.196 3.433 8.757 4.041-7.823 10.837-5.5 2.255-14.5 6.129-20 8.609s-12.93 5.538-16.511 6.797c-11.472 4.031-11.916 5.006-10.814 23.737.524 8.907 1.56 16.944 2.302 17.861.773.955 4.374 1.667 8.43 1.667 6.405 0 10.104-1.533 38.836-16.091" style="fill:#121c2e" transform="translate(-71.246 -126.808)"/><path d="M519.576 438.576c31.974-16.2 49.845-24.321 62.757-28.516 10.135-3.293 11-5.14 11-23.483 0-17.842.115-17.637-12.666-22.651-4.4-1.726-8.6-3.56-9.334-4.075-.733-.515-6.729-3.166-13.323-5.892s-16.422-7.03-21.838-9.566c-24.673-11.552-56.214-21.325-61.876-19.172-1.796.683-3.647 2.236-4.114 3.453-1.176 3.065-1.03 30.318.172 32.16.538.826 5.758 3.41 11.599 5.741 5.84 2.332 11.25 4.764 12.021 5.404 1.381 1.146 19.811 8.936 31.182 13.18 9.196 3.433 8.757 4.041-7.823 10.837-5.5 2.255-14.5 6.129-20 8.609s-12.93 5.538-16.511 6.797c-11.472 4.031-11.916 5.006-10.814 23.737.524 8.907 1.56 16.944 2.302 17.861.773.955 4.374 1.667 8.43 1.667 6.405 0 10.104-1.533 38.836-16.091" style="fill:#fff" transform="translate(-71.246 -126.808)"/></svg>