<svg xmlns="http://www.w3.org/2000/svg" width="1602.014" height="1296.766" viewBox="0 0 1602.014 1296.766"><path d="M524 1423.11c-14.293-1.42-32.82-5.075-43.591-8.6-25.25-8.266-51.415-30.902-61.2-52.945-3.956-8.912-8.542-32.313-8.542-43.585 0-11.046 4.183-32.536 8.309-42.688 4.83-11.886 9.615-18.78 21.56-31.066 11.82-12.16 25.302-21.357 37.56-25.625 23.095-8.04 66.49-12.368 92.412-9.216 15.507 1.886 39.554 8.548 52.159 14.451 4.594 2.152 4.665 2.309 4.551 10.175-.101 7.075-4.251 29.55-6.565 35.553-1.492 3.871-4.518 3.828-11.016-.159-9.208-5.649-17.897-8.74-33.49-11.917-17.14-3.491-44.754-3.88-56.867-.801-13.107 3.332-27.139 10.972-35.512 19.338-6.405 6.4-8.01 9.025-10.47 17.122-2.472 8.138-2.83 11.993-2.408 25.875.429 14.11.96 17.309 3.938 23.705 7.108 15.271 17.252 22.283 40.505 28 19.201 4.721 40.147 5.003 60.667.817 18.536-3.78 25.173-5.861 32.025-10.038 5.377-3.278 12.268-3.7 14.597-.893 2.187 2.635 8.785 35.535 7.696 38.373-1.432 3.731-23.245 13.622-38.318 17.376-22.101 5.504-51.322 8.404-68 6.748m707.333-1.803c-15.96-3.119-29.645-7.979-37.618-13.36-3.217-2.17-6.255-3.947-6.753-3.947-.497 0-3.098 2.4-5.779 5.333l-4.875 5.334h-21.409c-14.05 0-21.718-.501-22.31-1.458-.495-.802-.798-62.452-.674-137 .195-116.747.498-135.958 2.186-138.542 1.908-2.92 2.576-3 25.008-3 17.802 0 23.637.43 25.636 1.892 2.465 1.803 2.566 3.484 2.13 35.216-.252 18.327-.03 37.876.49 43.44 1.109 11.833 2.321 12.488 11.568 6.251 14.116-9.522 36.36-16.133 54.28-16.133 16.296 0 36.298 4.231 50.008 10.578 29.076 13.46 43.336 29.569 53.196 60.089 12.371 38.296 2.937 90.833-20.337 113.257-16.722 16.11-35.822 26.421-57.148 30.851-19.028 3.953-31.855 4.276-47.599 1.2m33.114-44.79c17.231-5.738 32.713-19.8 37.003-33.608.839-2.7 1.8-10.909 2.137-18.242 1.103-24.03-4.686-47.01-14.881-59.066-6.146-7.268-19.875-12.89-37.846-15.5-14.354-2.085-43.309 6.322-54.575 15.846-8.252 6.977-8.388 7.746-8.728 49.376-.17 20.825.015 38.789.41 39.918 1.712 4.88 21.322 17.182 35.366 22.188 10.613 3.783 28.19 3.393 41.115-.911m-352.15 40.074c-2.82-1.975-2.964-2.97-2.964-20.571 0-15.037.392-18.888 2.096-20.591 1.679-1.68 5.848-2.15 21-2.365 10.397-.148 22.544-.103 26.992.1 5.486.25 8.546-.2 9.512-1.398 1.671-2.073 2.287-25.91 1.964-76.004-.186-28.711-.595-35.936-2.123-37.464-1.424-1.425-8.093-2.127-27-2.842-13.809-.523-25.662-1.498-26.339-2.168s-1.317-8.844-1.422-18.164c-.167-14.869.112-17.25 2.277-19.414 2.33-2.33 5.325-2.447 53.198-2.09 48.443.363 50.814.497 52.62 2.968 1.58 2.162 1.892 14.93 1.892 77.524 0 67.102.22 75.02 2.109 75.745 1.16.445 12.875.81 26.033.81h23.924l1.39 3.657c1.608 4.23.252 38.304-1.672 42.01-1.133 2.182-6.355 2.333-80.868 2.333-69.937 0-80.018-.254-82.62-2.076m-220.718-1.997c-2.66-2.153-2.731-3.689-3.224-68.582-.277-36.508-.996-68.846-1.597-71.862-1.655-8.31-6.213-24.308-10.11-35.483-4.551-13.057-5.25-16.805-3.349-17.98 2.41-1.489 17.366-4.385 32.218-6.239 13.423-1.675 13.475-1.67 15.975 1.417 1.38 1.703 2.508 4.275 2.508 5.714s1.445 6.923 3.211 12.186c1.766 5.262 3.629 11.797 4.14 14.52 1.837 9.802 3.462 9.313 18.253-5.499 14.778-14.798 26.302-23.162 39.73-28.833 15.468-6.533 53.056-7.002 66.74-.832 3.26 1.47 7.922 3.41 10.363 4.313 8.623 3.19 8.92 5.28 3.663 25.788-2.566 10.012-5.439 19.778-6.383 21.702-2.26 4.603-5.823 6.806-8.197 5.07-.997-.73-3.311-2.39-5.142-3.69-1.832-1.298-9.266-3.896-16.52-5.772-10.278-2.657-15.253-3.265-22.525-2.75-12.386.875-25.993 6.111-36.666 14.109-10.057 7.535-14.857 13.185-24.028 28.286l-6.639 10.93-.049 14.78c-.091 27.654-1.346 78.764-2.04 83.097-.381 2.374-1.717 4.855-2.968 5.513-1.252.657-11.81 1.444-23.46 1.747-18.253.476-21.56.247-23.904-1.65m272.519-234.411c-.732-1.367-1.428-11.37-1.548-22.23-.196-17.691.033-19.928 2.204-21.515 1.797-1.314 8.478-1.771 25.87-1.771 31.303 0 29.376-1.542 29.376 23.496 0 10.786-.61 20.487-1.38 21.925-1.292 2.414-3.039 2.579-27.287 2.579-23.907 0-26.008-.192-27.235-2.484M824 1017.84c-4.767-.226-23.667-1.056-42-1.843s-39.633-2.013-47.333-2.724c-66.952-6.185-101.877-10.688-139.334-17.967-5.133-.998-12.033-2.212-15.333-2.698s-11.7-2.318-18.667-4.071c-18.025-4.536-27.157-6.67-39.333-9.196-10.954-2.271-24.762-5.415-44.667-10.17-18.956-4.528-38.422-11.592-57.229-20.767-28.178-13.747-37.668-20.915-42.27-31.93-2.224-5.322-2.615-54.247-.48-59.864 1.635-4.297 3.196-4.177 23.98 1.839 7.7 2.229 20 5.34 27.333 6.913s17.533 3.994 22.666 5.379c37.397 10.087 79.773 18.775 130 26.652 9.9 1.553 21.621 3.65 26.047 4.658 15.312 3.491 92.022 13.675 109.287 14.509 9.533.46 24.833 1.407 34 2.105 64.529 4.91 167.083 6.397 222 3.219 17.6-1.02 34.1-2.154 36.666-2.522 2.567-.369 17.844-1.619 33.95-2.779 16.105-1.16 29.662-2.343 30.126-2.63s10.987-1.744 23.384-3.237c30.123-3.629 50.976-6.466 53.668-7.302 1.213-.377 8.533-1.568 16.266-2.646s15.721-2.591 17.753-3.364 5.642-1.404 8.022-1.404 8.792-1.153 14.247-2.563c5.455-1.409 13.518-2.96 17.918-3.445 4.4-.486 11.3-1.707 15.333-2.713 7.459-1.861 21.175-4.693 38-7.847 5.133-.962 12.333-2.667 16-3.79 7.793-2.383 16.65-4.716 38.693-10.19 8.814-2.19 20.514-5.81 26-8.045 11.608-4.73 15.355-5.055 17.26-1.495 1.7 3.177 1.796 45.356.12 52.58-1.514 6.524-6.547 12.791-18.098 22.537-26.326 22.213-59.752 36.632-111.975 48.302-8.8 1.967-19.6 4.398-24 5.403s-12.927 2.43-18.949 3.17c-6.022.738-13.822 2.194-17.333 3.236-3.512 1.043-15.385 3.191-26.385 4.775-11 1.583-23.3 3.482-27.333 4.22-11.805 2.157-22.121 3.594-42 5.853-10.267 1.166-22.567 2.686-27.333 3.376-4.767.691-23.067 2.16-40.667 3.267s-42.2 2.711-54.667 3.568c-20.831 1.431-123.118 2.603-143.333 1.641m638.555-18.395c-.305-.306-14.263-.769-31.017-1.029-28.193-.438-30.6-.664-32.333-3.033-1.49-2.037-1.872-9.432-1.872-36.242 0-34.488.516-38.49 5.354-41.511 1.374-.858 10.18-2.849 19.572-4.425 29.714-4.986 40.523-12.22 50.682-33.914l3.726-7.958.282-106c.31-116.157.452-118.553 8.467-142.99 4.336-13.221 9.73-22.312 19.7-33.198 7.523-8.217 27.19-22.355 35.998-25.88 6.67-2.668 7.077-5.252 1.22-7.726-5.607-2.368-25.03-16.823-33.99-25.296-8.056-7.618-18.647-23.604-22.688-34.243-1.531-4.033-4.036-12.783-5.565-19.443-2.709-11.8-2.771-14.79-2.435-117.333L1478 254l-4.278-9.032c-5.456-11.519-15.505-21.527-27.627-27.514-8.613-4.255-10.261-4.588-25.64-5.18-10.343-.399-17.305-1.268-18.78-2.346-2.139-1.565-2.342-5.008-2.342-39.773 0-34.49.22-38.279 2.337-40.396 2.136-2.136 5.68-2.308 41.333-1.998 41.184.357 45.832.874 70.832 7.884 13.237 3.711 30.957 13.19 43.238 23.126 22.15 17.921 38.127 49.43 42.205 83.229 1.352 11.21 1.686 37.296 1.415 110.667-.339 91.625-.235 96.516 2.282 107.333 1.45 6.233 4.768 15.42 7.372 20.415 8.503 16.307 28.56 31.628 50.124 38.288 14.104 4.357 13.368 1.884 12.246 41.123-.534 18.672-1.252 34.683-1.597 35.58-.344.899-5.237 3.282-10.873 5.298-31.915 11.414-46.08 24.878-55.728 52.97l-3.318 9.66.242 106c.133 58.3-.21 109.9-.764 114.666-1.165 10.027-5.848 28.337-9.734 38.057-12.85 32.14-44.027 58.874-83.612 71.698-11.137 3.608-42.832 7.635-44.778 5.69M265.044 997.18c-12.667-1.784-34.544-7.616-41.696-11.115-10.588-5.18-27.799-18.438-40.43-31.146-12.64-12.714-19.797-24.527-26.005-42.919-8.306-24.607-8.023-20.165-8.835-138.667-.409-59.766-1.225-109.41-1.812-110.317-.588-.908-1.968-5.108-3.066-9.333-1.099-4.226-4.119-11.583-6.711-16.35-9.51-17.484-21.62-26.152-48.38-34.632-7.855-2.489-13.948-5.193-14.612-6.485-.626-1.219-1.477-16.752-1.89-34.518-.674-28.966-.52-32.586 1.488-35.057 1.232-1.516 7.246-4.803 13.365-7.306 13.75-5.623 29.727-15.457 37.126-22.852 6.432-6.43 11.398-15.59 16.163-29.816l3.35-10 .402-105.334c.267-69.903.905-108.248 1.896-114 3.589-20.825 15.37-48.38 27.927-65.319 11.9-16.052 30.714-27.888 60.01-37.75 20.94-7.049 31.386-8.09 72.025-7.174 27.238.614 35.506 1.202 36.934 2.63 1.45 1.45 1.962 9.908 2.416 39.876.528 34.84.382 38.204-1.733 40.043-1.623 1.411-6.878 2.255-17.7 2.84-25.09 1.36-36.853 6.583-46.06 20.453-10.067 15.168-9.677 10.291-10.293 128.63l-.551 105.771-3.509 15.156c-6.03 26.051-19.25 46.54-38.705 59.985-5.874 4.059-14.17 8.374-19.227 10-11.232 3.61-12.075 6.125-3.324 9.913 12.971 5.616 34.638 23.593 47.894 39.74 4.818 5.869 12.557 21.595 16.996 34.54 2.66 7.759 2.765 11.412 3.457 121.333l.714 113.333 3.931 9.334c7.005 16.631 21.937 28.423 39.597 31.27 4.66.75 10.568 1.972 13.13 2.714 2.561.742 9.245 1.349 14.852 1.349 8.047 0 10.857.536 13.342 2.547l3.148 2.547.392 36.574c.355 33.078.176 36.753-1.872 38.453-1.835 1.523-10.251 1.903-44.393 2.006-23.17.07-45.558-.356-49.75-.947m594.29-127.927c-28.6-.486-55.9-1.555-60.666-2.375-4.767-.82-16.767-1.523-26.667-1.563s-24.3-.653-32-1.364c-7.7-.71-24.8-2.207-38-3.326-13.2-1.118-24.9-2.302-26-2.63-1.1-.33-14.6-1.838-30-3.353s-37.6-4.186-49.333-5.937c-11.734-1.75-26.434-3.871-32.667-4.713s-17.033-2.633-24-3.98c-6.967-1.348-19.867-3.753-28.667-5.345s-20.8-3.993-26.666-5.335c-23.61-5.402-35.164-7.917-45.334-9.87-41.367-7.946-55.174-11.603-58.758-15.563-2.09-2.31-2.252-20.72-2.314-264.72l-.067-262.238 3.105-2.514c3.03-2.454 14.531-2.511 475.126-2.378 259.612.074 480.39.663 490.617 1.308 14.091.888 19.178 1.699 20.997 3.345 2.296 2.078 2.408 13.6 2.55 263.163.142 248.486.035 261.092-2.22 263.123-4.49 4.04-36.168 14.637-59.036 19.746l-19.455 4.357c-4.467 1.003-8.768 2.223-9.558 2.711-.79.489-8.836 2.065-17.879 3.502-21.72 3.454-38.635 6.53-41.108 7.479-3.96 1.518-31.699 5.975-49.333 7.927-9.9 1.095-18.9 2.264-20 2.596s-10.1 1.25-20 2.041-28.2 2.867-40.667 4.614c-12.466 1.746-31.366 3.81-42 4.586-63.352 4.622-77.528 5.76-85.333 6.853-9.172 1.285-21.51 1.267-104.667-.147M695.768 467c2.339-1.999 2.79-4.188 3.148-15.266.258-8.004-.13-13.48-1.016-14.367-2.154-2.155-90.581-4.085-93.875-2.05-2.048 1.267-1.77 29.35.308 31.068 2.727 2.256 7.807 2.54 49.186 2.749 35.884.181 39.77-.015 42.249-2.134m-173.4-33.54c31.09-15.635 51.226-24.806 60.299-27.465 7.183-2.106 8.001-4.006 7.98-18.535-.012-7.403-.462-14.15-1-14.994-.54-.844-7.58-4.366-15.647-7.827a2330 2330 0 0 1-28-12.268c-24.874-11.145-33.955-14.787-45.656-18.31a2792 2792 0 0 1-15.772-4.788c-6.1-1.896-9.675-1.55-10.962 1.06-.632 1.284-1.08 8.22-.995 15.414.164 13.87.523 14.675 7.349 16.484 1.813.48 7.213 2.802 12 5.158 4.786 2.356 12.003 5.611 16.036 7.234a978 978 0 0 1 13.333 5.493c3.3 1.397 8.4 3.293 11.334 4.213 6.46 2.027 8.159 6.882 3.09 8.838-40.225 15.53-61.244 24.629-62.557 27.082-.806 1.506-.773 5.406.09 10.725.746 4.598 1.361 10.81 1.367 13.804s.46 5.902 1.01 6.46c2.815 2.861 14.522-1.596 46.701-17.778" style="fill:#44a096" transform="translate(-71.246 -126.808)"/><path d="M509.963 1417.378c-29.68-4.252-50.778-14.033-68.08-31.562-16.626-16.843-23.204-30.653-25.876-54.323-2.55-22.594.989-44.06 10.358-62.826 4.134-8.281 6.339-11.16 16.711-21.819 16.71-17.171 31.083-24.233 64.166-31.525 7.813-1.722 17.217-2.374 36-2.494 30.677-.196 37.657 1.08 70.091 12.807 8.395 3.035 8.68 3.29 9.083 8.122.23 2.744-.477 8.121-1.57 11.949s-2.399 9.817-2.903 13.31c-.505 3.492-1.411 6.654-2.015 7.027s-4.513-1.169-8.687-3.427c-22.495-12.17-70.885-16.466-95.032-8.436-17.976 5.977-34.867 19.475-41 32.764-3.747 8.116-3.873 9.06-3.874 29.055-.002 19.612.18 21.054 3.559 28.262 7.961 16.985 25.214 27.804 52.876 33.16 11.901 2.303 41.524.912 57.563-2.704 19.819-4.468 21.959-5.157 27.3-8.781 9.082-6.163 11.318-3.475 14.862 17.868 1.953 11.755 2.007 13.906.388 15.37-3.965 3.583-23.822 11.36-37.662 14.75-12.594 3.085-17.895 3.607-41.334 4.071-14.788.293-30.504.015-34.924-.618m722.027.079c-12.04-1.7-29.14-8.032-38.086-14.103-7.005-4.754-10.237-4.334-15.237 1.98l-4.224 5.332h-37.776l.09-134.333c.049-73.883.199-135.098.333-136.032.189-1.316 5.28-1.617 22.577-1.333l22.333.365.667 44.667c.367 24.567 1.152 45.417 1.746 46.333 1.816 2.807 5.253 1.888 13.245-3.542 20.807-14.133 44.79-18.752 76.638-14.759 27.091 3.397 54.546 19.796 67.503 40.322 17.117 27.112 20.558 73.762 7.842 106.313-10.339 26.466-35.383 48.055-64.974 56.008-11.764 3.161-39.583 4.63-52.677 2.782m39.343-38.779c13.277-5.586 26.68-18.108 32.356-30.23 3.516-7.507 3.643-8.557 3.601-29.782-.037-19.051-.448-23.3-3.068-31.706-7.809-25.052-22.068-37.062-47.891-40.336-26.19-3.32-53.441 5.443-67.858 21.822l-5.446 6.186-.09 40.945-.092 40.944 4.433 4.181c10.208 9.627 28.26 19.243 41.304 22 2.98.63 11.417.993 18.75.805 11.699-.299 14.641-.89 24-4.829zm-356.713 34.626c-.856-.528-1.23-7.315-.995-18.075l.375-17.23 28.257-.359 28.257-.36 2.92-3.64 2.92-3.64-.824-56.61c-.76-52.235-1.01-56.796-3.24-59.026-2.084-2.084-5.883-2.55-27.686-3.39l-25.27-.974v-30.667l4.666-.287c17.878-1.1 91.646-1.685 92.988-.737 1.272.897 1.792 18.434 2.246 75.763.325 41.027.63 75.002.678 75.5.048.497 1.03 1.847 2.183 3 1.749 1.748 6.04 2.095 25.921 2.095 15.523 0 24.135.498 24.71 1.43 1.353 2.19.672 33.29-.789 36.02-1.218 2.277-5.357 2.394-78.617 2.219-42.532-.102-77.947-.566-78.7-1.031zm-220.013-2.041c-.64-.772-1.227-28.972-1.304-62.667-.156-68.132-.467-71.35-10.006-103.565-2.547-8.6-4.63-16.782-4.63-18.183 0-2.1 1.575-2.82 9-4.109 4.95-.859 13.46-2.492 18.911-3.63 9.36-1.952 10.01-1.933 11.667.334.965 1.32 1.755 3.26 1.755 4.313s1.737 7.387 3.86 14.078c2.124 6.691 4.393 14.266 5.043 16.832 1.036 4.091 1.752 4.714 5.806 5.05 4.281.354 5.426-.488 15.419-11.346 25.392-27.59 43.52-35.75 77.205-34.753 14.748.436 18.925 1.071 28 4.257 5.867 2.06 11.464 4.499 12.439 5.42 1.467 1.39 1.039 4.625-2.5 18.859-5.98 24.049-6.215 24.347-15.102 19.104-6.768-3.993-25.396-8.16-36.184-8.092-17.73.11-36.555 8.36-50.193 21.999-7.197 7.197-9.755 10.628-18.512 24.836l-4.52 7.333-1.38 50.936c-.822 30.305-1.921 51.457-2.714 52.223-1.901 1.835-40.59 2.544-42.06.77M986 1177.39l-18.667-.725v-37.333l22.49-.366c15.456-.252 23.068.112 24.334 1.163 1.399 1.161 1.843 5.792 1.843 19.224 0 19.223-.165 19.627-7.776 19.037-1.957-.152-11.957-.602-22.224-1m-192.667-164.098c-17.966-.6-38.366-1.706-45.333-2.46-6.967-.752-17.167-1.73-22.667-2.172-24.432-1.965-104.629-11.74-108.906-13.274-.865-.31-7.465-1.524-14.666-2.697-17.854-2.908-37.997-7.09-48.428-10.055-4.766-1.355-16.289-3.988-25.606-5.852s-21.016-4.321-26-5.46a30446 30446 0 0 1-21.06-4.829c-20.311-4.666-43.087-13.064-64-23.6-16.342-8.232-21.486-11.553-28.124-18.151-7.839-7.793-8.157-8.38-9.1-16.717-1.14-10.063.412-49.113 1.99-50.087.59-.365 7.558 1.07 15.486 3.186 7.928 2.117 20.414 5.168 27.748 6.78s17.533 4.057 22.666 5.432c5.134 1.375 14.734 3.745 21.334 5.266 6.6 1.522 15 3.622 18.666 4.667 3.667 1.046 9.067 2.289 12 2.763 2.934.475 10.434 1.957 16.667 3.295s18.233 3.669 26.667 5.18a8212 8212 0 0 1 26 4.708c5.866 1.077 13.666 2.34 17.333 2.805s12.667 1.957 20 3.313c17.664 3.266 37.538 6.371 50.678 7.92 5.873.691 13.383 1.863 16.689 2.604s16.5 1.992 29.322 2.78c12.82.787 28.111 1.988 33.978 2.669 5.866.68 20.566 1.594 32.666 2.031s27.1 1.386 33.334 2.108c14.68 1.702 136.899 2.567 154.873 1.097 7.587-.621 23.693-1.724 35.793-2.452 27.788-1.672 63.968-4.917 84.667-7.596 8.8-1.138 23.2-2.869 32-3.845 17.002-1.887 65.291-9.087 75.333-11.233 3.3-.705 15.9-3.135 28-5.4s27.4-5.27 34-6.678 15.3-3.197 19.334-3.975c20.171-3.888 73.978-17.924 90.227-23.535 7.516-2.596 14.29-4.334 15.052-3.862.878.542 1.387 9.727 1.387 25.024 0 21.787-.274 24.734-2.786 29.923-6.986 14.432-45.52 39.342-75.88 49.055-6.234 1.994-13.434 4.442-16 5.44-9.116 3.547-50.446 12.97-73.334 16.72-4.766.781-13.766 2.522-20 3.868-6.233 1.347-20.333 3.742-31.333 5.323s-24.8 3.717-30.667 4.747c-5.866 1.03-19.666 2.796-30.666 3.923s-23.3 2.625-27.334 3.326c-4.033.7-16.633 1.905-28 2.676-11.366.772-22.166 1.747-24 2.169-12.982 2.983-161.256 5.094-220 3.133m638.102-18.292c-16.802-.248-27.215-.932-28.333-1.86-1.384-1.148-1.769-8.823-1.769-35.304 0-40.076-.682-38.245 14.81-39.738 30.401-2.928 47.95-13.142 58.494-34.046 6.359-12.606 6.696-18.99 6.696-126.617 0-104.949.248-110.215 6.093-129.436 5.735-18.861 9.704-25.884 21.638-38.282 7.84-8.147 26.963-20.98 35.694-23.955 7.51-2.559 10.66-7.608 6.601-10.576-1.394-1.02-3.4-1.854-4.456-1.854-4.686 0-28.03-17.259-38.995-28.83-8.33-8.79-17.136-23.144-20.35-33.17-6.377-19.886-6.426-21.01-5.524-127.82.767-90.914.639-101.108-1.37-108.908-4.634-17.992-16.828-32.348-34.672-40.823-9.19-4.364-11.33-4.83-25.02-5.448-8.235-.371-15.722-1.272-16.639-2.001-2.32-1.847-2.416-72.379-.1-73.81.862-.533 18.712-.833 39.667-.668 47.968.38 61.065 2.355 83.35 12.571 33.594 15.402 53.545 39.253 63.774 76.24 5.952 21.524 6.31 29.09 6.31 133.523 0 93.308.14 99.272 2.584 108.823 4.534 17.728 12.386 30.09 25.987 40.912 9.592 7.633 27.038 16.982 34.043 18.244 9.863 1.776 9.401.266 9.24 30.212-.08 14.824-.529 30.424-1 34.665l-.855 7.712-10.666 3.69c-28.2 9.757-44.138 24.45-54.132 49.902l-4.312 10.984-.139 112c-.136 110.536-.177 112.157-3.064 124-6.556 26.886-10.948 36.731-23.39 52.43-13.129 16.568-33.077 30.289-57.258 39.384-11.604 4.365-37.26 8.937-47.976 8.55-4.618-.167-20.35-.48-34.961-.696m-1174.102-2.992c-18.105-3.838-30.497-7.657-36.768-11.331-20.604-12.075-44.966-35.607-52.345-50.56-6.198-12.561-11.99-29.841-13.567-40.47-.732-4.94-1.914-11.381-2.627-14.315-.78-3.209-1.308-46.06-1.328-107.597l-.031-102.265-3.468-11.069c-9.329-29.782-23.98-44.04-55.866-54.364-15.609-5.054-14.852-4.506-15.802-11.439-.475-3.467-.864-18.147-.864-32.622 0-20.072.414-26.661 1.747-27.767.96-.797 6.076-3.212 11.367-5.365 24.738-10.067 41.351-23.737 49.611-40.821 9.14-18.905 8.97-16.63 9.88-132.024.466-59.038 1.405-107.747 2.172-112.667 3.132-20.102 15.754-50.006 27.15-64.322 7.336-9.216 18.336-18.078 30.073-24.229 11.024-5.778 34.285-13.972 44.666-15.736 4.4-.747 25.75-1.62 47.444-1.94 33.036-.488 39.7-.274 41.022 1.318 1.15 1.386 1.482 11.799 1.223 38.405l-.355 36.504-12 .879c-16.361 1.198-30.488 4.372-37.347 8.392-11.551 6.77-21.907 22.248-24.685 36.895-.776 4.095-1.302 48.457-1.302 109.93 0 64.425-.492 104.359-1.313 106.518-.722 1.9-1.937 7.36-2.7 12.134-1.657 10.374-9.613 28.185-17.016 38.093-10.742 14.377-24.873 24.926-39.091 29.182-9.22 2.76-14.062 6.508-12.768 9.881.423 1.102 5.146 4.107 10.495 6.677 12.624 6.064 24.717 15.306 37.398 28.58 8.211 8.594 11.498 13.362 16.838 24.425 11.468 23.761 10.952 17.443 10.879 133.081-.072 113.724.262 119.448 7.844 134.468 10.714 21.222 33.502 32.199 66.847 32.199 7.674 0 10.946.548 12.492 2.095 1.796 1.796 2.095 6.992 2.095 36.4 0 24.904-.438 34.743-1.6 35.905-1.183 1.183-12.727 1.566-44.333 1.472-35.732-.108-44.59-.522-54.067-2.53m590-126.682c-47.053-1.125-100.265-3.633-112-5.28-5.133-.72-15.033-1.635-22-2.031-6.966-.397-20.166-1.616-29.333-2.709s-25.067-2.874-35.333-3.96c-30.22-3.194-52.86-5.976-53.908-6.624-.538-.332-8.428-1.533-17.535-2.67-28.425-3.55-50.77-7.742-132.557-24.873-13.934-2.918-29.834-6.188-35.334-7.266-14.166-2.777-22.984-5.776-25.522-8.68-2.011-2.303-2.205-23.523-2.394-262.457l-.205-259.951 2.811-1.505c2.071-1.109 113.159-1.5 421.728-1.486 424.004.02 554.147.753 558.768 3.15 2.418 1.255 2.5 3.442 2.04 54.828-.264 29.436-.33 146.18-.145 259.431.27 165.98 0 206.234-1.373 207.577-3.757 3.664-40.644 15.112-68.374 21.22-5.867 1.292-14.867 3.424-20 4.738-5.134 1.313-14.134 3.012-20 3.775-5.867.763-17.867 2.944-26.667 4.848s-21.107 4.264-27.348 5.246-14.941 2.412-19.333 3.177-22.686 2.922-40.652 4.79c-17.967 1.87-39.267 4.325-47.334 5.457s-20.666 2.597-28 3.256c-22.126 1.99-62.844 5.388-82.666 6.9-22.752 1.736-88.608 2.263-137.334 1.099M690.754 762.62c2.526-1.352 2.58-4.371 2.58-144.903V474.194l4.137-3.454c4.012-3.35 4.17-3.9 5.2-18.097 1.095-15.115.445-18.623-3.67-19.793-1.284-.365-23.392-.856-49.128-1.09-38.174-.348-47.2-.09-49 1.403-1.817 1.508-2.206 4.516-2.206 17.06 0 14.394.18 15.412 3.272 18.504 1.8 1.8 4.727 3.273 6.504 3.273 7.157 0 6.8-6.46 8.062 145.871.731 88.368 1.66 142.078 2.475 143.104.945 1.189 9.441 1.748 30.829 2.027 16.238.212 31.514.523 33.945.692s5.582-.315 7-1.074m146.283-.696L840 759.85V558.088c0-159.798-.347-202.043-1.667-203.115-2.025-1.645-71.572-2.799-74-1.228-2.542 1.646-2.435 405.29.108 407.401 1.162.964 13.255 1.605 35 1.855 18.274.21 33.542.52 33.929.69s2.037-.625 3.667-1.767m147.696.81c1.037-1.037 1.361-183.234.679-380.812-.056-16.138-.57-23.416-1.767-25.054-1.5-2.05-5.598-2.398-36.645-3.103-27.964-.636-35.382-.441-37.084.971-1.938 1.609-2.053 19.74-1.288 203.126.575 137.813 1.283 201.894 2.244 203.052 1.008 1.215 7.837 1.803 24.266 2.089 12.574.219 28.592.532 35.595.697s13.304-.27 14-.967m145.542-1.629c1.397-1.16 1.725-39.872 1.725-203.856 0-133.254-.455-202.706-1.33-203.247-.733-.453-17.65-.845-37.593-.872-32.825-.045-36.42.168-37.942 2.25-1.34 1.832-1.586 43.163-1.21 203.711.406 173.94.734 201.606 2.402 202.828 2.634 1.93 71.556 1.171 73.948-.814m144.704-.285c.54-.818.99-92.163 1-202.99.016-159.6-.326-201.79-1.646-202.879-1.023-.844-15.238-1.53-36.813-1.777-33.609-.384-35.23-.287-37.084 2.212-1.679 2.266-1.874 29.272-1.466 202.614.26 110 .957 201.04 1.551 202.31.976 2.088 4.316 2.346 34.613 2.669 35.357.377 38.28.218 39.845-2.159m-729.506-.322c1.486-1.79 1.805-26.576 1.83-141.794.026-121.716-.224-139.933-1.955-142.019-1.854-2.234-4.272-2.33-36.666-1.449-19.533.532-35.264 1.516-36.015 2.254-1.714 1.683-2.14 279.512-.435 282.843 1.093 2.133 4.212 2.334 36.318 2.334 30.809 0 35.345-.267 36.923-2.17m-25.897-321.922c31.974-16.2 49.845-24.321 62.757-28.516 10.135-3.293 11-5.14 11-23.483 0-17.842.115-17.637-12.666-22.651-4.4-1.726-8.6-3.56-9.334-4.075-.733-.515-6.729-3.166-13.323-5.892s-16.422-7.03-21.838-9.566c-24.673-11.552-56.214-21.325-61.876-19.172-1.796.683-3.647 2.236-4.114 3.453-1.176 3.065-1.03 30.318.172 32.16.538.826 5.758 3.41 11.599 5.741 5.84 2.332 11.25 4.764 12.021 5.404 1.381 1.146 19.811 8.936 31.182 13.18 9.196 3.433 8.757 4.041-7.823 10.837-5.5 2.255-14.5 6.129-20 8.609s-12.93 5.538-16.511 6.797c-11.472 4.031-11.916 5.006-10.814 23.737.524 8.907 1.56 16.944 2.302 17.861.773.955 4.374 1.667 8.43 1.667 6.405 0 10.104-1.533 38.836-16.091" style="fill:#121c2e" transform="translate(-71.246 -126.808)"/><path d="M519.576 438.576c31.974-16.2 49.845-24.321 62.757-28.516 10.135-3.293 11-5.14 11-23.483 0-17.842.115-17.637-12.666-22.651-4.4-1.726-8.6-3.56-9.334-4.075-.733-.515-6.729-3.166-13.323-5.892s-16.422-7.03-21.838-9.566c-24.673-11.552-56.214-21.325-61.876-19.172-1.796.683-3.647 2.236-4.114 3.453-1.176 3.065-1.03 30.318.172 32.16.538.826 5.758 3.41 11.599 5.741 5.84 2.332 11.25 4.764 12.021 5.404 1.381 1.146 19.811 8.936 31.182 13.18 9.196 3.433 8.757 4.041-7.823 10.837-5.5 2.255-14.5 6.129-20 8.609s-12.93 5.538-16.511 6.797c-11.472 4.031-11.916 5.006-10.814 23.737.524 8.907 1.56 16.944 2.302 17.861.773.955 4.374 1.667 8.43 1.667 6.405 0 10.104-1.533 38.836-16.091" style="fill:#fff" transform="translate(-71.246 -126.808)"/></svg>