<?xml version="1.0" standalone="no"?>
<!DOCTYPE svg PUBLIC "-//W3C//DTD SVG 20010904//EN"
 "http://www.w3.org/TR/2001/REC-SVG-20010904/DTD/svg10.dtd">
<svg version="1.0" xmlns="http://www.w3.org/2000/svg"
 width="301.000000pt" height="301.000000pt" viewBox="0 0 301.000000 301.000000"
 preserveAspectRatio="xMidYMid meet">
<metadata>
Created by potrace 1.16, written by Peter Selinger 2001-2019
</metadata>
<g transform="translate(0.000000,301.000000) scale(0.100000,-0.100000)"
fill="#000000" stroke="none">
<path d="M0 1505 l0 -1505 1505 0 1505 0 0 1505 0 1505 -1505 0 -1505 0 0
-1505z m2536 1080 c13 -17 14 -82 11 -433 -5 -468 0 -441 -87 -450 -43 -4 -53
-9 -65 -32 -30 -58 -179 -152 -320 -203 -174 -62 -402 -79 -570 -43 -152 34
-312 110 -422 203 -75 63 -111 75 -194 67 -63 -6 -69 -8 -69 -29 0 -35 91
-128 175 -181 356 -221 902 -242 1295 -48 99 49 126 68 199 141 80 79 86 83
128 83 118 0 130 -78 27 -169 -147 -129 -427 -232 -729 -267 -168 -20 -536
-14 -734 11 -331 42 -582 121 -752 236 -136 92 -145 175 -20 187 l50 4 73 -69
c103 -97 264 -175 438 -214 25 -5 54 -12 65 -15 33 -10 4 12 -33 24 -57 19
-220 122 -278 175 -30 27 -66 69 -80 92 -24 42 -25 43 -90 47 -50 3 -70 9 -80
23 -11 15 -14 87 -14 365 0 322 1 348 18 363 15 14 194 85 352 141 40 13 142
15 868 13 811 -2 824 -2 838 -22z m-775 -1685 c27 -15 25 -64 -3 -84 -36 -26
-98 -2 -98 37 0 46 55 71 101 47z m289 -80 c0 -44 2 -80 4 -80 2 0 17 7 32 15
34 17 110 20 151 4 34 -13 80 -55 99 -91 17 -32 18 -125 3 -165 -36 -95 -160
-142 -251 -93 -30 16 -37 17 -42 5 -3 -10 -20 -15 -46 -15 l-40 0 0 250 0 250
45 0 45 0 0 -80z m-1040 -59 c21 -6 26 -14 28 -48 l3 -40 -63 14 c-53 12 -70
12 -103 1 -44 -14 -85 -65 -85 -105 0 -37 27 -81 60 -98 33 -17 126 -20 164
-5 25 9 26 9 26 -34 0 -42 -1 -44 -37 -50 -84 -13 -148 -7 -204 22 -67 34 -99
83 -99 157 0 119 86 196 219 194 36 -1 77 -4 91 -8z m261 -1 c10 0 19 -7 19
-15 0 -19 5 -19 35 1 13 9 51 18 85 21 l60 6 0 -41 0 -41 -82 -3 -83 -3 -3
-107 -3 -108 59 0 58 0 0 -35 0 -35 -148 0 -148 0 0 35 c0 34 1 35 40 35 l40
0 0 110 0 110 -40 0 c-39 0 -40 1 -40 34 0 35 0 35 53 39 28 2 58 2 65 0 8 -2
22 -3 33 -3z m549 -290 l50 0 0 -35 0 -35 -155 0 -155 0 0 35 0 35 60 0 60 0
0 110 0 110 -55 0 -55 0 0 35 0 34 98 3 97 3 3 -147 3 -148 49 0z"/>
<path d="M998 2155 l-3 -355 723 0 722 0 0 355 0 355 -720 0 -720 0 -2 -355z
m242 20 l0 -265 -55 0 -55 0 0 259 0 260 53 4 c28 2 53 4 55 5 1 1 2 -117 2
-263z m218 -2 l2 -263 -55 0 -54 0 -3 261 c-2 143 -2 261 -1 262 1 1 25 2 55
2 l53 0 3 -262z m212 255 c0 -5 0 -123 0 -263 l0 -255 -50 0 -50 0 0 265 0
265 50 -2 c28 -2 50 -6 50 -10z m218 -255 l2 -263 -55 0 -55 0 0 263 0 262 53
0 52 0 3 -262z m222 3 l0 -266 -55 0 -55 0 0 258 c0 142 2 261 4 263 2 2 27 5
55 7 l51 3 0 -265z m220 -3 l0 -263 -55 0 -55 0 0 265 0 265 55 -3 55 -2 0
-262z"/>
<path d="M723 2447 l-133 -52 0 -297 0 -298 140 0 140 0 0 350 c0 193 -3 350
-7 349 -5 0 -68 -24 -140 -52z"/>
<path d="M1290 1639 c8 -5 46 -26 84 -45 184 -95 417 -99 601 -10 142 69 158
65 -295 66 -280 0 -400 -3 -390 -11z"/>
<path d="M2105 689 c-44 -13 -55 -35 -55 -111 0 -88 17 -108 91 -108 42 0 55
5 79 28 60 61 44 156 -31 186 -44 18 -42 18 -84 5z"/>
</g>
</svg>
