<?xml version="1.0" standalone="no"?>
<!DOCTYPE svg PUBLIC "-//W3C//DTD SVG 20010904//EN"
 "http://www.w3.org/TR/2001/REC-SVG-20010904/DTD/svg10.dtd">
<svg version="1.0" xmlns="http://www.w3.org/2000/svg"
 width="315.000000pt" height="315.000000pt" viewBox="0 0 315.000000 315.000000"
 preserveAspectRatio="xMidYMid meet">
<metadata>
Created by potrace 1.16, written by Peter Selinger 2001-2019
</metadata>
<g transform="translate(0.000000,315.000000) scale(0.100000,-0.100000)"
fill="#000000" stroke="none">
<path d="M860 2771 c-146 -48 -374 -133 -387 -144 -10 -7 -13 -98 -13 -392 l0
-382 62 -7 c80 -10 93 -17 122 -74 48 -95 186 -198 371 -278 66 -28 17 -28
-92 1 -189 51 -375 159 -443 259 -29 41 -67 52 -116 31 -40 -16 -59 -52 -50
-92 11 -41 109 -131 198 -182 117 -65 332 -140 473 -164 274 -47 478 -61 763
-54 361 10 593 57 817 167 154 76 285 193 285 256 0 34 -40 71 -86 80 -33 6
-40 4 -53 -17 -41 -61 -171 -178 -251 -224 -199 -116 -434 -176 -688 -176
-274 1 -508 68 -724 210 -97 63 -152 113 -168 152 -12 27 -11 33 8 51 22 22
101 35 146 24 14 -3 56 -33 93 -67 85 -75 249 -158 388 -196 91 -24 115 -27
280 -27 162 0 190 3 276 26 191 52 329 123 429 222 l60 59 74 5 c74 5 74 5 80
36 9 49 2 869 -7 888 -5 10 -16 19 -25 22 -10 3 -404 7 -877 10 l-860 6 -85
-29z m1730 -466 l0 -385 -785 0 -785 0 0 385 0 385 785 0 785 0 0 -385z
m-1690 -5 l0 -381 -157 3 -158 3 -3 322 -2 321 42 16 c24 9 90 34 148 55 58
22 111 40 118 40 9 1 12 -81 12 -379z m1210 -549 c0 -18 -96 -72 -175 -98
-182 -59 -447 -20 -585 87 -25 19 -23 20 368 20 227 0 392 -4 392 -9z"/>
<path d="M1650 2320 l0 -290 55 0 55 0 0 290 0 290 -55 0 -55 0 0 -290z"/>
<path d="M1890 2320 l0 -290 50 0 50 0 0 290 0 290 -50 0 -50 0 0 -290z"/>
<path d="M1170 2315 l0 -285 50 0 50 0 1 128 c0 70 1 198 2 285 l2 157 -52 0
-53 0 0 -285z"/>
<path d="M1420 2315 l0 -285 50 0 50 0 0 285 0 285 -50 0 -50 0 0 -285z"/>
<path d="M2130 2315 l0 -285 50 0 50 0 0 285 0 285 -50 0 -50 0 0 -285z"/>
<path d="M2360 2315 l0 -285 50 0 50 0 0 285 0 285 -50 0 -50 0 0 -285z"/>
<path d="M1762 927 c-27 -29 -28 -51 -2 -77 29 -29 83 -27 108 5 50 64 -50
131 -106 72z"/>
<path d="M2072 942 c-9 -7 -12 -70 -10 -283 l3 -274 33 -3 c34 -3 66 13 56 29
-8 14 2 11 43 -13 28 -17 53 -23 98 -23 134 1 216 96 202 233 -12 111 -100
187 -208 180 -31 -2 -68 -12 -83 -21 -14 -10 -29 -17 -33 -17 -4 0 -7 41 -8
90 0 69 -4 93 -15 100 -18 12 -60 13 -78 2z m284 -276 c30 -30 34 -40 34 -85
0 -44 -5 -56 -33 -88 -30 -32 -39 -36 -82 -35 -65 1 -97 26 -109 85 -19 97 25
156 118 157 30 0 45 -7 72 -34z"/>
<path d="M837 776 c-50 -18 -104 -61 -123 -98 -27 -52 -29 -128 -6 -181 23
-52 83 -101 146 -118 40 -11 216 -6 237 6 5 4 9 24 9 47 l0 40 -57 -7 c-133
-17 -199 -1 -228 55 -34 66 -5 141 65 170 27 11 154 11 200 -1 11 -3 16 7 18
38 3 41 2 42 -35 52 -53 15 -180 13 -226 -3z"/>
<path d="M1220 781 c-45 -6 -45 -6 -45 -46 l0 -40 45 -5 45 -5 3 -107 3 -107
-48 -3 -48 -3 -3 -42 -3 -43 160 0 161 0 0 40 c0 25 -5 40 -12 41 -7 1 -17 2
-23 4 -5 1 -27 3 -47 3 l-38 2 0 65 c0 113 41 155 150 155 l51 0 -3 48 c-3 45
-4 47 -35 50 -46 5 -107 -15 -142 -44 l-30 -25 -7 25 c-4 19 -16 28 -43 36
-20 5 -38 9 -41 8 -3 0 -25 -4 -50 -7z"/>
<path d="M1644 756 c-12 -50 2 -65 64 -68 l57 -3 3 -107 3 -107 -63 -3 -63 -3
0 -40 0 -40 165 0 165 0 3 34 c4 41 -8 51 -65 51 l-43 0 0 155 0 155 -110 0
c-108 0 -110 0 -116 -24z"/>
</g>
</svg>
