<?xml version="1.0" standalone="no"?>
<!DOCTYPE svg PUBLIC "-//W3C//DTD SVG 20010904//EN"
 "http://www.w3.org/TR/2001/REC-SVG-20010904/DTD/svg10.dtd">
<svg version="1.0" xmlns="http://www.w3.org/2000/svg"
 width="292.000000pt" height="292.000000pt" viewBox="0 0 292.000000 292.000000"
 preserveAspectRatio="xMidYMid meet">
<metadata>
Created by potrace 1.16, written by Peter Selinger 2001-2019
</metadata>
<g transform="translate(0.000000,292.000000) scale(0.100000,-0.100000)"
fill="#000000" stroke="none">
<path d="M846 2172 c-37 -5 -384 -129 -413 -148 l-23 -14 0 -365 0 -365 43 -1
c73 -1 109 -19 135 -69 13 -25 40 -62 60 -83 47 -49 167 -129 226 -152 25 -10
46 -22 46 -27 0 -23 -184 33 -295 90 -48 25 -94 60 -147 114 -67 68 -82 78
-113 78 -42 0 -75 -29 -75 -66 0 -117 282 -275 604 -338 231 -46 312 -55 586
-63 427 -12 768 59 990 208 67 45 145 124 159 162 21 56 -15 97 -88 97 -34 0
-42 -5 -60 -33 -25 -41 -110 -122 -171 -164 -177 -120 -419 -187 -675 -186
-213 1 -421 54 -599 155 -258 145 -314 258 -128 258 62 0 64 -1 116 -50 184
-174 501 -262 789 -219 206 30 370 105 488 222 54 53 60 55 122 62 l66 7 5 42
c3 22 4 215 3 428 -2 357 -3 389 -20 405 -17 17 -63 18 -810 19 -436 0 -805
-2 -821 -4z m1540 -454 l2 -368 -724 0 -724 0 0 363 c0 200 3 367 7 370 3 4
329 6 722 5 l716 -3 1 -367z m-1566 -8 l0 -361 -147 3 -148 3 0 309 0 309 140
48 c77 26 143 48 148 48 4 1 7 -161 7 -359z m1107 -535 c-66 -58 -155 -87
-282 -92 -131 -6 -212 10 -313 61 -134 67 -139 66 269 66 l364 -1 -38 -34z"/>
<path d="M1080 1737 l0 -263 48 2 47 2 3 261 2 261 -50 0 -50 0 0 -263z"/>
<path d="M1310 1995 c0 -3 0 -121 -1 -262 l0 -257 46 -1 45 0 0 263 0 262 -45
0 c-25 0 -45 -2 -45 -5z"/>
<path d="M1525 1987 c-3 -7 -4 -125 -3 -262 l3 -250 47 0 48 0 0 263 0 262
-45 0 c-28 0 -48 -5 -50 -13z"/>
<path d="M1742 1738 l3 -263 45 1 45 1 3 261 2 262 -50 0 -50 0 2 -262z"/>
<path d="M1960 1738 l0 -263 42 1 c24 1 44 4 46 8 1 3 2 121 2 261 l0 255 -45
0 -45 0 0 -262z"/>
<path d="M2174 1991 c-5 -6 -5 -506 0 -512 3 -2 25 -3 50 -1 l46 4 0 253 0
253 -46 4 c-25 2 -47 1 -50 -1z"/>
</g>
</svg>
