<?xml version="1.0" standalone="no"?>
<!DOCTYPE svg PUBLIC "-//W3C//DTD SVG 20010904//EN"
 "http://www.w3.org/TR/2001/REC-SVG-20010904/DTD/svg10.dtd">
<svg version="1.0" xmlns="http://www.w3.org/2000/svg"
 width="313.000000pt" height="313.000000pt" viewBox="0 0 313.000000 313.000000"
 preserveAspectRatio="xMidYMid meet">
<metadata>
Created by potrace 1.16, written by Peter Selinger 2001-2019
</metadata>
<g transform="translate(0.000000,313.000000) scale(0.100000,-0.100000)"
fill="#000000" stroke="none">
<path d="M690 2614 c-118 -41 -222 -81 -230 -90 -13 -12 -15 -70 -17 -379 l-3
-365 60 0 c76 0 104 -13 126 -61 33 -74 168 -179 320 -251 46 -21 84 -41 84
-43 0 -8 -80 9 -170 37 -152 48 -263 110 -352 198 l-77 75 -52 -5 c-83 -9
-100 -49 -49 -119 61 -83 240 -189 425 -250 102 -34 302 -72 510 -98 213 -26
616 -23 795 5 250 40 457 111 606 208 119 78 173 147 159 201 -7 28 -53 53
-97 53 -28 0 -39 -8 -68 -47 -102 -137 -341 -265 -600 -320 -93 -20 -147 -25
-280 -26 -186 -2 -258 8 -430 60 -181 54 -427 193 -476 268 -36 54 5 95 97 95
56 0 79 -12 156 -81 70 -62 252 -152 368 -181 78 -20 117 -23 290 -23 244 0
316 15 504 107 103 49 135 71 186 123 54 54 70 64 109 70 46 7 97 0 106 -15 3
-4 4 193 2 438 -3 440 -3 447 -24 469 l-21 23 -871 -1 -871 -1 -215 -74z
m1870 -384 l0 -370 -770 0 -770 0 0 370 0 370 770 0 770 0 0 -370z m-1670 -10
l0 -360 -160 0 -160 0 0 304 0 304 113 41 c172 63 191 70 200 70 4 1 7 -161 7
-359z m1217 -525 c-6 -17 -79 -61 -147 -88 -174 -68 -390 -50 -566 47 -32 18
-59 37 -61 42 -2 5 150 9 387 9 256 0 389 -3 387 -10z"/>
<path d="M1870 2235 l0 -270 50 -1 50 -1 0 271 0 271 -50 0 -50 0 0 -270z"/>
<path d="M2110 2233 l0 -273 50 0 50 0 0 273 0 272 -50 0 -50 0 0 -272z"/>
<path d="M2340 2235 l0 -270 50 0 50 0 0 270 0 270 -50 0 -50 0 0 -270z"/>
<path d="M1160 2230 l0 -270 50 0 50 0 0 270 0 270 -50 0 -50 0 0 -270z"/>
<path d="M1400 2232 l0 -267 50 -2 50 -1 0 269 0 269 -50 0 -50 0 0 -268z"/>
<path d="M1632 2233 l3 -268 50 0 50 0 3 268 2 267 -55 0 -55 0 2 -267z"/>
<path d="M1737 972 c-22 -25 -21 -44 4 -76 24 -30 63 -34 97 -10 27 19 29 64
4 87 -25 23 -85 22 -105 -1z"/>
<path d="M2032 718 l3 -273 37 -3 c30 -3 38 1 43 18 6 20 8 20 24 6 25 -23
104 -35 154 -24 97 22 147 87 147 191 0 105 -53 177 -144 198 -50 11 -71 7
-148 -26 -16 -6 -18 1 -18 89 l0 96 -50 0 -50 0 2 -272z m251 21 c59 -27 77
-133 32 -187 -45 -54 -144 -50 -175 7 -26 49 -4 156 37 180 24 14 76 14 106 0z"/>
<path d="M881 830 c-100 -21 -164 -98 -164 -197 0 -155 141 -229 356 -187 24
5 27 10 27 43 l0 37 -111 -1 -111 0 -29 33 c-23 25 -29 42 -29 76 0 90 71 131
195 114 33 -5 65 -6 72 -3 21 7 16 63 -6 74 -28 15 -149 22 -200 11z"/>
<path d="M1475 834 c-11 -3 -30 -7 -42 -9 -12 -3 -35 -17 -52 -31 -30 -25 -31
-25 -31 -5 0 29 -29 41 -103 41 -69 0 -77 -6 -77 -56 0 -21 4 -24 38 -24 21 0
43 -5 50 -12 8 -8 12 -48 12 -114 l0 -103 -47 -3 c-48 -3 -48 -3 -48 -38 l0
-35 153 -3 153 -3 -3 38 -3 38 -52 3 -53 3 0 83 c0 74 3 85 23 104 28 26 77
42 129 42 38 0 38 0 38 40 0 25 -5 40 -12 40 -7 0 -22 2 -33 4 -11 2 -29 2
-40 0z"/>
<path d="M1642 818 c-5 -7 -8 -25 -5 -40 5 -27 13 -31 93 -41 12 -2 15 -22 15
-110 l0 -107 -58 0 -58 0 3 -37 3 -38 158 -3 157 -3 0 41 0 40 -50 0 -49 0 -3
153 -3 152 -96 3 c-69 2 -99 -1 -107 -10z"/>
</g>
</svg>
