<?xml version='1.0' encoding='utf-8'?>
<svg xmlns="http://www.w3.org/2000/svg" xmlns:inkscape="http://www.inkscape.org/namespaces/inkscape" xmlns:sodipodi="http://sodipodi.sourceforge.net/DTD/sodipodi-0.dtd" version="1.1" id="svg1" width="1602.0144" height="1296.766" viewBox="0 0 1602.0144 1296.766" sodipodi:docname="logo-4.svg">
  <defs id="defs1" />
  <sodipodi:namedview id="namedview1" pagecolor="none" bordercolor="#000000" borderopacity="0.25" inkscape:showpageshadow="2" inkscape:pageopacity="0.0" inkscape:pagecheckerboard="0" inkscape:deskcolor="#d1d1d1" />
  <g inkscape:groupmode="layer" inkscape:label="Image" id="g1" transform="translate(-71.245954,-126.80779)">
    <g id="g2">
      <path style="fill:#44a096" d="m 523.99998,1423.1099 c -14.29288,-1.4191 -32.82028,-5.0745 -43.59114,-8.6003 -25.24914,-8.2652 -51.41464,-30.9012 -61.19948,-52.9443 -3.95621,-8.9124 -8.54271,-32.3132 -8.54271,-43.5857 0,-11.0455 4.18306,-32.5356 8.30912,-42.6875 4.83107,-11.8865 9.61476,-18.7796 21.55932,-31.0662 11.82148,-12.16 25.30282,-21.3571 37.56116,-25.6246 23.09521,-8.04 66.49023,-12.3678 92.41137,-9.2161 15.50754,1.8855 39.55408,8.5477 52.15902,14.4508 4.5947,2.1517 4.66489,2.3086 4.55179,10.1747 -0.10173,7.0753 -4.25191,29.55 -6.56519,35.5529 -1.49196,3.8715 -4.51791,3.828 -11.01615,-0.1585 -9.20806,-5.6489 -17.89745,-8.741 -33.48944,-11.9169 -17.14016,-3.4912 -44.75502,-3.8804 -56.86754,-0.8015 -13.10746,3.3319 -27.13879,10.9728 -35.51181,19.3384 -6.40482,6.3991 -8.01051,9.025 -10.46984,17.1218 -2.47205,8.1386 -2.83092,11.9936 -2.40879,25.8749 0.4291,14.1107 0.96043,17.3092 3.93799,23.7057 7.10857,15.271 17.25206,22.2827 40.50565,27.9998 19.20116,4.7207 40.14692,5.0029 60.66666,0.8172 18.53568,-3.7809 25.17339,-5.8615 32.02492,-10.0382 5.37715,-3.278 12.26831,-3.6994 14.5976,-0.8928 2.18663,2.6347 8.78424,35.5347 7.69512,38.3729 -1.43161,3.7307 -23.24414,13.622 -38.31764,17.3759 -22.10121,5.504 -51.32173,8.4035 -67.99999,6.7476 z m 707.33332,-1.8026 c -15.9607,-3.119 -29.6448,-7.9788 -37.6178,-13.3597 -3.2171,-2.1712 -6.256,-3.9476 -6.7532,-3.9476 -0.4972,0 -3.0978,2.4 -5.7791,5.3333 l -4.8752,5.3334 h -21.4087 c -14.0507,0 -21.7182,-0.501 -22.3095,-1.4576 -0.4954,-0.8017 -0.7991,-62.4517 -0.6749,-137 0.1946,-116.7473 0.4977,-135.9584 2.1862,-138.5424 1.9079,-2.9198 2.5764,-3 25.0081,-3 17.8016,0 23.6368,0.4308 25.6359,1.8926 2.4646,1.8024 2.5663,3.4835 2.13,35.2156 -0.2519,18.3275 -0.031,37.8758 0.49,43.4406 1.1088,11.8325 2.3212,12.4876 11.568,6.2505 14.116,-9.5216 36.3595,-16.1327 54.2796,-16.1327 16.2966,0 36.2987,4.2308 50.0079,10.5776 29.0762,13.4609 43.3362,29.5688 53.196,60.0891 12.3718,38.2957 2.9378,90.833 -20.3371,113.2567 -16.7217,16.1101 -35.8219,26.4214 -57.1479,30.8514 -19.0279,3.9527 -31.8548,4.2758 -47.5983,1.1992 z m 33.1142,-44.7897 c 17.2307,-5.7383 32.7127,-19.8004 37.0025,-33.6088 0.8387,-2.6998 1.8004,-10.9088 2.1371,-18.2421 1.1033,-24.0295 -4.6865,-47.0098 -14.8813,-59.0656 -6.146,-7.2678 -19.8744,-12.8906 -37.8455,-15.5007 -14.3543,-2.0847 -43.309,6.3228 -54.5749,15.8468 -8.2523,6.9763 -8.3883,7.7458 -8.7287,49.3761 -0.1703,20.8252 0.015,38.7884 0.411,39.9182 1.7114,4.8788 21.3215,17.1817 35.3656,22.1874 10.6128,3.7828 28.189,3.3932 41.1142,-0.9113 z m -352.15087,40.0735 c -2.82007,-1.9753 -2.96334,-2.9699 -2.96334,-20.5715 0,-15.0366 0.39187,-18.8877 2.09524,-20.591 1.67923,-1.6793 5.84878,-2.1487 21,-2.3642 10.39762,-0.1479 22.54426,-0.1033 26.99254,0.099 5.48636,0.2497 8.54589,-0.1998 9.51205,-1.3977 1.67137,-2.0722 2.28717,-25.91 1.9634,-76.0039 -0.18556,-28.711 -0.59482,-35.9363 -2.12203,-37.4636 -1.42478,-1.4247 -8.09377,-2.1268 -27,-2.8424 -13.80933,-0.5227 -25.66207,-1.4983 -26.33942,-2.168 -0.67736,-0.6697 -1.31724,-8.8436 -1.42197,-18.1642 -0.16707,-14.8686 0.11216,-17.249 2.27728,-19.4141 2.32871,-2.3287 5.3247,-2.4464 53.19713,-2.0887 48.44309,0.362 50.81469,0.4957 52.62099,2.9673 1.5799,2.1619 1.8915,14.9299 1.8915,77.524 0,67.1017 0.2204,75.0204 2.109,75.7451 1.16,0.4452 12.8748,0.8094 26.033,0.8094 h 23.924 l 1.3904,3.6572 c 1.6081,4.2295 0.2519,38.3044 -1.672,42.0094 -1.1334,2.1827 -6.3552,2.3334 -80.86802,2.3334 -69.93731,0 -80.01797,-0.2533 -82.61975,-2.0756 z m -220.71779,-1.9973 c -2.65897,-2.1531 -2.73114,-3.6883 -3.22391,-68.5816 -0.27723,-36.5085 -0.99564,-68.8466 -1.59647,-71.8623 -1.65555,-8.3097 -6.21364,-24.3077 -10.10979,-35.4832 -4.55198,-13.0568 -5.25019,-16.8043 -3.34967,-17.9788 2.4105,-1.4898 17.36553,-4.3862 32.21794,-6.2398 13.42282,-1.6751 13.47513,-1.6705 15.97497,1.4167 1.37943,1.7035 2.50806,4.275 2.50806,5.7145 0,1.4394 1.44502,6.923 3.21116,12.1856 1.76615,5.2626 3.62891,11.7971 4.13948,14.5209 1.83723,9.8016 3.4625,9.3119 18.25344,-5.4997 14.77747,-14.7982 26.30161,-23.1617 39.72925,-28.833 15.46831,-6.5332 53.05643,-7.0018 66.74037,-0.832 3.25946,1.4696 7.92277,3.4106 10.36291,4.3133 8.62331,3.1902 8.9202,5.2799 3.66369,25.7877 -2.56638,10.0124 -5.43884,19.7781 -6.38323,21.7015 -2.26024,4.6033 -5.82267,6.8066 -8.19672,5.0696 -0.99714,-0.7296 -3.31136,-2.3893 -5.14271,-3.6883 -1.83135,-1.299 -9.26552,-3.8967 -16.52036,-5.7727 -10.27765,-2.6576 -15.25177,-3.2651 -22.52396,-2.7509 -12.38591,0.8759 -25.99375,6.1122 -36.66666,14.1094 -10.05713,7.5358 -14.85619,13.1853 -24.028,28.2861 l -6.63867,10.9301 -0.0488,14.7799 c -0.0914,27.6538 -1.34662,78.7647 -2.04082,83.097 -0.38047,2.3744 -1.71595,4.8552 -2.96772,5.5129 -1.25178,0.6577 -11.80874,1.4441 -23.45992,1.7476 -18.25303,0.4755 -21.56028,0.2472 -23.90383,-1.6505 z m 272.51881,-234.4112 c -0.7312,-1.3663 -1.4277,-11.3692 -1.54779,-22.2288 -0.19563,-17.6919 0.0335,-19.9287 2.20406,-21.5158 1.7968,-1.3139 8.47792,-1.7713 25.87086,-1.7713 31.30212,0 29.37522,-1.5414 29.37522,23.4966 0,10.7854 -0.6108,20.4865 -1.3803,21.9244 -1.2919,2.4139 -3.0383,2.579 -27.28641,2.579 -23.90698,0 -26.00877,-0.1917 -27.23564,-2.4841 z M 823.99996,1017.8403 c -4.76667,-0.2267 -23.66666,-1.0562 -42,-1.8433 -18.33333,-0.7872 -39.63333,-2.0131 -47.33333,-2.7244 -66.95181,-6.1842 -101.87616,-10.6877 -139.33332,-17.96685 -5.13334,-0.99757 -12.03334,-2.21153 -15.33334,-2.69768 -3.3,-0.48615 -11.7,-2.31816 -18.66666,-4.07113 -18.02546,-4.53562 -27.15723,-6.67052 -39.33333,-9.19564 -10.954,-2.27168 -24.76165,-5.41567 -44.66667,-10.17057 -18.95589,-4.52818 -38.42277,-11.59212 -57.22929,-20.76677 -28.17842,-13.74668 -37.66817,-20.91511 -42.27083,-31.93083 -2.22314,-5.32071 -2.6141,-54.24563 -0.47837,-59.86303 1.63382,-4.29725 3.19504,-4.17753 23.97849,1.83877 7.7,2.22897 20,5.34009 27.33334,6.9136 7.33333,1.57352 17.53333,3.99379 22.66666,5.37839 37.39634,10.08683 79.77292,18.77486 130,26.65256 9.9,1.55273 21.62097,3.64872 26.04662,4.65774 15.31163,3.49099 92.02248,13.67475 109.2867,14.50838 9.53334,0.46033 24.83333,1.40769 34,2.10524 64.52893,4.91043 167.08359,6.39738 221.99999,3.21881 17.6,-1.01869 34.09998,-2.15355 36.66668,-2.5219 2.5667,-0.36835 17.8438,-1.61862 33.9493,-2.77837 16.1054,-1.15975 29.6625,-2.3434 30.1268,-2.63033 0.4642,-0.28694 10.987,-1.74358 23.384,-3.237 30.1224,-3.62874 50.9753,-6.46617 53.6675,-7.30248 1.2131,-0.37685 8.5327,-1.56712 16.2656,-2.64505 7.7329,-1.07792 15.722,-2.5918 17.7535,-3.36416 2.0314,-0.77237 5.6415,-1.4043 8.0223,-1.4043 2.3808,0 8.7917,-1.15314 14.2465,-2.56252 5.4548,-1.40939 13.5178,-2.96001 17.9178,-3.44582 4.4,-0.48581 11.3,-1.7066 15.3333,-2.71287 7.4587,-1.86084 21.1748,-4.69323 38,-7.847 5.1334,-0.96221 12.3334,-2.66723 16,-3.78893 7.7929,-2.38399 16.6495,-4.71681 38.6931,-10.1917 8.8144,-2.18922 20.5144,-5.80927 26,-8.04455 11.6082,-4.73023 15.3546,-5.05456 17.26,-1.49427 1.6999,3.17623 1.7959,45.3554 0.1197,52.57986 -1.5136,6.52388 -6.5462,12.79104 -18.0973,22.53723 -26.3262,22.21237 -59.7529,36.63142 -111.9755,48.30205 -8.8,1.96661 -19.6,4.39767 -24,5.40236 -4.4,1.00468 -12.9269,2.43085 -18.9488,3.16926 -6.0218,0.73842 -13.8218,2.19524 -17.3333,3.23739 -3.5115,1.04215 -15.3845,3.19056 -26.3845,4.77424 -11,1.58369 -23.3,3.48249 -27.3334,4.21957 -11.8052,2.1574 -22.121,3.5951 -42,5.8535 -10.2666,1.1665 -22.5666,2.6859 -27.3333,3.3765 -4.7667,0.6907 -23.0666,2.1606 -40.6666,3.2664 -17.6,1.1059 -42.20005,2.7116 -54.66671,3.5682 -20.83145,1.4315 -123.11816,2.6028 -143.33333,1.6414 z m 638.55554,-18.39577 c -0.3056,-0.3055 -14.2633,-0.76831 -31.0172,-1.02845 -28.1932,-0.43777 -30.601,-0.66361 -32.3333,-3.03271 -1.4898,-2.03739 -1.8717,-9.43278 -1.8717,-36.24214 0,-34.48827 0.5161,-38.49006 5.3537,-41.5112 1.3735,-0.85778 10.1808,-2.84896 19.5718,-4.42486 29.7141,-4.98632 40.5232,-12.21939 50.6818,-33.91435 l 3.726,-7.95749 0.2828,-106 c 0.31,-116.15684 0.4519,-118.55328 8.4668,-142.99076 4.336,-13.2206 9.7305,-22.31167 19.6991,-33.19798 7.5238,-8.21653 27.1907,-22.35484 35.9987,-25.87909 6.6693,-2.66854 7.0771,-5.25247 1.2193,-7.72669 -5.606,-2.36786 -25.029,-16.82318 -33.9891,-25.29595 -8.0559,-7.61776 -18.6476,-23.60388 -22.6878,-34.24286 -1.5317,-4.03333 -4.036,-12.78256 -5.5651,-19.44273 -2.7093,-11.80088 -2.7713,-14.79018 -2.4357,-117.33333 L 1477.9999,254 l -4.2781,-9.03177 c -5.4563,-11.51895 -15.5051,-21.52689 -27.6271,-27.51472 -8.6124,-4.25422 -10.2607,-4.58719 -25.6403,-5.17966 -10.3426,-0.39842 -17.3046,-1.2682 -18.7787,-2.34603 -2.1397,-1.56458 -2.3424,-5.00751 -2.3424,-39.77272 0,-34.48934 0.2192,-38.27906 2.3365,-40.39636 2.1361,-2.13613 5.6806,-2.30748 41.3333,-1.99817 41.1841,0.35731 45.8322,0.87468 70.8315,7.8841 13.2373,3.71154 30.9579,13.18939 43.2384,23.12604 22.1492,17.92173 38.1274,49.4311 42.2051,83.22929 1.3523,11.20936 1.6858,37.29633 1.4147,110.66667 -0.3385,91.62507 -0.2345,96.51648 2.2821,107.33333 1.4502,6.23333 4.7679,15.42028 7.3725,20.41545 8.5027,16.30613 28.5604,31.62756 50.1235,38.28774 14.1041,4.35631 13.3679,1.88392 12.2463,41.12324 -0.5337,18.67159 -1.2522,34.68279 -1.5967,35.58045 -0.3444,0.89767 -5.2375,3.28125 -10.8734,5.29686 -31.9147,11.41379 -46.0806,24.87847 -55.7281,52.96937 l -3.3177,9.66022 0.2418,106 c 0.133,58.3 -0.211,109.9 -0.7644,114.66667 -1.1643,10.0269 -5.8474,28.33711 -9.7336,38.05679 -12.8506,32.13999 -44.0267,58.87394 -83.6118,71.69819 -11.1371,3.60805 -42.8318,7.63522 -44.7778,5.68955 z M 265.04308,997.18049 C 252.37562,995.39621 230.49944,989.56446 223.34727,986.06522 212.75885,980.8848 195.5482,967.62655 182.91638,954.91924 170.27737,942.2047 163.12001,930.39176 156.91199,912 c -8.30603,-24.60727 -8.023,-20.16483 -8.83451,-138.66667 -0.40928,-59.76666 -1.22511,-109.40946 -1.81295,-110.31732 -0.58784,-0.90786 -1.96745,-5.10786 -3.06582,-9.33333 -1.09836,-4.22548 -4.11828,-11.58268 -6.71094,-16.34935 -9.51002,-17.48439 -21.61886,-26.15253 -48.37899,-34.63219 -7.855359,-2.48918 -13.948955,-5.19362 -14.61275,-6.48539 -0.626228,-1.21866 -1.476747,-16.75148 -1.890043,-34.51738 -0.67386,-28.96652 -0.520231,-32.58616 1.487948,-35.0574 1.231667,-1.51567 7.246132,-4.8032 13.365479,-7.30561 13.750456,-5.62305 29.727066,-15.45747 37.125666,-22.85277 6.43185,-6.42897 11.39813,-15.59046 16.16268,-29.81592 l 3.34931,-10 0.40268,-105.33334 c 0.26723,-69.90307 0.90504,-108.24848 1.89621,-114 3.5889,-20.82563 15.36995,-48.38082 27.92671,-65.31896 11.90047,-16.05284 30.71475,-27.88812 60.01065,-37.7502 20.93907,-7.04886 31.38603,-8.08944 72.02462,-7.17406 27.23758,0.61352 35.50597,1.20239 36.93399,2.63041 1.44967,1.44967 1.96213,9.90723 2.41612,39.87525 0.52778,34.83933 0.3822,38.20402 -1.7326,40.04277 -1.62332,1.41143 -6.87851,2.255 -17.70034,2.84128 -25.09021,1.35927 -36.85343,6.5826 -46.05958,20.45225 -10.06772,15.16766 -9.67748,10.29134 -10.2939,128.62965 l -0.55096,105.77161 -3.50852,15.15605 c -6.0306,26.05093 -19.25059,46.53868 -38.70563,59.98428 -5.87344,4.0592 -14.16985,8.37431 -19.22643,10 -11.23216,3.61115 -12.07528,6.1253 -3.32452,9.91364 12.97161,5.61561 34.63832,23.59314 47.89432,39.73938 4.81847,5.86905 12.55702,21.59579 16.99586,34.53999 2.66077,7.75911 2.76486,11.4125 3.45714,121.33333 l 0.71376,113.33333 3.93131,9.33334 c 7.00542,16.63163 21.93735,28.42357 39.59689,31.27019 4.65949,0.75108 10.56784,1.97255 13.12967,2.71437 2.56182,0.74183 9.24535,1.34877 14.85228,1.34877 8.04757,0 10.85731,0.5364 13.34214,2.54712 l 3.14771,2.54712 0.39254,36.57382 c 0.35502,33.07755 0.17605,36.75343 -1.87219,38.45287 -1.8354,1.52285 -10.25111,1.90318 -44.39254,2.00623 -23.17029,0.0699 -45.55842,-0.35607 -49.75138,-0.94667 z M 859.33329,869.25303 c -28.6,-0.48638 -55.89999,-1.55522 -60.66666,-2.3752 -4.76667,-0.81998 -16.76667,-1.52315 -26.66667,-1.56259 -9.9,-0.0394 -24.3,-0.65324 -32,-1.36401 -7.69999,-0.71077 -24.79999,-2.2075 -37.99999,-3.32606 -13.2,-1.11857 -24.9,-2.30255 -26,-2.63109 -1.1,-0.32853 -14.6,-1.83688 -30,-3.35189 -15.4,-1.515 -37.6,-4.18661 -49.33333,-5.93691 -11.73333,-1.75029 -26.43333,-3.87128 -32.66667,-4.7133 -6.23333,-0.84203 -17.03333,-2.6334 -24,-3.98083 -6.96666,-1.34743 -19.86666,-3.75243 -28.66666,-5.34444 -8.8,-1.59201 -20.8,-3.99272 -26.66667,-5.33489 -23.6097,-5.40143 -35.16371,-7.91709 -45.33333,-9.87043 -41.36748,-7.94572 -55.17445,-11.60254 -58.75793,-15.56224 -2.09106,-2.3106 -2.25202,-20.72011 -2.31443,-264.72086 l -0.0671,-262.23757 3.10478,-2.5141 c 3.02962,-2.45324 14.53142,-2.5108 475.12618,-2.3781 259.61179,0.0748 480.38969,0.66363 490.61749,1.3085 14.0909,0.88845 19.1778,1.69892 20.9971,3.34536 2.2959,2.07773 2.4075,13.59918 2.55,263.16278 0.1418,248.48598 0.035,261.09208 -2.2202,263.12236 -4.4897,4.04099 -36.1683,14.63718 -59.0359,19.74694 -6.2334,1.39284 -14.9882,3.35314 -19.4552,4.35623 -4.467,1.00309 -8.7683,2.22339 -9.5585,2.71178 -0.7903,0.48838 -8.8355,2.06425 -17.8782,3.50193 -21.7199,3.45315 -38.6354,6.53037 -41.1081,7.47826 -3.9605,1.5182 -31.6991,5.97531 -49.3334,7.92702 -9.9,1.09571 -18.9,2.26384 -20,2.59586 -1.1,0.33201 -10.1,1.25082 -20,2.0418 -9.9,0.79097 -28.2,2.86709 -40.6666,4.61359 -12.4667,1.7465 -31.3667,3.81015 -42,4.5859 -63.35256,4.62183 -77.52834,5.76033 -85.33337,6.85334 -9.17146,1.28436 -21.51027,1.26702 -104.66666,-0.14714 z M 695.76803,467 c 2.33869,-1.99877 2.79003,-4.18774 3.14771,-15.26648 0.25842,-8.00398 -0.12879,-13.47957 -1.01594,-14.36684 -2.15419,-2.15446 -90.58123,-4.08435 -93.87485,-2.04878 -2.04802,1.26574 -1.76929,29.34897 0.30835,31.06753 2.72632,2.25512 7.80627,2.53895 49.18562,2.74813 35.88368,0.1814 39.7701,-0.0149 42.24911,-2.13356 z M 522.36826,433.46011 c 31.09049,-15.6348 51.22578,-24.8062 60.29838,-27.46524 7.18359,-2.1054 8.00162,-4.0055 7.97958,-18.53485 -0.0112,-7.40301 -0.46123,-14.15037 -1,-14.99412 -0.53877,-0.84376 -7.57958,-4.36599 -15.64625,-7.82717 -8.06666,-3.46119 -20.66666,-8.98146 -28,-12.26726 -24.87371,-11.14501 -33.9552,-14.78707 -45.65615,-18.31004 -6.42245,-1.93369 -13.51978,-4.08857 -15.77184,-4.78862 -6.0996,-1.89604 -9.67482,-1.55014 -10.96157,1.06052 -0.63254,1.28334 -1.0804,8.21959 -0.99527,15.41389 0.16413,13.86885 0.52326,14.67442 7.34859,16.48367 1.81339,0.4807 7.21339,2.80165 12,5.15767 4.7866,2.35603 12.00291,5.6117 16.03625,7.23484 4.03333,1.62313 10.03333,4.09461 13.33333,5.49218 3.3,1.39757 8.4,3.29379 11.33333,4.21382 6.4609,2.02645 8.15897,6.88165 3.09105,8.83808 -40.22521,15.52859 -61.24463,24.62814 -62.55791,27.08202 -0.80586,1.50577 -0.77306,5.40527 0.0902,10.72494 0.74607,4.59739 1.36102,10.80889 1.36656,13.80334 0.006,2.99444 0.46007,5.90173 1.01007,6.46063 2.81516,2.86072 14.52222,-1.59591 46.70162,-17.7783 z" id="path4" />
      <path style="fill:#3d9d92" d="m 1235.9999,1419.1621 c -18.158,-2.6344 -35.2142,-8.6037 -43.8464,-15.3454 -4.7529,-3.7119 -7.5693,-3.054 -12.3401,2.8826 l -4.3121,5.3659 -20.5691,-0.3659 -20.5691,-0.366 0.4126,-62.6666 c 0.2269,-34.4667 0.3067,-94.9776 0.1773,-134.4687 -0.1544,-47.0984 0.2365,-72.6837 1.1361,-74.3645 1.2834,-2.3982 2.8427,-2.5392 24.3078,-2.198 l 22.9364,0.3645 0.7287,45.3333 c 0.4008,24.9334 0.8508,45.4834 1,45.6667 1.2935,1.5893 7.4961,-0.6523 15.4232,-5.5739 12.8363,-7.9694 20.4553,-10.7581 37.0743,-13.5698 13.3989,-2.267 14.876,-2.2705 31.6384,-0.075 9.6709,1.2666 20.7076,3.5073 24.526,4.9794 29.0512,11.1996 46.8854,27.3014 56.0138,50.5727 7.0089,17.8681 7.9116,22.5725 8.5707,44.6667 0.7655,25.662 -1.5324,37.7299 -10.9014,57.2505 -5.064,10.5511 -7.4682,13.7843 -16.7259,22.4932 -18.4554,17.3616 -35.961,25.4932 -63.6724,29.5769 -15.5081,2.2854 -14.1143,2.2925 -31.0088,-0.1585 z m 33.3334,-41.0458 c 17.383,-7.4438 30.1037,-20.4584 34.8258,-35.6305 3.3541,-10.7768 3.3448,-32.2591 -0.021,-48.567 -5.9792,-28.9704 -19.6206,-41.8743 -48.6149,-45.9864 -24.5135,-3.4767 -57.0358,7.6549 -67.1887,22.997 l -3.4717,5.246 -0.3343,38.7254 c -0.1839,21.2989 0.072,39.787 0.5686,41.0846 1.6402,4.2861 20.3386,17.3335 30.0552,20.972 13.0592,4.8901 17.6897,5.6644 31.5143,5.2698 11.795,-0.3367 15.365,-0.9842 22.6667,-4.1109 z m -759.59554,40.5703 c -10.46118,-1.4891 -31.23936,-7.0136 -39.07112,-10.3882 -8.37522,-3.6088 -26.57903,-17.6142 -34.69054,-26.6897 -13.0467,-14.5973 -18.62818,-27.9401 -21.41697,-51.1985 -1.49592,-12.4759 -1.42787,-16.113 0.5449,-29.1227 3.76231,-24.811 11.29798,-39.7164 28.95888,-57.28 12.35895,-12.2909 23.39819,-18.9086 39.93707,-23.941 19.94469,-6.0688 31.14013,-7.92 53.33333,-8.8185 27.97296,-1.1326 47.03864,1.8346 74.80608,11.6418 10.32636,3.6471 13.18954,5.73 13.20584,9.6068 0.0177,4.1989 -6.82211,33.2515 -8.25352,35.0577 -0.90126,1.1373 -4.01639,0.1606 -11.60877,-3.6395 -17.68736,-8.8528 -29.9986,-11.1737 -59.48297,-11.2137 -29.69288,-0.04 -35.90377,1.4447 -53.01121,12.6756 -11.00657,7.2257 -16.75207,13.5544 -21.3502,23.5173 -2.66888,5.7827 -2.97192,8.5466 -2.97192,27.106 0,19.9029 0.13706,20.9457 3.70841,28.2182 7.07884,14.4149 18.78961,22.9285 40.29159,29.2918 9.40812,2.7842 13.26243,3.1463 32.66667,3.069 18.86659,-0.075 24.21727,-0.5951 37.56772,-3.6502 16.60696,-3.8003 21.23096,-5.4207 26.27875,-9.209 3.79337,-2.8469 8.57487,-3.0919 10.68649,-0.5476 2.06317,2.486 8.19317,32.4547 7.17906,35.0974 -1.76437,4.5979 -29.66123,15.355 -49.71202,19.1691 -8.91509,1.6958 -58.07295,2.6033 -67.59555,1.2479 z m 403.71026,-4.4385 c -1.5388,-1.5388 -2.08379,-32.3733 -0.63874,-36.1391 0.70146,-1.8279 4.47727,-2.1117 28.33333,-2.1294 15.1382,-0.011 28.18419,-0.4612 28.99107,-1 4.48279,-2.9933 4.70365,-6.5084 3.85636,-61.3761 -0.97285,-62.998 -0.39694,-60.181 -12.35416,-60.4277 -4.19976,-0.087 -15.73592,-0.5366 -25.63592,-1 l -18,-0.8425 -0.37382,-16.2647 c -0.33343,-14.5072 -0.11731,-16.3852 2,-17.3792 3.1784,-1.4922 96.58786,-2.1485 98.69136,-0.6935 1.2625,0.8733 1.8486,19.0026 2.4916,77.073 0.7395,66.7937 1.093,76.1317 2.9373,77.5978 1.4997,1.1921 8.8433,1.6666 25.7948,1.6666 22.8037,0 23.7555,0.1071 25.2157,2.8354 1.7477,3.2655 0.4267,33.6071 -1.6335,37.5191 -1.1652,2.2127 -5.9653,2.344 -79.7336,2.1814 -54.4805,-0.1201 -78.93672,-0.6161 -79.94178,-1.6211 z m -219.51367,-1.8363 c -1.8315,-1.8329 -4.18659,-104.8836 -2.65197,-116.0416 1.17552,-8.547 -1.54247,-23.1157 -9.46337,-50.7242 -3.42216,-11.9281 -5.96287,-21.9466 -5.64603,-22.2635 1.14261,-1.1426 39.75673,-7.6943 41.43777,-7.0308 1.39653,0.5512 6.8267,16.5752 12.98409,38.315 1.59373,5.6269 7.27713,5.2106 12.39914,-0.9083 7.94699,-9.4937 25.28222,-25.3624 32.45563,-29.7099 3.92713,-2.3801 10.90752,-5.9147 15.51197,-7.8547 8.00653,-3.3733 9.41863,-3.5271 32.37171,-3.5271 h 24 l 11.33334,4.6666 c 8.83129,3.6365 11.42464,5.308 11.74692,7.5715 0.44794,3.146 -6.68647,32.6423 -9.26329,38.2978 -1.95371,4.2879 -3.29721,4.3121 -10.66937,0.1917 -7.43556,-4.1558 -26.88563,-8.7276 -37.1304,-8.7276 -11.57016,0 -27.04315,5.3399 -38.22315,13.1913 -11.04633,7.7576 -17.71426,15.4186 -26.81502,30.8087 l -6.70183,11.3333 -0.87776,48.6667 c -0.48276,26.7666 -1.18512,49.7152 -1.56079,50.9969 -0.91697,3.1283 -3.41808,3.5233 -25.07792,3.9611 -13.03872,0.2635 -19.04548,-0.098 -20.15967,-1.2129 z m 272.58329,-234.5936 c -0.70155,-0.8441 -1.09514,-9.9986 -0.88855,-20.6667 l 0.37086,-19.1515 23.82554,-0.3647 c 16.44221,-0.2518 24.39611,0.1087 25.66671,1.1632 2.7015,2.2421 2.6515,37.5357 -0.056,39.783 -2.5548,2.1203 -47.09914,1.4252 -48.91826,-0.7633 z M 825.33329,1015.0863 c -40.61186,-1.3293 -80.22563,-3.2601 -90.88395,-4.4297 -6.84716,-0.7513 -27.14937,-2.9096 -45.11604,-4.7962 -51.68516,-5.427 -104.44093,-13.91854 -134.77863,-21.6938 -8.37175,-2.1456 -20.32136,-4.89872 -26.5547,-6.11805 -10.83531,-2.11954 -16.80328,-3.45202 -45.33333,-10.12162 -27.00199,-6.31239 -39.62674,-10.86028 -63.33333,-22.81495 -21.38005,-10.78145 -24.35523,-12.59713 -31.10694,-18.98383 -9.46025,-8.94883 -9.5622,-9.37343 -9.5393,-39.7286 0.0112,-14.88642 0.55487,-27.91044 1.20809,-28.94226 0.99407,-1.57023 3.54458,-1.21008 15.64625,2.20936 7.95221,2.24697 20.45857,5.39813 27.7919,7.00257 7.33334,1.60444 15.73334,3.50141 18.66667,4.21549 30.54256,7.43519 39.88909,9.79934 47.22454,11.94519 4.70684,1.37689 9.84383,2.50343 11.41555,2.50343 1.57172,0 7.32068,1.13508 12.77546,2.5224 5.45478,1.38732 13.21778,2.89547 17.25111,3.35146 4.03333,0.45598 10.93333,1.69612 15.33333,2.75586 8.07304,1.94439 26.81446,5.14936 44,7.52443 5.13334,0.70944 13.23333,2.13023 18,3.15731 9.87652,2.12812 40.73108,6.8483 52.66667,8.05703 4.4,0.44559 10.31801,1.41141 13.15114,2.14627 4.83078,1.253 27.73571,3.10796 79.51552,6.43959 12.1,0.77854 30.7,2.07325 41.33333,2.87712 10.63333,0.80388 47.83333,1.74651 82.66666,2.09474 69.65193,0.6963 76.38672,0.38355 177.33331,-8.23508 11.3667,-0.97047 27.8667,-2.72433 36.6667,-3.89747 8.8,-1.17315 23.2,-3.09148 32,-4.26296 18.8098,-2.50403 53.1654,-7.80514 62.6666,-9.66954 3.6667,-0.71951 14.4667,-2.82065 24,-4.66921 44.0039,-8.53258 54.3423,-10.6 68.6316,-13.72465 8.4141,-1.83989 15.7481,-3.62327 16.2979,-3.96306 0.5498,-0.33979 8.3656,-2.39947 17.3684,-4.57705 23.3419,-5.64588 34.8217,-8.94557 47.3143,-13.5997 15.4527,-5.75691 15.0577,-6.35672 15.0415,22.83577 -0.012,21.99447 -0.2184,23.94451 -3.2121,30.37406 -7.648,16.42591 -43.2746,38.90379 -82.7749,52.2252 -20.0338,6.75638 -72.7495,19.23455 -88.6667,20.98804 -4.0333,0.44432 -10.3333,1.61888 -14,2.61011 -3.6666,0.99124 -11.7497,2.48742 -17.9623,3.32485 -6.2126,0.83742 -11.6753,1.75723 -12.1394,2.04401 -0.464,0.28679 -8.1695,1.42838 -17.1233,2.53689 -8.9538,1.1085 -16.7498,2.30604 -17.3245,2.66119 -0.5746,0.35515 -9.6861,1.57756 -20.2476,2.71656 -10.5616,1.139 -25.5029,2.9521 -33.2029,4.0292 -19.6566,2.7497 -56.9123,5.4352 -119.99994,8.65 -24.16642,1.2315 -91.01481,1.4656 -122.66667,0.4296 z m 607.61591,-19.03708 c -25.0096,-0.58926 -30.6074,-1.06966 -31.6463,-2.71589 -0.706,-1.11872 -1.2711,-16.76978 -1.2825,-35.51895 -0.025,-40.42116 -0.6858,-38.66891 15.3314,-40.6349 15.1441,-1.85881 25.8827,-4.53592 34.4318,-8.58375 14.1536,-6.70139 26.0903,-23.78108 28.8964,-41.34632 0.9403,-5.88596 1.4227,-43.49447 1.3912,-108.46311 -0.032,-65.36566 0.4524,-102.88045 1.4125,-109.45297 1.724,-11.8018 7.0027,-30.08092 11.2729,-39.03586 8.1574,-17.10676 32.0185,-38.17662 51.4591,-45.43941 9.177,-3.42843 9.8612,-8.71173 1.4032,-10.83456 -4.7093,-1.18195 -27.6215,-17.57396 -35.8931,-25.67878 -10.3507,-10.14219 -19.1532,-24.55439 -23.4196,-38.34472 -6.7278,-21.7462 -6.6286,-19.44887 -5.3848,-124.66667 1.258,-106.4187 1.1149,-109.43877 -5.8326,-123.14909 -7.0226,-13.85837 -22.2216,-26.11431 -38.3106,-30.89222 -3.649,-1.08364 -11.9974,-1.96781 -18.6869,-1.9791 -6.6503,-0.0112 -12.9914,-0.58868 -14.0914,-1.28321 -2.8867,-1.82269 -3.7511,-71.37455 -0.9348,-75.22343 1.7475,-2.38834 3.9281,-2.51344 39.7253,-2.27904 20.8319,0.13641 41.4762,0.86694 45.8762,1.62341 24.8094,4.26531 43.2131,11.63821 61.3333,24.57132 25.8028,18.41651 41.1666,46.52689 46.6699,85.38973 1.7192,12.14016 2.04,30.81412 1.9336,112.55497 -0.1301,99.98775 0.038,103.87183 5.0752,117.33333 8.1925,21.89349 28.8321,40.36449 53.7483,48.10113 5.4485,1.6918 10.7392,3.81546 11.7572,4.71926 1.5474,1.37379 1.6567,7.27777 0.6667,36.00226 l -1.1842,34.35899 -10,3.52497 c -30.8882,10.88801 -46.9944,26.08692 -56.2775,53.10755 l -3.9576,11.51917 0.8113,96.66667 c 0.5048,60.14578 0.3088,102.75636 -0.5186,112.78538 -3.3497,40.60226 -14.8798,67.23889 -38.2265,88.31016 -13.2183,11.92999 -34.3666,23.77959 -53.1644,29.78861 -6.531,2.08771 -34.2906,6.4216 -39.3334,6.14081 -2.5666,-0.14292 -18.3395,-0.582 -35.0507,-0.97574 z M 255.99999,992.73848 c -26.46719,-5.65593 -34.55982,-9.09149 -51.52113,-21.87222 -17.1623,-12.93218 -31.37599,-28.713 -37.58191,-41.72551 -9.34669,-19.59802 -12.5085,-31.01687 -16.37571,-59.14075 -0.7483,-5.4419 -1.16537,-49.91541 -1.00033,-106.66667 L 149.80398,666 l -3.0332,-10 c -7.05268,-23.25163 -19.13598,-38.89426 -36.49306,-47.24268 -5.39145,-2.59318 -15.051014,-6.44591 -21.4657,-8.56162 -6.414686,-2.11571 -12.148623,-4.37526 -12.742083,-5.02122 -0.59346,-0.64596 -1.395611,-15.72527 -1.782558,-33.50957 l -0.703539,-32.33508 3.38789,-2.66492 C 78.835069,525.19921 80.953677,524 81.679747,524 c 2.836371,0 18.154174,-7.49485 27.830993,-13.61743 13.12913,-8.30688 21.52033,-17.38223 27.19219,-29.40926 8.87298,-18.81488 8.60857,-15.17742 9.32649,-128.30664 0.40087,-63.16922 1.21309,-106.7703 2.11121,-113.33334 4.14021,-30.25467 22.17377,-65.20149 41.7671,-80.93949 13.87956,-11.14851 42.25551,-23.23864 62.75892,-26.73965 12.63473,-2.15742 85.70229,-2.28614 87.47173,-0.1541 1.87982,2.26504 2.81096,73.88606 0.98913,76.08122 -0.9107,1.09733 -4.50705,1.75362 -9.62412,1.75628 -11.82796,0.006 -30.93514,3.66286 -38.09343,7.29024 -8.27246,4.19197 -16.09645,12.95335 -21.57259,24.15717 l -4.50405,9.215 -0.66667,110 c -0.36666,60.5 -1.14266,110.73476 -1.72443,111.63281 -0.58177,0.89805 -1.9336,6.2104 -3.00407,11.80523 -5.75023,30.05375 -32.25567,61.06027 -57.47861,67.23946 -3.04725,0.74652 -6.94725,2.51189 -8.66667,3.92304 -4.22429,3.46694 -2.25724,6.53481 6.44532,10.05233 10.86964,4.39344 21.63476,12.37749 35.85518,26.59234 11.65634,11.65178 14.23997,15.09161 19.5945,26.08812 12.09139,24.8319 11.5857,18.92234 11.62007,135.79263 0.0186,63.37413 0.56138,106.70389 1.41703,113.12823 2.65421,19.92807 12.82869,34.77812 29.37467,42.87351 10.37566,5.07646 18.48276,6.79382 38.4784,8.15104 13.16085,0.8933 15.55497,1.41787 17.51429,3.83753 1.99647,2.46554 2.28218,6.8522 2.37452,36.45733 0.0912,29.24417 -0.178,33.96722 -2.05427,36.04048 -1.99289,2.20212 -5.40449,2.37553 -44.28591,2.25103 -38.29609,-0.12263 -43.39971,-0.40693 -56.12668,-3.12663 z M 857.99996,866.65885 c -27.13333,-0.52314 -52.03333,-1.36126 -55.33333,-1.8625 -3.3,-0.50124 -19.5,-1.46745 -36,-2.14712 -16.5,-0.67968 -35.7,-1.83583 -42.66666,-2.56923 -6.96667,-0.7334 -19.26667,-1.93712 -27.33334,-2.67493 -38.25356,-3.49881 -95.08863,-10.09562 -103.99999,-12.07121 -2.93333,-0.6503 -11.03333,-1.80695 -18,-2.57033 -18.4935,-2.02645 -67.49145,-11.02703 -104.66666,-19.22655 -11.73334,-2.58795 -32.13333,-6.87105 -45.33333,-9.518 -28.47842,-5.71068 -37.74895,-8.31399 -41.30504,-11.59912 -2.60864,-2.40988 -2.64335,-5.36605 -3.08018,-262.34842 -0.43701,-257.09155 -0.41332,-259.93957 2.18414,-262.53703 2.60138,-2.60138 6.64075,-2.62621 431.74683,-2.65395 452.1216,-0.0295 547.9231,0.57436 551.4155,3.47574 1.8088,1.5027 2.0539,30.4183 2.2168,261.49185 0.1659,235.47673 -0.014,259.96629 -1.927,261.55357 -5.4263,4.50335 -37.7834,14.6569 -67.9178,21.31229 -7.3333,1.61962 -17.5333,4.03741 -22.6666,5.37287 -5.1334,1.33545 -12.9334,2.79349 -17.3334,3.24008 -4.4,0.4466 -11.9,1.64016 -16.6666,2.65236 -4.7667,1.0122 -14.3667,3.04835 -21.3334,4.52477 -21.4843,4.55311 -72.884,11.38999 -106.6666,14.18816 -5.5,0.45556 -15.2691,1.70796 -21.7091,2.78311 -10.7723,1.79844 -25.6986,3.16609 -78.2909,7.17358 -10.6333,0.81025 -26.53335,2.13033 -35.33335,2.93351 -20.90613,1.90812 -59.09691,2.25073 -119.99999,1.0765 z m -369.41998,-112.54897 5.24666,-2.17994 -2.97689,-2.08509 c -2.31438,-1.62106 -2.63983,-2.49125 -1.46234,-3.91004 1.19833,-1.4439 0.82429,-1.99819 -1.79139,-2.65468 -3.99531,-1.00276 -4.94699,-4.72485 -4.88697,-19.11346 0.0284,-6.81865 0.68706,-11.01899 2,-12.75484 2.8528,-3.77175 2.69978,-21.52678 -0.21061,-24.43718 -1.74189,-1.74188 -2.0111,-3.85066 -1.36916,-10.72497 0.43947,-4.70622 1.44961,-9.34066 2.24475,-10.29874 1.04775,-1.26247 0.98347,-2.48214 -0.23351,-4.43084 -1.35333,-2.16702 -1.34631,-3.31093 0.0361,-5.89407 1.1053,-2.06526 1.55674,-6.83769 1.26935,-13.41872 -0.24532,-5.61743 -0.0121,-10.21212 0.51832,-10.21041 0.5304,0.002 1.1304,8.8531 1.33334,19.66977 0.36119,19.25203 0.43222,19.67565 3.36897,20.09273 1.92795,0.27381 3,1.34587 3,3 0,1.85664 0.92892,2.57393 3.33334,2.57393 2.95933,0 3.33562,-0.561 3.35375,-5 0.0112,-2.75 0.46123,-4.33941 1,-3.53204 0.53877,0.80738 2.62958,1.77418 4.64625,2.14844 2.93044,0.54385 3.66666,0.18217 3.66666,-1.80129 0,-1.86864 -0.98822,-2.48177 -4,-2.48177 -3.40414,0 -4,-0.50914 -4,-3.41781 0,-3.05281 0.46278,-3.3732 4.33334,-3 l 4.33333,0.41781 v 11.00131 c 0,6.05072 0.45,11.00072 1,11 0.55,-7.2e-4 2.2,-1.20131 3.66667,-2.66798 2.14379,-2.14379 2.66666,-4.44444 2.66666,-11.73333 0,-9.51605 1.2615,-12.15698 5.93334,-12.42134 2.24911,-0.12727 2.31997,-0.26269 0.4,-0.76443 -3.51543,-0.91868 -3.14635,-7.89061 0.46775,-8.83572 2.70458,-0.70726 2.76828,-1.2294 1.84896,-15.15551 -0.58796,-8.90649 -1.63583,-15.20216 -2.73967,-16.46012 -1.08678,-1.23852 -1.9423,-6.20419 -2.18229,-12.66667 -0.28338,-7.63058 -0.86498,-10.5355 -2.06142,-10.29621 -1.22222,0.24444 -1.66667,-2.51111 -1.66667,-10.33334 0,-7.82222 0.44445,-10.57777 1.66667,-10.33333 1.16088,0.23218 1.78798,-2.22822 2.06641,-8.10746 0.3582,-7.56354 0.1157,-8.51507 -2.33333,-9.15551 -1.5032,-0.39309 -2.73308,-1.64749 -2.73308,-2.78755 0,-2.94084 3.96471,-6.94948 6.87332,-6.94948 1.73512,0 2.46001,-0.98223 2.46001,-3.33333 0,-2.81482 -0.62222,-3.33334 -4,-3.33334 -3.77778,0 -4,-0.29629 -4,-5.33333 0,-4.8 -0.33333,-5.33333 -3.33333,-5.33333 -2.69875,0 -3.33333,0.65834 -3.33333,3.45816 0,2.33682 -0.86469,3.68428 -2.66667,4.1555 -3.09075,0.80825 -3.63457,4.38634 -0.66667,4.38634 1.24445,0 2,1.25926 2,3.33333 0,1.83333 -0.6,3.33333 -1.33333,3.33333 -0.74013,0 -1.33333,3.54456 -1.33333,7.967 v 7.967 l -3.42064,-1.30052 c -2.24385,-0.85311 -4.27784,-0.84176 -5.91234,0.033 -3.58773,1.92009 -4.00036,1.71382 -4.00036,-1.99981 0,-2.05494 -0.75725,-3.33333 -1.97449,-3.33333 -1.56255,0 -1.80888,-1.20828 -1.18068,-5.79148 l 0.79381,-5.79148 -4.02091,0.59014 c -4.69237,0.68869 -4.96884,0.0968 -6.29886,-13.48553 -0.67885,-6.93242 -1.26932,-8.77107 -2.44052,-7.59944 -1.14304,1.14344 -1.61704,31.62178 -1.82186,117.14501 -0.15227,63.57969 -0.0112,116.37532 0.31355,117.32361 0.41252,1.2047 1.29936,1.34879 2.94352,0.47824 1.29421,-0.68526 4.71411,-2.22689 7.59978,-3.42586 z m 2.92594,-123.58015 c -1.08303,-5.41517 -0.40532,-6.26156 4.81019,-6.00745 3.73664,0.18205 4.41263,0.75121 4.79063,4.0335 0.4756,4.12973 -1.40486,6.05779 -5.9401,6.09047 -2.10911,0.0152 -3.04482,-1.03701 -3.66072,-4.11652 z m 19.47006,-75.86306 c 0,-2.56667 0.27439,-3.61667 0.60976,-2.33334 0.33537,1.28334 0.33537,3.38334 0,4.66667 -0.33537,1.28333 -0.60976,0.23333 -0.60976,-2.33333 z M 687.27941,753 c -1.7531,-13.20903 -2.01565,-14.0405 -4.65119,-14.72971 -2.02383,-0.52924 -2.83437,0.13615 -3.47547,2.85308 -0.45985,1.94881 -1.87452,4.7433 -3.14372,6.20996 -1.2692,1.46667 -2.62288,3.97305 -3.00817,5.56973 -0.58728,2.43371 0.0836,3.11203 4.14928,4.19553 2.66741,0.71086 6.20692,1.35448 7.86558,1.43027 2.7912,0.12755 2.95976,-0.28416 2.26369,-5.52886 z M 834.383,558.87008 833.99996,359.0735 l -12,0.5851 c -10.484,0.51118 -47.09811,-1.24855 -52.66666,-2.53124 -1.5825,-0.36452 -2.08271,1.27267 -2.39619,7.84286 -0.23045,4.83013 0.29311,9.57092 1.25163,11.33333 l 1.6478,3.02978 L 770.78535,376 c 0.80563,-2.83033 0.99266,-2.93093 1.23946,-0.66667 0.21149,1.9403 0.5679,1.57712 1.30849,-1.33333 l 1.01782,-4 0.17817,4 c 0.30646,6.88007 2.22563,8.31937 4.7036,3.5275 2.44928,-4.73638 4.76707,-5.49941 4.76707,-1.56935 0,1.56268 0.67958,2.36405 1.6794,1.98038 0.92366,-0.35444 4.52366,-0.11308 8,0.53637 l 6.3206,1.18082 v -5.15737 c 0,-4.55997 0.50195,-5.36614 4.33334,-6.95969 3.63662,-1.51255 4.75618,-1.51317 6.96334,-0.004 1.4465,0.98918 3.9965,1.7985 5.66666,1.7985 1.67016,0 4.1325,1.09584 5.47185,2.43519 1.33935,1.33936 3.48269,2.83715 4.76297,3.32844 2.13199,0.81812 2.27393,2.98049 1.68763,25.70866 -0.36328,14.08264 -1.22487,25.40013 -1.99211,26.16737 -0.74358,0.74357 -1.03414,2.18019 -0.64569,3.19246 1.08051,2.81578 -0.74459,8.50122 -2.72901,8.50122 -0.96995,0 -2.4826,2.4 -3.36145,5.33333 -1.5368,5.12938 -4.71636,6.99633 -7.37999,4.33333 -0.55012,-0.55 -3.50012,-1 -6.55555,-1 -4.9409,0 -5.59509,-0.36867 -5.91491,-3.33333 -0.97626,-9.0497 -1.88613,-12 -3.70083,-12 -1.46061,0 -1.93958,1.79937 -1.93958,7.28642 0,5.83927 -0.51222,7.56055 -2.57901,8.66667 -5.92419,3.17053 -6.75432,2.05458 -6.75432,-9.07977 0,-8.77735 -0.4303,-10.84943 -2.67484,-12.88072 -1.47117,-1.33138 -3.06596,-2.02958 -3.54399,-1.55155 -0.47803,0.47803 -1.67435,0.20089 -2.65849,-0.61588 -1.24937,-1.03688 -1.78935,-5.03329 -1.78935,-13.24307 0,-11.75315 1.2887,-15.39025 3.87751,-10.94348 1.07688,1.84976 1.37909,0.91696 1.39486,-4.30529 0.025,-8.27047 -1.38931,-11.07223 -4.00074,-7.92565 -1.26959,1.52977 -1.97053,7.34087 -2.29938,19.06312 -0.35975,12.82322 -1.09179,18.359 -3.05599,23.10971 -2.29481,5.55032 -2.58293,9.61198 -2.58293,36.41202 0,19.77037 0.45946,29.88089 1.33334,29.3408 0.73333,-0.45322 1.40293,0.56137 1.488,2.25465 0.13816,2.75018 0.22847,2.79415 0.84639,0.41202 0.67389,-2.59793 0.71545,-2.60044 1.61219,-0.0974 0.76425,2.13318 1.44294,1.48996 3.99883,-3.78979 1.99672,-4.12469 3.43288,-5.78538 4.08737,-4.72639 1.2963,2.09745 3.01624,-2.9781 3.18075,-9.38638 l 0.1198,-4.66667 8,0.35935 8,0.35935 v -5.69268 c 0,-5.6895 0.003,-5.69268 5.00087,-5.69268 4.61222,0 5.00081,-0.29606 5,-3.80932 -6.5e-4,-2.83846 0.50886,-3.61372 1.99913,-3.04185 1.25627,0.48208 2,-0.0137 2,-1.33333 0,-1.40005 -0.73004,-1.82066 -2.18859,-1.26097 -1.82997,0.70223 -1.91246,0.50712 -0.50341,-1.19068 3.61231,-4.35256 9.3826,-0.59278 9.16159,5.96948 -0.0748,2.22073 -0.31579,2.55451 -0.72203,1 -0.83473,-3.1942 -3.0809,-2.95118 -3.0809,0.33333 0,1.46667 0.85233,2.66667 1.89406,2.66667 1.04174,0 2.3054,1.87282 2.80815,4.16182 0.52367,2.38425 1.94921,4.43252 3.3376,4.79559 1.984,0.51883 2.56383,2.48434 3.19728,10.83818 0.42558,5.61242 1.3753,14.70441 2.11049,20.20441 1.64182,12.2825 1.63866,44.0764 -0.005,51.33333 -3.73397,16.48497 -4.39419,18.09963 -7.24175,17.71072 -2.20133,-0.30065 -3.01472,0.63925 -4.00044,4.62262 -0.6805,2.75 -1.77091,5 -2.42311,5 -2.78263,0 -6.34386,-2.95022 -6.34386,-5.25542 0,-3.39724 -4.8381,-2.11569 -5.79262,1.53438 -0.57803,2.21039 -1.55456,2.60001 -5.39338,2.15185 -4.62379,-0.53981 -4.69295,-0.47424 -5.08411,4.81955 -0.33399,4.51999 -0.9875,5.57346 -4.14173,6.67655 -4.74184,1.6583 -6.18836,-0.32061 -6.28166,-8.59358 -0.0663,-5.87746 -0.10658,-5.93192 -1.97317,-2.66667 -1.86289,3.25879 -1.90656,3.1974 -1.95275,-2.74516 -0.026,-3.34317 -0.83616,-7.15739 -1.80039,-8.47605 -1.64385,-2.2481 -1.90305,-2.16876 -4.15806,1.27281 -1.65919,2.53225 -2.73139,7.825 -3.45778,17.06871 -1.13936,14.49911 -0.007,46.97402 1.40279,40.21303 1.53919,-7.38413 3.02766,18.85941 2.30308,40.60605 -0.51366,15.41633 -1.28997,22.20352 -3.02975,26.48867 -1.94184,4.7828 -2.08165,6.62083 -0.82314,10.82135 1.8369,6.13103 1.97175,15.40767 0.27019,18.58706 -0.68519,1.2803 -1.67059,9.04085 -2.18977,17.24568 l -0.94395,14.91785 15.85643,-0.005 c 13.52534,-0.004 16.50204,-0.39861 20.24794,-2.68245 3.32305,-2.02603 5.00647,-2.34834 6.91908,-1.32474 1.72767,0.92462 2.80086,0.91054 3.39109,-0.0445 0.47493,-0.76846 3.81123,-1.22008 7.41399,-1.00361 5.06733,0.30447 6.55054,0.89674 6.55074,2.61581 2.6e-4,2.20281 1.74226,3.46966 5.04997,3.67251 1.39404,0.0855 1.64444,-37.41632 1.33333,-199.69132 z m -9.49415,190.9077 c -0.48889,-0.48889 -0.88889,-2.66236 -0.88889,-4.82993 0,-3.35197 0.29894,-3.69294 2,-2.28118 1.1,0.91292 2,3.08638 2,4.82992 0,3.09441 -1.32578,4.06652 -3.11111,2.28119 z m -23.55555,-4.44445 c 0,-4.60837 3.32293,-5.56705 4.66287,-1.34526 1.00778,3.1752 -0.10524,5.34526 -2.74156,5.34526 -1.2459,0 -1.92131,-1.40614 -1.92131,-4 z m 9.66666,3.02151 C 807.63226,747.18882 809.28321,744 813.25461,744 c 5.11513,0 6.54911,-2.35967 1.76796,-2.90926 l -3.68928,-0.42407 3,-2.62966 c 1.65,-1.44631 3,-3.69631 3,-5 0,-1.76296 1.06152,-2.37034 4.14266,-2.37034 3.43301,0 3.97334,0.3997 3.15428,2.33333 -0.5436,1.28333 -1.41355,4.88909 -1.93321,8.01278 -0.51967,3.1237 -1.32676,6.06137 -1.79355,6.52816 -1.05202,1.05202 -7.64973,1.59423 -9.90351,0.8139 z m -9.66666,-25.68817 v -8 h 4 c 3.37777,0 3.99999,0.51852 3.99999,3.33333 0,2.81481 0.62223,3.33333 4,3.33333 3.92139,0 4,-0.1336 4,-6.79758 v -6.79758 l -8,0.9285 c -7.9633,0.92424 -7.99999,0.91261 -7.99999,-2.53575 0,-2.80631 -0.63308,-3.46425 -3.33334,-3.46425 -2.20034,0 -3.33333,0.74313 -3.33333,2.18634 0,2.56852 -3.73361,5.71079 -6.85735,5.77125 -2.9926,0.0579 -4.06113,-3.36794 -3.08362,-9.88649 0.67262,-4.48537 0.32227,-5.91606 -1.95302,-7.97516 -2.6575,-2.40501 -2.77268,-3.80501 -2.77268,-33.70214 0,-26.4199 0.33771,-31.84583 2.20702,-35.46002 1.21386,-2.34691 2.42919,-6.93245 2.70074,-10.19009 0.60416,-7.24767 0.89158,-7.56216 5.45159,-5.9651 2.23692,0.78344 3.80493,2.42144 4.06672,4.24824 0.38536,2.68908 1.17352,2.97317 8.24886,2.97317 h 7.82278 l 0.41781,-4.33334 c 0.35143,-3.64478 1.01764,-4.40203 4.19279,-4.76568 l 3.77498,-0.43235 -0.93085,7.45032 c -0.79449,6.35883 -0.63356,7.33624 1.09842,6.67161 1.45533,-0.55846 2.28349,0.37876 2.92812,3.31371 0.49436,2.25083 2.20089,5.00441 3.79229,6.11906 2.68748,1.88239 2.8869,3.09261 2.80149,17.00166 -0.0506,8.23625 -0.8117,17.97501 -1.69139,21.64167 -0.87969,3.66667 -2.12088,10.86667 -2.75819,16 -0.63731,5.13334 -1.78772,10.83334 -2.55645,12.66667 -1.28564,3.06608 -1.40447,2.87901 -1.48221,-2.33333 -0.10445,-7.00332 -2.23984,-7.46714 -3.06927,-0.66667 -0.40508,3.32125 -0.006,5.358 1.18746,6.06625 0.98851,0.58644 1.79729,2.74691 1.79729,4.80104 0,4.73431 2.45638,12.11887 5.01718,15.08305 3.76773,4.36122 1.1135,6.5771 -7.338,6.12611 -7.09371,-0.37854 -7.71166,-0.18106 -8.10525,2.59022 -0.33115,2.33169 -1.29648,3 -4.33333,3 -3.88666,0 -3.90726,-0.0422 -3.90726,-8 z m 8.80931,-26.10905 c -0.44512,-1.15998 -0.80932,-7.15998 -0.80932,-13.33334 0,-9.08825 -0.3806,-11.22428 -1.99999,-11.22428 -1.1,0 -2,-0.83436 -2,-1.85413 0,-1.12633 -1.83178,-2.06797 -4.66667,-2.39893 -3.80604,-0.44433 -4.66667,-0.10239 -4.66667,1.85413 0,1.31941 0.9,2.39893 2,2.39893 1.39683,0 2,1.40741 2,4.66667 0,2.90422 -0.64493,4.66666 -1.70768,4.66666 -2.0789,0 -5.08435,7.4552 -4.07053,10.09718 0.4016,1.04655 2.11692,1.90282 3.81181,1.90282 4.46783,0 7.29974,1.3485 7.29974,3.47599 0,1.02154 1.26419,1.85735 2.80931,1.85735 2.01394,0 2.58019,-0.59712 2,-2.10905 z m -8.80931,-70.71313 c 0,-1.01447 -1.2,-1.84449 -2.66667,-1.84449 -1.73413,0 -2.66667,0.88889 -2.66667,2.54184 0,1.8854 0.68868,2.36175 2.66667,1.84449 1.46667,-0.38354 2.66667,-1.52737 2.66667,-2.54184 z m -19.78598,98.75944 c -2.1716,-4.76614 -1.93785,-10.83545 0.45264,-11.75277 1.64011,-0.62936 2,0.66456 2,7.19069 0,4.37698 -0.20369,7.95815 -0.45264,7.95815 -0.24896,0 -1.14896,-1.52823 -2,-3.39607 z m 41.11931,-277.93726 c 0,-5.03704 0.48889,-6.66667 2,-6.66667 2.15512,0 2.48368,2.58156 1.16666,9.16667 -1.28426,6.4213 -3.16666,4.9352 -3.16666,-2.5 z m -32.46054,-75.38969 c 0.87327,-2.27571 3.33205,-1.99579 4.15498,0.47302 0.2931,0.87928 -0.6888,1.58333 -2.20815,1.58333 -1.91747,0 -2.49987,-0.61516 -1.94683,-2.05635 z m 284.79381,384.46477 c 4.1487,-1.58246 4.4621,-3.25712 1.8013,-9.6254 -1.513,-3.62104 -2.4578,-4.35273 -5,-3.87226 -5.2062,0.98393 -7.6689,-7.0296 -8.584,-27.93156 -0.7202,-16.45173 -1.132,-19.6093 -2.374,-18.20142 -0.2695,0.30556 -0.9089,14.54822 -1.4207,31.65036 l -0.9307,31.09481 6.4207,-0.85796 c 3.5314,-0.47188 8.0708,-1.48734 10.0874,-2.25657 z m 188.6914,0.87206 c 1.5879,-0.51548 1.2742,-7.30622 -0.4677,-10.12462 -0.3632,-0.58771 -0.236,-4.2382 0.2827,-8.11221 l 0.943,-7.04365 1.7152,4 c 2.1858,5.09757 2.2985,11.67031 0.2354,13.73334 -1.1406,1.14061 -1.1659,1.6 -0.088,1.6 0.8848,0 1.2611,1.38237 0.9073,3.33333 -0.3849,2.12253 0.01,3.33338 1.0883,3.33347 2.3327,1.9e-4 2.4107,-5.90597 2.862,-216.8469 l 0.3883,-181.51343 -30.1121,-0.79615 c -16.5617,-0.43789 -31.9121,-0.95684 -34.1121,-1.15324 l -4,-0.35708 0.1732,196.27102 c 0.095,107.94907 0.5499,198.27876 1.0103,200.73265 l 0.837,4.46162 28.3231,-0.48454 c 15.5777,-0.26649 29.0842,-0.73162 30.0144,-1.03361 z m -626.78695,-0.44869 c 0.86407,-0.0908 2.30955,-3.46512 3.21217,-7.49845 1.63014,-7.28422 4.30597,-9.59432 5.79159,-5 0.86654,2.67978 6.59547,5.66666 10.86884,5.66666 3.17815,0 4.50745,-3.02679 4.53815,-10.33333 0.0157,-3.73819 -0.4396,-4.33333 -3.31513,-4.33333 -1.96029,0 -3.33333,-0.76507 -3.33333,-1.85735 0,-1.02154 -0.9,-2.20271 -2,-2.62482 -1.17539,-0.45104 -2,-2.45121 -2,-4.85117 0,-2.39996 0.82461,-4.40012 2,-4.85116 1.34983,-0.51798 2,-2.63616 2,-6.51577 0,-7.01954 1.02777,-9.9664 3.47598,-9.9664 1.39899,0 1.85735,-2.16042 1.85735,-8.75432 0,-4.81488 0.64861,-9.96627 1.44136,-11.44753 0.79275,-1.48126 1.0106,-3.09182 0.48413,-3.57901 -0.52648,-0.48719 -1.22509,-0.13581 -1.55248,0.78086 -0.32738,0.91667 -1.44523,1.66667 -2.48412,1.66667 -1.32048,0 -1.88889,1.63433 -1.88889,5.4311 0,4.45197 -0.42066,5.35141 -2.33333,4.98908 -3.14768,-0.59629 -4.04317,-8.77024 -1.08517,-9.90534 1.5303,-0.58722 2.08517,-2.69051 2.08517,-7.90403 0,-8.44535 1.82725,-13.94415 4.63366,-13.94415 3.01472,0 2.471,-4.90777 -0.63366,-5.71966 -1.46667,-0.38354 -2.66667,-1.71857 -2.66667,-2.96672 0,-1.75487 0.75572,-2.0797 3.33333,-1.43276 3.17818,0.79767 3.33334,0.56288 3.33334,-5.04424 0,-5.29034 0.36482,-5.97243 3.63311,-6.79272 2.19386,-0.55062 3.82248,-0.34378 4.11111,0.52213 0.60302,1.80905 5.58911,1.89884 5.58911,0.10064 0,-0.73333 -0.9,-1.33333 -2,-1.33333 -3.22032,0 -2.62202,-7.52632 0.66666,-8.38634 1.98999,-0.52039 2.67185,-1.82862 2.68709,-5.1555 0.0154,-3.36899 0.33619,-3.96954 1.31291,-2.45816 0.71088,1.1 1.39746,8 1.52574,15.33333 l 0.23323,13.33333 0.98301,-14 c 0.54065,-7.7 1.96857,-18.8 3.17315,-24.66666 1.68481,-8.20549 2.47967,-24.04646 3.44491,-68.65424 0.70164,-32.42532 0.75098,-59.81211 0.11195,-62.12651 -1.46072,-5.29029 0.10855,-8.06299 5.94323,-10.50087 5.77954,-2.41485 6.69277,-4.93837 7.62231,-21.06269 0.56931,-9.87559 0.32129,-13.43973 -1.0292,-14.79022 -2.04152,-2.04152 -21.97443,-3.06227 -67.75351,-3.4696 -20.9383,-0.1863 -29.61641,0.18768 -30.99999,1.33596 -1.46295,1.21414 -1.92149,5.144 -1.92149,16.46808 0,17.0813 1.45565,20.80009 8.14182,20.80009 2.19483,0 5.69374,0.88072 7.77534,1.95716 l 3.78474,1.95716 0.7953,28.37617 c 0.77425,27.62473 2.22034,179.29286 2.18639,229.31195 l -0.0169,24.93577 6.33333,-0.43732 c 3.48333,-0.24053 7.0403,-0.51163 7.90438,-0.60244 z m 8.68888,-24.83179 c 0.0272,-2.2 0.326,-2.93858 0.66406,-1.64129 0.33806,1.29729 0.31583,3.09729 -0.0494,4 -0.36524,0.90271 -0.64183,-0.15871 -0.61466,-2.35871 z m 480.95987,13.29953 c -0.1378,-6.25193 -0.8613,-11.74463 -1.6079,-12.20601 -0.7759,-0.47959 -0.9498,-0.17959 -0.4059,0.70047 0.5232,0.84664 0.3943,1.53935 -0.2865,1.53935 -1.4189,0 -1.9857,12.19346 -0.8211,17.66666 1.6327,7.67352 3.366,3.39741 3.1214,-7.70047 z M 491.99998,693.37518 c 0,-5.34094 -0.3876,-6.47609 -2,-5.85735 -1.1,0.42211 -2,1.87505 -2,3.22875 0,2.38621 2.63258,9.25342 3.54735,9.25342 0.24896,0 0.45265,-2.98117 0.45265,-6.62482 z m 187.99999,-0.70851 c 0,-4.22223 0.79012,-6.79013 2.66666,-8.66667 3.42897,-3.42897 3.94311,-19.22488 0.66667,-20.48217 -1.1,-0.42211 -2.04269,-0.6363 -2.09486,-0.47598 -0.16853,0.51782 -2.66414,21.41008 -3.41928,28.62482 -0.48357,4.62015 -0.2374,7 0.72407,7 0.83761,0 1.45674,-2.55005 1.45674,-6 z m 239.87465,-48.22429 c 0.0689,-5.99002 0.53026,-11.94615 1.02516,-13.23584 0.835,-2.17598 0.97232,-2.15982 1.90628,0.22428 0.66147,1.6885 1.03859,0.1536 1.10018,-4.47773 0.0567,-4.26244 -0.72248,-8.29259 -1.97191,-10.19946 -1.68459,-2.57101 -2.1643,-9.26463 -2.60054,-36.28642 -0.63571,-39.3773 -2.01482,-62.63505 -3.4274,-57.80054 -1.27873,4.37642 -1.5247,141.09327 -0.27371,152.13774 l 0.96605,8.52892 1.57528,-14 c 0.8664,-7.7 1.63167,-18.90092 1.70061,-24.89095 z m -243.87465,19.47893 c 0,-10.47924 -0.42889,-14.48029 -1.48241,-13.82918 -0.81532,0.5039 -2.00613,0.0893 -2.64625,-0.92131 -0.7037,-1.11101 -1.17191,4.05432 -1.18426,13.06475 -0.0179,13.08163 0.26465,14.97673 2.31292,15.512 1.28333,0.33537 2.48333,0.67936 2.66666,0.76443 0.18334,0.0851 0.33334,-6.48074 0.33334,-14.59069 z M 662.58212,669 c -0.0791,-4.05318 -0.16542,-4.13142 -1.33592,-1.2102 -0.68827,1.71773 -0.91483,3.66773 -0.50346,4.33334 1.36511,2.20879 1.92484,1.25842 1.83938,-3.12314 z M 539.58574,659 c -0.33537,-1.28333 -0.60976,-0.23333 -0.60976,2.33333 0,2.56667 0.27439,3.61667 0.60976,2.33334 0.33537,-1.28334 0.33537,-3.38334 0,-4.66667 z M 539.80225,628.33333 539.60454,606 l -1.1193,14 c -1.01292,12.66953 -0.45294,30.66667 0.95419,30.66667 0.3083,0 0.47157,-10.05 0.36282,-22.33334 z m 398.86437,18.85735 c 0,-1.02154 1.2,-1.85735 2.66667,-1.85735 2.34884,0 2.66667,-0.88889 2.66667,-7.45816 0,-6.20701 0.42514,-7.56933 2.53434,-8.1209 4.7325,-1.23758 4.77285,-15.59374 0.0473,-16.8295 -1.9505,-0.51007 -2.52109,-2.2049 -2.84416,-8.44809 -0.30395,-5.87372 -0.9,-7.81001 -2.40415,-7.81001 -1.34826,0 -2.13475,1.62763 -2.41351,4.99472 -0.42166,5.09325 -0.85971,5.41954 -8.90955,6.63631 -3.1851,0.48145 -4.2974,4.741 -4.51919,17.30623 -0.19857,11.25005 1.543,15.54426 5.96163,14.69958 2.97216,-0.56816 3.21395,-0.20459 3.21395,4.83254 0,4.29392 0.42336,5.28447 2,4.67945 1.1,-0.42211 2,-1.60328 2,-2.62482 z m 11.86709,-10.85735 c 0.0731,-1.65 -0.46709,-3 -1.20042,-3 -0.73333,0 -1.27353,2.85 -1.20043,6.33334 0.10833,5.16197 0.33035,5.71683 1.20043,3 0.58713,-1.83334 1.12733,-4.68334 1.20042,-6.33334 z m -412.2813,-54.66666 c -0.33537,-1.28334 -0.60977,-0.23334 -0.60977,2.33333 0,2.56667 0.2744,3.61667 0.60977,2.33333 0.33537,-1.28333 0.33537,-3.38333 0,-4.66666 z m 522.69059,-9.98446 c -0.319,-1.65855 -0.592,-0.61554 -0.6068,2.31779 -0.015,2.93333 0.2461,4.29033 0.5799,3.01555 0.3337,-1.27479 0.3458,-3.67479 0.027,-5.33334 z m -0.019,-15.3235 c -0.338,-1.29729 -0.6368,-0.55871 -0.664,1.64129 -0.027,2.2 0.2494,3.26142 0.6146,2.35871 0.3653,-0.90271 0.3875,-2.70271 0.049,-4 z m -558.25726,-9.69204 c 0,-2.2 -0.6,-4 -1.33333,-4 -1.48305,0 -1.84025,5.7153 -0.44444,7.11111 1.50635,1.50636 1.77777,1.03137 1.77777,-3.11111 z m 558.30636,-10.3036 c -0.2886,-2.76635 -0.5296,-0.82974 -0.5355,4.3036 -0.01,5.13333 0.2302,7.39671 0.5248,5.02974 0.2945,-2.36698 0.2993,-6.56698 0.011,-9.33334 z M 918.68703,432 c 0.18056,-24.56667 0.93644,-47.36667 1.67972,-50.66667 1.43919,-6.38968 3.30865,-9.6913 4.92264,-8.69379 0.54301,0.3356 1.66765,-0.88306 2.49921,-2.70812 1.66936,-3.66386 6.34083,-5.93142 12.21947,-5.93142 2.10898,0 4.17545,-0.55165 4.59215,-1.22589 0.80465,-1.30195 -12.3949,-3.07434 -24.60026,-3.30325 -6.61361,-0.12403 -7.29443,0.12419 -6.9369,2.52914 0.21804,1.46667 0.92876,29.36667 1.57939,62 0.65063,32.63333 1.31453,63.83333 1.47535,69.33333 l 0.29239,10 L 917.38446,490 c 0.53584,-7.33333 1.122,-33.43333 1.30257,-58 z m 144.36597,-2.88834 c 0.1542,-33.48858 0.6491,-61.2574 1.0999,-61.70848 0.4507,-0.45108 2.1037,-1.06745 3.6733,-1.36971 2.4322,-0.46841 2.6558,-0.17982 1.5137,1.95416 -1.8035,3.36979 -1.6997,4.39133 0.7539,7.4242 1.9745,2.4405 2.0553,2.30301 1.4175,-2.40995 -0.935,-6.9085 1.0965,-7.65667 19.305,-7.10996 16.2949,0.48926 26.3209,2.68091 27.5731,6.02738 0.4283,1.14438 1.4946,2.6807 2.3696,3.41403 0.8762,0.73426 1.9738,6.68717 2.4429,13.24916 0.7989,11.17476 1.3884,13.97548 2.6604,12.63973 0.291,-0.30555 0.741,-10.15555 1,-21.88889 l 0.471,-21.33333 -8,0.66667 c -11.4422,0.95351 -42.5855,0.77036 -52,-0.30581 l -8,-0.91448 0.079,63.61014 c 0.044,34.98558 0.2626,67.21015 0.4867,71.61015 l 0.4073,8 1.2331,-5.33334 c 0.6781,-2.93333 1.3591,-32.73308 1.5133,-66.22167 z m -541.05302,56.38385 c 4.84168,-0.14744 6.11917,-0.55683 4.66666,-1.49551 -3.16004,-2.04218 -48,-1.72459 -48,0.33997 0,1.56869 15.8691,1.99186 43.33334,1.15554 z m 17.99999,-2.42884 c 0,-2.47618 -0.42987,-3.17013 -1.37704,-2.22296 -0.75737,0.75737 -0.99318,2.37737 -0.52401,3.6 1.23505,3.21851 1.90105,2.73609 1.90105,-1.37704 z m -17.33333,-47.13151 c 18.7,-9.36209 40.3,-19.48997 48,-22.5064 22.64674,-8.87173 20.4937,-6.50984 21.77597,-23.88836 0.89173,-12.08571 0.74242,-15.58691 -0.7613,-17.85163 -3.01589,-4.54218 -77.12966,-36.46767 -99.40752,-42.82111 -14.15478,-4.03681 -16.16349,-4.21727 -19.5313,-1.75467 -2.07537,1.51755 -2.46031,3.90828 -2.61364,16.23248 -0.13963,11.22234 0.27291,14.96678 1.84565,16.75221 1.11401,1.26467 11.32548,6.29767 22.69214,11.18445 11.36667,4.88678 23.06667,9.97687 26,11.3113 2.93334,1.33443 7.0232,2.81825 9.08859,3.29738 6.64627,1.54178 3.75513,4.87019 -8.42192,9.69569 -6.23333,2.47014 -17.63333,7.21305 -25.33333,10.53981 -7.7,3.32676 -16.30974,7.02735 -19.13275,8.22353 -2.82302,1.19619 -5.62322,3.4649 -6.22267,5.04159 -0.59946,1.57668 -0.43482,9.61676 0.36586,17.86683 1.28601,13.2509 1.77843,15.12005 4.22266,16.02843 6.06184,2.25283 14.28081,-0.75372 47.43356,-17.35153 z m 275.99999,-38.60183 c 0,-1.46666 -0.6,-2.66666 -1.33333,-2.66666 -0.73334,0 -1.33334,1.2 -1.33334,2.66666 0,1.46667 0.6,2.66667 1.33334,2.66667 0.73333,0 1.33333,-1.2 1.33333,-2.66667 z" id="path3" />
      <path style="fill:#121c2e" d="m 509.96269,1417.3779 c -29.67893,-4.2519 -50.77757,-14.0331 -68.0805,-31.562 -16.62554,-16.8426 -23.20353,-30.6525 -25.87527,-54.323 -2.55029,-22.5944 0.98879,-44.0607 10.35796,-62.8262 4.13444,-8.2809 6.33899,-11.1592 16.71158,-21.8184 16.70943,-17.1713 31.08215,-24.2328 64.16584,-31.5254 7.81317,-1.7223 17.21679,-2.3737 36,-2.4937 30.67691,-0.1961 37.65688,1.0792 70.091,12.8066 8.39468,3.0353 8.67973,3.2902 9.08289,8.1226 0.22893,2.7439 -0.47754,8.1208 -1.56993,11.9486 -1.09239,3.8278 -2.39892,9.817 -2.90341,13.3094 -0.50449,3.4923 -1.41115,6.655 -2.01481,7.0281 -0.60366,0.373 -4.51283,-1.1694 -8.68705,-3.4278 -22.49451,-12.17 -70.88475,-16.4656 -95.03197,-8.436 -17.97608,5.9775 -34.86671,19.475 -41.00053,32.764 -3.74609,8.1159 -3.87202,9.0605 -3.87357,29.0553 -0.002,19.6122 0.18005,21.0542 3.55863,28.262 7.96158,16.985 25.21454,27.8045 52.87628,33.1591 11.9012,2.3038 41.52384,0.9126 57.56348,-2.7034 19.81838,-4.468 21.95848,-5.1563 27.29974,-8.781 9.08185,-6.1631 11.31756,-3.4751 14.8623,17.8688 1.95219,11.7547 2.00638,13.9055 0.38723,15.3691 -3.96419,3.5832 -23.82138,11.3603 -37.66201,14.7504 -12.59346,3.0846 -17.8942,3.6067 -41.33334,4.0713 -14.78799,0.2932 -30.50403,0.015 -34.92454,-0.6184 z m 722.02711,0.079 c -12.0398,-1.7001 -29.1402,-8.0321 -38.0856,-14.1027 -7.0056,-4.7541 -10.2374,-4.3343 -15.2376,1.9789 l -4.2241,5.3334 -18.8879,-4e-4 -18.888,-4e-4 0.09,-134.3329 c 0.049,-73.8832 0.1993,-135.0975 0.3334,-136.0319 0.1888,-1.3158 5.2803,-1.6165 22.5771,-1.3333 l 22.3333,0.3655 0.6667,44.6667 c 0.3667,24.5667 1.1521,45.4167 1.7454,46.3333 1.8165,2.8067 5.2531,1.8878 13.2459,-3.5418 20.8063,-14.1338 44.7892,-18.7525 76.6379,-14.759 27.0912,3.3969 54.5453,19.796 67.5031,40.3214 17.1162,27.1124 20.5572,73.7624 7.8419,106.3128 -10.3388,26.4666 -35.3835,48.0553 -64.9742,56.0082 -11.7639,3.1617 -39.5832,4.631 -52.6768,2.7822 z m 39.3435,-38.7786 c 13.2768,-5.5863 26.679,-18.1079 32.3555,-30.2294 3.516,-7.5082 3.643,-8.5577 3.6016,-29.7824 -0.037,-19.0519 -0.4482,-23.3007 -3.0682,-31.706 -7.8087,-25.0525 -22.0682,-37.0626 -47.8916,-40.3366 -26.189,-3.3205 -53.4407,5.4431 -67.8577,21.8217 l -5.4458,6.1868 -0.091,40.9442 -0.091,40.9443 4.4333,4.1811 c 10.2078,9.6272 28.2597,19.2428 41.3033,22.0008 2.9795,0.63 11.4172,0.992 18.7506,0.8045 11.6987,-0.2991 14.641,-0.8911 24,-4.829 z m -356.71335,34.626 c -0.8555,-0.5287 -1.22901,-7.315 -0.99487,-18.0755 l 0.37488,-17.229 28.25724,-0.3596 28.25724,-0.3597 2.91976,-3.6403 2.91976,-3.6404 -0.82352,-56.6095 c -0.75989,-52.2355 -1.01022,-56.7962 -3.23983,-59.0258 -2.08477,-2.0847 -5.88365,-2.5499 -27.68681,-3.3905 L 919.33329,1250 v -15.3333 -15.3334 l 4.66667,-0.287 c 17.87763,-1.0996 91.64594,-1.6848 92.98834,-0.7377 1.272,0.8975 1.7918,18.4348 2.2459,75.7629 0.3249,41.0273 0.6301,75.0023 0.6783,75.4999 0.048,0.4976 1.0303,1.8476 2.1827,3 1.7484,1.7485 6.039,2.0953 25.9213,2.0953 15.5222,0 24.1341,0.4984 24.71,1.4302 1.353,2.1892 0.6717,33.2904 -0.789,36.0198 -1.219,2.2777 -5.3578,2.3945 -78.61727,2.2193 -42.53179,-0.1017 -77.94692,-0.5659 -78.70028,-1.0315 z m -220.01332,-2.0415 c -0.63986,-0.7721 -1.22656,-28.9721 -1.30378,-62.6667 -0.15615,-68.1323 -0.46701,-71.3497 -10.00634,-103.5654 -2.54643,-8.5997 -4.62988,-16.7818 -4.62988,-18.1824 0,-2.1007 1.57574,-2.8201 9,-4.1089 4.95,-0.8592 13.4602,-2.4926 18.91155,-3.6297 9.35971,-1.9523 10.00927,-1.9338 11.66667,0.3328 0.96531,1.3202 1.75512,3.2611 1.75512,4.3131 0,1.052 1.73731,7.3873 3.86069,14.0785 2.12338,6.6911 4.39241,14.2657 5.0423,16.8324 1.03582,4.0909 1.75214,4.7139 5.80597,5.0495 4.28102,0.3544 5.42581,-0.488 15.41857,-11.3458 25.39283,-27.5909 43.52018,-35.7508 77.20579,-34.7535 14.74749,0.4366 18.92463,1.0717 28,4.2572 5.86667,2.0593 11.46394,4.4987 12.43837,5.421 1.46778,1.3892 1.03896,4.6241 -2.49979,18.8576 -5.97919,24.0493 -6.21504,24.3477 -15.10209,19.1042 -6.76771,-3.9931 -25.39543,-8.159 -36.18359,-8.0921 -17.73,0.1098 -36.5551,8.3606 -50.19355,21.999 -7.19705,7.1971 -9.75447,10.6283 -18.51127,24.8362 l -4.51979,7.3333 -1.38081,50.9358 c -0.82154,30.3053 -1.92084,51.4572 -2.71414,52.2231 -1.90082,1.8351 -40.59026,2.5441 -42.06,0.7708 z m 291.39332,-233.8721 -18.66666,-0.7242 V 1158 1139.3333 l 22.49034,-0.3663 c 15.45507,-0.2517 23.06687,0.1122 24.33337,1.1633 1.399,1.1611 1.843,5.7921 1.843,19.2236 0,19.2228 -0.1651,19.6269 -7.7758,19.037 -1.9567,-0.1517 -11.95758,-0.6017 -22.22425,-1 z M 793.3333,1013.2935 c -17.96667,-0.6 -38.36667,-1.7068 -45.33334,-2.4596 -6.96666,-0.7528 -17.16666,-1.7306 -22.66666,-2.1729 -24.43223,-1.9649 -104.62912,-11.7399 -108.90607,-13.27432 -0.86501,-0.31033 -7.46501,-1.52399 -14.66667,-2.69703 -17.85377,-2.90809 -37.99677,-7.09025 -48.42725,-10.05463 -4.76667,-1.3547 -16.28931,-3.9882 -25.60588,-5.85222 -9.31656,-1.86402 -21.01656,-4.32125 -26,-5.46051 -4.98343,-1.13926 -14.46079,-3.3119 -21.06079,-4.82809 -20.31111,-4.66599 -43.08706,-13.06461 -63.99999,-23.59997 -16.3413,-8.23229 -21.48606,-11.55284 -28.12342,-18.1515 -7.83881,-7.79311 -8.15767,-8.37881 -9.10103,-16.71722 -1.13845,-10.06275 0.41328,-49.11216 1.99033,-50.08683 0.58958,-0.36438 7.55845,1.06938 15.48638,3.18614 7.92792,2.11675 20.4144,5.16787 27.74774,6.78026 7.33333,1.61238 17.53333,4.05666 22.66666,5.43172 5.13334,1.37506 14.73333,3.74504 21.33333,5.26662 6.6,1.52158 15,3.62172 18.66667,4.66697 3.66667,1.04526 9.06667,2.28856 12,2.76289 2.93333,0.47433 10.43333,1.95677 16.66667,3.29431 6.23333,1.33754 18.23333,3.66911 26.66666,5.18127 8.43333,1.51216 20.13333,3.63037 26,4.70713 5.86667,1.07677 13.66667,2.33915 17.33333,2.8053 3.66667,0.46615 12.66667,1.95681 20,3.31259 17.66363,3.26562 37.53833,6.37138 50.67824,7.91933 5.87302,0.69187 13.38295,1.86408 16.68872,2.60492 3.30577,0.74084 16.50056,1.99153 29.32176,2.77931 12.8212,0.78778 28.11128,1.98891 33.97794,2.66917 5.86667,0.68027 20.56667,1.59441 32.66667,2.03143 12.1,0.43703 27.1,1.38573 33.33333,2.10824 14.67945,1.70149 136.89912,2.56662 154.87383,1.09626 7.58606,-0.62055 23.69283,-1.7238 35.79283,-2.45166 27.78781,-1.67156 63.96761,-4.9173 84.66661,-7.59556 8.8,-1.13864 23.2,-2.86914 32,-3.84555 17.0016,-1.88643 65.2914,-9.08658 75.3334,-11.23242 3.3,-0.70517 15.9,-3.1352 28,-5.40007 12.1,-2.26487 27.4,-5.27018 34,-6.67847 6.6,-1.40829 15.3,-3.19674 19.3333,-3.97433 20.1714,-3.88886 73.9785,-17.9244 90.227,-23.53565 7.5161,-2.5956 14.2897,-4.33351 15.0526,-3.86203 0.878,0.54261 1.3871,9.72727 1.3871,25.02426 0,21.7874 -0.2744,24.73372 -2.7862,29.92244 -6.9865,14.43228 -45.5192,39.3428 -75.8805,49.05513 -6.2333,1.99399 -13.4333,4.44249 -16,5.44112 -9.1157,3.54668 -50.446,12.9696 -73.3333,16.71931 -4.7667,0.78094 -13.7667,2.52166 -20,3.86826 -6.2334,1.3466 -20.3334,3.74186 -31.3334,5.3228 -11,1.58093 -24.8,3.71714 -30.6666,4.74711 -5.8667,1.02998 -19.6667,2.79547 -30.6667,3.92327 -11,1.1279 -23.3,2.6242 -27.3333,3.3252 -4.0334,0.7009 -16.6333,1.9054 -28,2.6767 -11.3667,0.7712 -22.1667,1.7468 -24,2.1681 -12.982,2.9831 -161.25605,5.0946 -220,3.133 z m 638.1017,-18.29261 c -16.802,-0.24802 -27.2149,-0.93152 -28.3333,-1.85978 -1.384,-1.14858 -1.7684,-8.8235 -1.7684,-35.30437 0,-40.07526 -0.682,-38.24523 14.8089,-39.73741 30.402,-2.92852 47.9509,-13.14261 58.4946,-34.04614 6.3588,-12.60668 6.6965,-18.99082 6.6965,-126.61718 0,-104.94899 0.2478,-110.21456 6.0925,-129.43601 5.7351,-18.86121 9.7042,-25.88356 21.6378,-38.28241 7.8408,-8.14647 26.9638,-20.9802 35.6945,-23.95505 7.509,-2.55856 10.6602,-7.60706 6.6009,-10.57527 -1.3945,-1.01966 -3.3999,-1.85394 -4.4565,-1.85394 -4.6856,0 -28.0292,-17.25902 -38.9948,-28.83071 -8.3292,-8.78963 -17.1361,-23.14393 -20.3505,-33.16929 -6.3762,-19.88666 -6.4248,-21.01111 -5.5233,-127.82029 0.7673,-90.91378 0.6391,-101.10839 -1.3699,-108.90796 -4.6341,-17.9917 -16.8278,-32.34842 -34.6721,-40.82263 -9.19,-4.36431 -11.3298,-4.83025 -25.0207,-5.4481 -8.2342,-0.37159 -15.7213,-1.27231 -16.6379,-2.00158 -2.3207,-1.8463 -2.4165,-72.37866 -0.1002,-73.8102 0.8615,-0.53247 18.7115,-0.83271 39.6666,-0.66719 47.9681,0.37889 61.0654,2.35423 83.3495,12.57077 33.5947,15.40207 53.5457,39.25288 63.7744,76.24052 5.9521,21.52345 6.3097,29.08923 6.3097,133.52258 0,93.30725 0.1416,99.27135 2.5845,108.8229 4.534,17.72786 12.3859,30.08946 25.9867,40.91193 9.5929,7.63328 27.0384,16.98222 34.0438,18.24385 9.8628,1.77623 9.401,0.26643 9.2402,30.21232 -0.08,14.82419 -0.5295,30.42349 -1,34.6651 l -0.8552,7.71201 -10.6667,3.69028 c -28.1999,9.75613 -44.1374,24.44844 -54.1312,49.9018 l -4.3126,10.98389 -0.1385,112 c -0.1367,110.53577 -0.1768,112.15689 -3.0645,124 -6.5557,26.88585 -10.9477,36.73101 -23.3895,52.43037 -13.1293,16.56694 -33.0777,30.28785 -57.2585,39.38357 -11.6039,4.36485 -37.2593,8.93661 -47.9759,8.54925 -4.6178,-0.16691 -20.3502,-0.47995 -34.9609,-0.69563 z M 257.33332,992.00851 c -18.10571,-3.83724 -30.49762,-7.65605 -36.7682,-11.33086 -20.60373,-12.07459 -44.96643,-35.60642 -52.34505,-50.55986 -6.19814,-12.56108 -11.9907,-29.84076 -13.56666,-40.47041 -0.73232,-4.93939 -1.91461,-11.38071 -2.62731,-14.31405 -0.77976,-3.20934 -1.30849,-46.06001 -1.32763,-107.59783 l -0.0318,-102.26451 -3.46719,-11.06883 c -9.32906,-29.78253 -23.98085,-44.0404 -55.866141,-54.36417 -15.608965,-5.05385 -14.852278,-4.50611 -15.802516,-11.43885 -0.475283,-3.46757 -0.86415,-18.14745 -0.86415,-32.62198 0,-20.07219 0.41455,-26.66135 1.746938,-27.76714 0.960816,-0.7974 6.076213,-3.21164 11.367549,-5.36496 24.73819,-10.06728 41.35091,-23.73671 49.61082,-40.82124 9.13992,-18.90468 8.9696,-16.62888 9.88039,-132.02382 0.46598,-59.03828 1.40464,-107.74681 2.1712,-112.66667 3.13217,-20.10278 15.75456,-50.00637 27.15068,-64.32241 7.33589,-9.2155 18.33556,-18.07778 30.07242,-24.22893 11.02399,-5.77755 34.28567,-13.97238 44.66666,-15.73556 4.4,-0.74733 25.74972,-1.6208 47.44383,-1.94106 33.03599,-0.48768 39.70017,-0.2734 41.02174,1.31899 1.15009,1.38578 1.48164,11.79847 1.22283,38.40512 l -0.35507,36.50385 -12,0.87856 c -16.36082,1.19782 -30.48719,4.37218 -37.34705,8.39233 -11.55105,6.76936 -21.90655,22.24741 -24.68442,36.89505 -0.77649,4.09445 -1.30186,48.45646 -1.30186,109.92925 0,64.42516 -0.49229,104.35938 -1.31312,106.51831 -0.72221,1.89958 -1.93716,7.3601 -2.69987,12.1345 -1.65715,10.37335 -9.61362,28.18441 -17.01658,38.09269 -10.74182,14.37708 -24.87325,24.92643 -39.09081,29.18197 -9.21919,2.75944 -14.06222,6.50767 -12.7676,9.88139 0.42282,1.10186 5.14559,4.10614 10.49504,6.67618 12.6234,6.06467 24.71613,15.3061 37.39803,28.58009 8.21069,8.59403 11.49744,13.36204 16.83756,24.42577 11.46846,23.76055 10.95197,17.44227 10.8787,133.08058 -0.0721,113.72441 0.26186,119.44841 7.84435,134.4676 10.71428,21.22251 33.50222,32.19907 66.84705,32.19907 7.67383,0 10.94552,0.54874 12.49201,2.09523 1.79618,1.79619 2.09524,6.99164 2.09524,36.4 0,24.90371 -0.43848,34.74324 -1.6,35.90477 -1.1834,1.18339 -12.72684,1.56664 -44.33333,1.47188 -35.73237,-0.10712 -44.59007,-0.52161 -54.06667,-2.53004 z m 589.99997,-126.682 c -47.05293,-1.12428 -100.26485,-3.6327 -111.99999,-5.27971 -5.13333,-0.72046 -15.03333,-1.63449 -22,-2.03119 -6.96667,-0.3967 -20.16667,-1.61538 -29.33333,-2.70817 -9.16667,-1.0928 -25.06667,-2.87484 -35.33333,-3.9601 -30.21962,-3.19443 -52.86044,-5.97639 -53.90812,-6.62389 -0.53718,-0.33199 -8.42761,-1.53391 -17.53429,-2.67092 -28.42491,-3.54897 -50.77098,-7.7419 -132.55758,-24.87254 -13.93334,-2.91841 -29.83334,-6.1882 -35.33334,-7.26619 -14.1667,-2.77666 -22.98382,-5.77543 -25.52186,-8.68017 -2.01157,-2.30221 -2.20514,-23.52288 -2.39409,-262.45642 l -0.20556,-259.95169 2.81159,-1.50471 c 2.07099,-1.10837 113.15823,-1.49972 421.72741,-1.48574 424.004,0.0192 554.1477,0.75298 558.7681,3.15039 2.4184,1.25488 2.4997,3.44151 2.0394,54.82744 -0.2637,29.43624 -0.3286,146.18039 -0.1442,259.43146 0.2702,165.97886 0,206.23406 -1.3728,207.57678 -3.7571,3.66409 -40.6447,15.11181 -68.3747,21.21945 -5.8667,1.29216 -14.8667,3.42425 -20,4.73799 -5.1333,1.31374 -14.1333,3.01274 -20,3.77555 -5.8667,0.76281 -17.8667,2.94436 -26.6667,4.84788 -8.8,1.90352 -21.1064,4.26436 -27.3476,5.24629 -6.2413,0.98194 -14.9413,2.41167 -19.3334,3.17718 -4.3921,0.76551 -22.6856,2.92106 -40.6523,4.79011 -17.9667,1.86904 -39.2667,4.32421 -47.3333,5.45592 -8.0667,1.13171 -20.6667,2.5971 -28,3.25643 -22.126,1.98931 -62.8439,5.38818 -82.66668,6.90048 -22.75158,1.73576 -88.60776,2.26232 -137.33333,1.09809 z m -156.579,-102.70676 c 2.52527,-1.35148 2.57901,-4.37086 2.57901,-144.90289 V 474.1942 l 4.13786,-3.45444 c 4.01184,-3.34923 4.17019,-3.90038 5.19925,-18.0971 1.09562,-15.11499 0.44542,-18.6225 -3.66903,-19.79284 -1.28411,-0.36526 -23.39191,-0.85589 -49.12844,-1.0903 -38.17386,-0.34768 -47.20012,-0.0891 -49,1.40374 -1.81729,1.50727 -2.2063,4.51541 -2.2063,17.06061 0,14.39306 0.17998,15.41066 3.27273,18.5034 1.8,1.8 4.72653,3.27273 6.5034,3.27273 7.15754,0 6.80054,-6.45959 8.06184,145.87139 0.73169,88.36802 1.66089,142.07805 2.47574,143.10348 0.94496,1.18917 9.44064,1.74772 30.82869,2.02684 16.23834,0.21192 31.51371,0.52323 33.94525,0.6918 2.43154,0.16857 5.58154,-0.31462 7,-1.07376 z m 146.28233,-0.69536 2.96334,-2.0756 V 558.08765 c 0,-159.79789 -0.34664,-202.04274 -1.66667,-203.11511 -2.02483,-1.64496 -71.57248,-2.7983 -73.99999,-1.22718 -2.54275,1.6457 -2.43579,405.28981 0.10796,407.40093 1.16147,0.96394 13.25435,1.60462 34.99999,1.85431 18.27396,0.20982 33.54187,0.52053 33.9287,0.69045 0.38683,0.16992 2.03683,-0.62507 3.66667,-1.76666 z m 147.69667,0.80902 c 1.03622,-1.03615 1.36086,-183.23376 0.67855,-380.8119 -0.0557,-16.1377 -0.56896,-23.41584 -1.76672,-25.05386 -1.49933,-2.05047 -5.59811,-2.39755 -36.64466,-3.10302 -27.96471,-0.63545 -35.38213,-0.44109 -37.08447,0.97173 -1.93803,1.60841 -2.05299,19.73893 -1.28799,203.12603 0.57488,137.81278 1.28294,201.89373 2.24358,203.05124 1.00861,1.2153 7.83755,1.80321 24.266,2.0891 12.5743,0.21882 28.59237,0.53273 35.59571,0.69756 7.00333,0.16484 13.30333,-0.27025 14,-0.96688 z m 145.54131,-1.62803 c 1.3977,-1.15998 1.7253,-39.8726 1.7253,-203.85662 0,-133.25396 -0.4547,-202.70576 -1.3307,-203.24719 -0.732,-0.45236 -17.6484,-0.84476 -37.592,-0.87201 -32.825,-0.0448 -36.4205,0.16834 -37.9423,2.24964 -1.3401,1.8327 -1.5857,43.16379 -1.2105,203.71196 0.4065,173.93948 0.7342,201.60574 2.4022,202.82747 2.6348,1.92984 71.5561,1.17187 73.948,-0.81325 z m 144.7049,-0.28509 c 0.5388,-0.81783 0.9888,-92.16349 1,-202.99036 0.016,-159.60023 -0.3261,-201.78946 -1.6462,-202.87895 -1.0231,-0.84438 -15.2383,-1.5305 -36.813,-1.77685 -33.6092,-0.38376 -35.231,-0.28701 -37.0839,2.21228 -1.6794,2.26522 -1.8748,29.27155 -1.4662,202.61359 0.2592,110 0.9573,201.03982 1.5512,202.31072 0.9756,2.08777 4.3152,2.34521 34.6125,2.66819 35.3568,0.37691 38.2796,0.21857 39.8456,-2.15862 z m -729.50617,-0.32234 c 1.48525,-1.78962 1.80513,-26.57571 1.82993,-141.79439 0.0262,-121.71584 -0.22458,-139.93257 -1.95505,-142.01825 -1.85417,-2.23478 -4.27255,-2.33034 -36.66667,-1.44885 -19.53292,0.53151 -35.26395,1.51587 -36.0149,2.2536 -1.71331,1.68317 -2.13993,279.51238 -0.43431,282.84327 1.09219,2.13294 4.21139,2.33334 36.31796,2.33334 30.80841,0 35.34427,-0.26642 36.92304,-2.16872 z M 519.5764,438.57589 c 31.97395,-16.20075 49.84488,-24.32112 62.75619,-28.51578 10.13525,-3.29277 11.00072,-5.14029 11.00072,-23.48347 0,-17.84198 0.1148,-17.63668 -12.66667,-22.65071 -4.4,-1.72607 -8.6,-3.55968 -9.33333,-4.07469 -0.73334,-0.51502 -6.72896,-3.16657 -13.32362,-5.89235 -6.59466,-2.72578 -16.4215,-7.03059 -21.83743,-9.56624 -24.67342,-11.5517 -56.21433,-21.32453 -61.87589,-19.17201 -1.79632,0.68296 -3.64786,2.23678 -4.11455,3.45294 -1.17616,3.06503 -1.03049,30.31835 0.17191,32.16072 0.53877,0.82553 5.75837,3.40895 11.5991,5.74092 5.84074,2.33198 11.25037,4.76352 12.02141,5.40342 1.38093,1.14607 19.81099,8.93669 31.18224,13.18113 9.19509,3.43217 8.75602,4.04037 -7.82317,10.83659 -5.5,2.25459 -14.5,6.12826 -20,8.60816 -5.5,2.47989 -12.93029,5.53867 -16.51175,6.79727 -11.47119,4.03123 -11.91546,5.0065 -10.81333,23.7372 0.5241,8.90689 1.56011,16.94434 2.30225,17.86101 0.77291,0.95467 4.37386,1.66667 8.42918,1.66667 6.40547,0 10.10475,-1.53268 38.83674,-16.09078 z" id="path2" />
    <path style="fill:#ffffff" d="M 519.5764,438.57589 c 31.97395,-16.20075 49.84488,-24.32112 62.75619,-28.51578 10.13525,-3.29277 11.00072,-5.14029 11.00072,-23.48347 0,-17.84198 0.1148,-17.63668 -12.66667,-22.65071 -4.4,-1.72607 -8.6,-3.55968 -9.33333,-4.07469 -0.73334,-0.51502 -6.72896,-3.16657 -13.32362,-5.89235 -6.59466,-2.72578 -16.4215,-7.03059 -21.83743,-9.56624 -24.67342,-11.5517 -56.21433,-21.32453 -61.87589,-19.17201 -1.79632,0.68296 -3.64786,2.23678 -4.11455,3.45294 -1.17616,3.06503 -1.03049,30.31835 0.17191,32.16072 0.53877,0.82553 5.75837,3.40895 11.5991,5.74092 5.84074,2.33198 11.25037,4.76352 12.02141,5.40342 1.38093,1.14607 19.81099,8.93669 31.18224,13.18113 9.19509,3.43217 8.75602,4.04037 -7.82317,10.83659 -5.5,2.25459 -14.5,6.12826 -20,8.60816 -5.5,2.47989 -12.93029,5.53867 -16.51175,6.79727 -11.47119,4.03123 -11.91546,5.0065 -10.81333,23.7372 0.5241,8.90689 1.56011,16.94434 2.30225,17.86101 0.77291,0.95467 4.37386,1.66667 8.42918,1.66667 6.40547,0 10.10475,-1.53268 38.83674,-16.09078 z" /></g>
  </g>
</svg>